<?xml version="1.0" encoding="UTF-8" standalone="no"?>
<!-- Created with Inkscape (http://www.inkscape.org/) -->

<svg
   version="1.1"
   id="svg824"
   xml:space="preserve"
   width="8000"
   height="8000"
   viewBox="0 0 7999.9999 8000"
   sodipodi:docname="hello3.svg"
   inkscape:version="1.1.1 (3bf5ae0d25, 2021-09-20)"
   xmlns:inkscape="http://www.inkscape.org/namespaces/inkscape"
   xmlns:sodipodi="http://sodipodi.sourceforge.net/DTD/sodipodi-0.dtd"
   xmlns="http://www.w3.org/2000/svg"
   xmlns:svg="http://www.w3.org/2000/svg"><defs
     id="defs828"><clipPath
       clipPathUnits="userSpaceOnUse"
       id="clipPath1154"><path
         d="m 3303.2,10059.3 c 0,0.1 0.01,0.1 0.01,0.1 0,0 -0.01,0 -0.01,-0.1 m 0.02,0.8 c 0,0.1 0,0.1 0,0.2 0,-0.1 0,-0.1 0,-0.2 m 0.01,0.8 c 0,0.1 0,0.2 0,0.2 0,0 0,-0.1 0,-0.2"
         id="path1152" /></clipPath><clipPath
       clipPathUnits="userSpaceOnUse"
       id="clipPath1234"><path
         d="m 12392.1,10973 h -37.2 c 8.2,3 15.4,7.8 21.2,14 l 16,-14 m -3228.34,2.4 -647.58,0.7 -852.85,2689.6 232.49,297.2 c 33.29,-64.2 100.4,-108.1 177.76,-108.1 110.5,0 200.08,89.5 200.08,200 0,94.6 -65.56,173.8 -153.69,194.7 l 218.14,278.9 L 10474.2,12655 H 8516.81 c -94.08,0 -156.88,-97 -118.35,-182.8 l 616.81,-1374 c 28.11,-62.6 83.52,-107.4 148.49,-122.8 m 3105.74,105.1 h -218.4 c 1.5,0.1 3,0.3 4.5,0.4 h 213.4 l 0.5,-0.4 m -1162.1,320.6 -447.3,1090.9 1051.7,-922.3 -604.4,-168.6"
         id="path1232" /></clipPath><linearGradient
       x1="0"
       y1="0"
       x2="1"
       y2="0"
       gradientUnits="userSpaceOnUse"
       gradientTransform="matrix(4730.16,0,0,-4730.16,7663.33,12750.1)"
       spreadMethod="pad"
       id="linearGradient1240"><stop
         style="stop-opacity:1;stop-color:#ffd7a8"
         offset="0"
         id="stop1236" /><stop
         style="stop-opacity:1;stop-color:#ffedbc"
         offset="1"
         id="stop1238" /></linearGradient><clipPath
       clipPathUnits="userSpaceOnUse"
       id="clipPath1250"><path
         d="m 12393.5,10971.8 h -42 c 1.2,0.4 2.3,0.8 3.4,1.2 h 37.2 l 1.4,-1.2"
         id="path1248" /></clipPath><linearGradient
       x1="0"
       y1="0"
       x2="1"
       y2="0"
       gradientUnits="userSpaceOnUse"
       gradientTransform="matrix(4730.16,0,0,-4730.16,7663.33,12750.1)"
       spreadMethod="pad"
       id="linearGradient1256"><stop
         style="stop-opacity:1;stop-color:#826b68"
         offset="0"
         id="stop1252" /><stop
         style="stop-opacity:1;stop-color:#132043"
         offset="1"
         id="stop1254" /></linearGradient><clipPath
       clipPathUnits="userSpaceOnUse"
       id="clipPath1266"><path
         d="m 12051.1,11080.5 h -812.3 l -1.8,4.5 274.3,-4.1 h 544.3 c -1.5,-0.1 -3,-0.3 -4.5,-0.4 m -584.3,248.9 -346,38.8 -13.4,32.9 604.4,168.6 169.4,-148.6 -414.4,-91.7"
         id="path1264" /></clipPath><linearGradient
       x1="0"
       y1="0"
       x2="1"
       y2="0"
       gradientUnits="userSpaceOnUse"
       gradientTransform="matrix(4730.16,0,0,-4730.16,7663.33,12750.1)"
       spreadMethod="pad"
       id="linearGradient1272"><stop
         style="stop-opacity:1;stop-color:#faa688"
         offset="0"
         id="stop1268" /><stop
         style="stop-opacity:1;stop-color:#f58f80"
         offset="1"
         id="stop1270" /></linearGradient><clipPath
       clipPathUnits="userSpaceOnUse"
       id="clipPath1282"><path
         d="m 12269,11080.9 h -757.7 l -274.3,4.1 -116.2,283.2 346,-38.8 414.4,91.7 387.8,-340.2"
         id="path1280" /></clipPath><linearGradient
       x1="0"
       y1="0"
       x2="1"
       y2="0"
       gradientUnits="userSpaceOnUse"
       gradientTransform="matrix(4730.16,0,0,-4730.16,7663.33,12750.1)"
       spreadMethod="pad"
       id="linearGradient1288"><stop
         style="stop-opacity:1;stop-color:#fbb291"
         offset="0"
         id="stop1284" /><stop
         style="stop-opacity:1;stop-color:#f7a591"
         offset="1"
         id="stop1286" /></linearGradient><clipPath
       clipPathUnits="userSpaceOnUse"
       id="clipPath1298"><path
         d="m 12351.5,10971.8 -3187.74,3.6 c -64.97,15.4 -120.38,60.2 -148.49,122.8 l -616.81,1374 c -38.53,85.8 24.27,182.8 118.35,182.8 h 1957.39 l 185.9,-163 447.3,-1090.9 13.4,-32.9 116.2,-283.2 1.8,-4.5 h 812.3 218.4 l 106.6,-93.5 c -5.8,-6.2 -13,-11 -21.2,-14 -1.1,-0.4 -2.2,-0.8 -3.4,-1.2 m -2662.65,957.9 c -6.25,0 -12.54,-0.6 -18.85,-1.9 -58.77,-11.7 -95.53,-75.6 -82.08,-142.8 11.99,-59.9 59.94,-102 111.89,-102.1 6.25,0 12.55,0.7 18.85,1.9 58.77,11.8 95.52,75.7 82.07,142.8 -11.98,59.9 -59.92,102.1 -111.88,102.1"
         id="path1296" /></clipPath><linearGradient
       x1="0"
       y1="0"
       x2="1"
       y2="0"
       gradientUnits="userSpaceOnUse"
       gradientTransform="matrix(4730.16,0,0,-4730.16,7663.33,12750.1)"
       spreadMethod="pad"
       id="linearGradient1304"><stop
         style="stop-opacity:1;stop-color:#80747d"
         offset="0"
         id="stop1300" /><stop
         style="stop-opacity:1;stop-color:#0f316a"
         offset="1"
         id="stop1302" /></linearGradient><clipPath
       clipPathUnits="userSpaceOnUse"
       id="clipPath1314"><path
         d="m 9699.81,11682.9 c -51.95,0.1 -99.9,42.2 -111.89,102.1 -13.45,67.2 23.31,131.1 82.08,142.8 6.31,1.3 12.6,1.9 18.85,1.9 51.96,0 99.9,-42.2 111.88,-102.1 13.45,-67.1 -23.3,-131 -82.07,-142.8 -6.3,-1.2 -12.6,-1.9 -18.85,-1.9"
         id="path1312" /></clipPath><linearGradient
       x1="0"
       y1="0"
       x2="1"
       y2="0"
       gradientUnits="userSpaceOnUse"
       gradientTransform="matrix(4730.16,0,0,-4730.16,7663.33,12750.1)"
       spreadMethod="pad"
       id="linearGradient1320"><stop
         style="stop-opacity:1;stop-color:#ffdfc8"
         offset="0"
         id="stop1316" /><stop
         style="stop-opacity:1;stop-color:#fffbf9"
         offset="1"
         id="stop1318" /></linearGradient><clipPath
       clipPathUnits="userSpaceOnUse"
       id="clipPath1330"><path
         d="m 8073.58,13854.8 c -77.36,0 -144.47,43.9 -177.76,108.1 l 224.15,286.6 c 88.13,-20.9 153.69,-100.1 153.69,-194.7 0,-110.5 -89.58,-200 -200.08,-200"
         id="path1328" /></clipPath><linearGradient
       x1="0"
       y1="0"
       x2="1"
       y2="0"
       gradientUnits="userSpaceOnUse"
       gradientTransform="matrix(4730.16,0,0,-4730.16,7663.33,12750.1)"
       spreadMethod="pad"
       id="linearGradient1336"><stop
         style="stop-opacity:1;stop-color:#ffdbc2"
         offset="0"
         id="stop1332" /><stop
         style="stop-opacity:1;stop-color:#fff5ee"
         offset="1"
         id="stop1334" /></linearGradient></defs><sodipodi:namedview
     id="namedview826"
     pagecolor="#ffffff"
     bordercolor="#666666"
     borderopacity="1.0"
     inkscape:pageshadow="2"
     inkscape:pageopacity="0.0"
     inkscape:pagecheckerboard="0"
     showgrid="false"
     inkscape:zoom="0.13116831"
     inkscape:cx="5073.6341"
     inkscape:cy="5313.7836"
     inkscape:window-width="1920"
     inkscape:window-height="992"
     inkscape:window-x="-8"
     inkscape:window-y="-8"
     inkscape:window-maximized="1"
     inkscape:current-layer="g832" /><g
     id="g830"
     inkscape:groupmode="layer"
     inkscape:label="ink_ext_XXXXXX"
     transform="matrix(1.3333333,0,0,-1.3333333,0,4000)"><g
       id="g832"
       transform="scale(0.1)"><path
         d="m 44219.546,-25819.471 v 22985.9633 h 602.71 V -25819.471 h -602.71"
         style="fill:#05173e;fill-opacity:1;fill-rule:nonzero;stroke:none;stroke-width:3.99814"
         id="path1046" /><path
         d="M 56414.677,-25801.403 H 46361.171 V -7232.0371 H 56414.677 V -25801.403"
         style="fill:#65b3c6;fill-opacity:1;fill-rule:nonzero;stroke:none;stroke-width:3.99814"
         id="path1048" /><path
         d="M 56414.677,-12665.747 H 46361.171 v 393.095 h 10053.506 v -393.095"
         style="fill:#016589;fill-opacity:1;fill-rule:nonzero;stroke:none;stroke-width:3.99814"
         id="path1050" /><path
         d="M 56414.677,-19429.903 H 46361.171 v 392.656 h 10053.506 v -392.656"
         style="fill:#016589;fill-opacity:1;fill-rule:nonzero;stroke:none;stroke-width:3.99814"
         id="path1052" /><path
         d="m 59943.342,-25801.403 h -3528.665 v 18569.3659 h 3528.665 V -25801.403"
         style="fill:#016589;fill-opacity:1;fill-rule:nonzero;stroke:none;stroke-width:3.99814"
         id="path1054" /><path
         d="M 59751.567,-7426.3815 H 46353.082 c -280.462,0 -507.784,276.3128 -507.784,616.9664 v 67.4256 c 0,340.6535 227.322,616.9663 507.784,616.9663 h 13398.485 c 280.462,0 507.82,-276.3128 507.82,-616.9663 v -67.4256 c 0,-340.6536 -227.358,-616.9664 -507.82,-616.9664"
         style="fill:#016589;fill-opacity:1;fill-rule:nonzero;stroke:none;stroke-width:3.99814"
         id="path1056" /><g
         id="g1058"
         transform="matrix(-3.9946987,0,0,4.8532776,67607.154,-49891.733)"><path
           d="m 15587.7,5756.23 h 29.1 c 9.6,98.34 28.6,207.03 62.3,320.71 127.3,429.86 71.6,485.52 286.6,754.2 214.9,268.78 230.8,826.03 230.8,826.03 0,0 103.5,632.89 0,911.56 -103.4,278.59 -111.4,557.26 -362.2,851.82 0,0 -47.8,-394.08 -107.4,-573.23 -59.8,-179.16 -116.4,-350.32 -72.2,-780.18 44.3,-429.85 71.8,-465.72 81.9,-577.13 10.1,-111.51 -5.7,-581.23 18.1,-658.87 23.9,-77.54 -139.3,-614.91 -151.2,-845.73 -3.7,-69.37 -10.1,-148.46 -15.8,-229.18"
           style="fill:#65b3c6;fill-opacity:1;fill-rule:nonzero;stroke:none"
           id="path1060" /></g><g
         id="g1062"
         transform="matrix(-4.1284369,0,0,5.0157602,67607.154,-49891.733)"><path
           d="m 15171.3,5569.78 c 40.2,92.61 110.8,184.6 234.5,239.77 323.5,144.45 541.8,141.2 691.9,487.9 150.3,346.61 150.3,820.36 202.3,918.59 0,0 -138.6,23.1 -277.4,-225.37 -138.6,-248.38 -232.6,-433.24 -312.8,-577.68 -80,-144.45 -195.5,-104.03 -293.8,-213.77 -82.3,-91.99 -158.3,-306.02 -187.1,-414.62 -9.4,-35.23 -23,-69.23 -41,-101.04 -16.5,-28.82 -35.7,-63.96 -47.2,-89 -2.6,-5.62 -5.1,-14.06 -7.7,-24.78 h 38.3"
           style="fill:#016589;fill-opacity:1;fill-rule:nonzero;stroke:none"
           id="path1064" /></g><g
         id="g1066"
         transform="matrix(-3.7942547,0,0,4.6097523,67607.154,-49891.733)"><path
           d="m 15514.2,7847.95 c -25.2,-322.65 180.2,-297.5 188.6,-502.85 8.4,-205.35 276.6,-553.14 400.8,-800.45 64.7,-128.59 88.6,-325.23 96.6,-484.31 h 99.8 c -38.6,402.66 -202,682.96 -299.6,907.62 -125.8,289.09 -144.7,421.11 -37.8,647.4 106.9,226.38 -50.3,810.97 101.8,1071.57 152.2,260.61 74.2,669.68 39.2,826.85 -35,157.16 3.6,264.04 35,429.71 31.5,165.71 -35,406.41 -35,406.41 -5.6,-205.4 -161.9,-486.14 -275.1,-666.34 -113.1,-180.21 -326.9,-670.53 -301.7,-892.61 25.1,-222.17 12.5,-238.9 12.5,-238.9 -79.5,-297.61 0,-381.35 -25.1,-704.1"
           style="fill:#65b3c6;fill-opacity:1;fill-rule:nonzero;stroke:none"
           id="path1068" /></g><g
         id="g1070"
         transform="matrix(-3.7863834,0,0,4.6001893,67607.154,-49891.733)"><path
           d="m 16146.7,6335.72 c 12.9,-38.6 54.1,-137.18 91.9,-262.77 h 61.4 c -28,159.89 -76.2,345.45 -157.5,451.78 -163.7,214.11 -491.2,306.56 -529.1,461.94 -37.8,155.39 4.2,621.45 -235.2,881.83 0,0 33.7,-289.89 0,-367.49 -33.6,-77.59 -319.1,-438.75 -151.1,-741.19 168,-302.34 545.9,-264.5 663.5,-331.75 117.6,-67.15 235.1,-29.31 256.1,-92.35"
           style="fill:#016589;fill-opacity:1;fill-rule:nonzero;stroke:none"
           id="path1072" /></g><g
         id="g1074"
         transform="matrix(-3.8473582,0,0,4.6742694,67607.154,-49891.733)"><path
           d="m 15742,7607.65 c -4.1,-305.75 235.7,-421.52 231.5,-590.94 -4.1,-169.43 49.6,-351.29 95,-487.71 28.8,-86.37 13,-326.69 7.9,-552.3 h 66.4 c 16.8,165.84 35.1,404.93 29.1,511 -8.3,144.62 57.9,260.4 66.2,512.51 8.2,252.1 61.9,479.32 -49.7,797.61 -111.6,318.19 -90.9,698.42 -557.9,1049.71 0,0 -82.7,-371.93 -20.7,-574.45 62,-202.51 136.4,-359.58 132.2,-665.43"
           style="fill:#016589;fill-opacity:1;fill-rule:nonzero;stroke:none"
           id="path1076" /></g><g
         id="g1078"
         transform="matrix(-3.9858481,0,0,4.8425249,67607.154,-49891.733)"><path
           d="m 15651.7,6020.92 h -43.1 -574.7 c -42.3,0 -73.5,-39.5 -63.7,-80.63 l 225.2,-949.9 c 7,-29.49 33.4,-50.33 63.7,-50.33 h 349.5 43.1 349.6 c 30.3,0 56.6,20.84 63.6,50.33 l 225.3,949.9 c 9.8,41.13 -21.4,80.63 -63.6,80.63 h -574.9"
           style="fill:#ff7768;fill-opacity:1;fill-rule:nonzero;stroke:none"
           id="path1080" /></g><path
         d="m 22541.333,-2800.4559 h 22669.043 c 265.373,0 480.544,283.3638 480.544,632.8312 0,349.4674 -215.171,632.8312 -480.544,632.8312 H 22541.333 c -265.518,0 -480.617,-283.3638 -480.617,-632.8312 0,-349.4674 215.099,-632.8312 480.617,-632.8312"
         style="fill:#05173e;fill-opacity:1;fill-rule:nonzero;stroke:none;stroke-width:3.99814"
         id="path1082" /><path
         d="m 14589.949,8099.1362 c -156.336,1794.9313 685.559,3451.4858 2071.909,3941.9738 74.359,1001.249 490.047,1963.716 1120.832,2577.597 1244.524,1211.459 3405.663,1690.048 4094.486,-133.969 1037.405,-875.652 1768.667,-2585.089 1318.883,-4005.434 956.154,-1444.5824 353.298,-3771.427 -1293.492,-4702.6055 -98.3,-1476.3124 -874.903,-2860.9612 -2009.881,-3357.1784 -272.773,-119.427 -696.803,-280.279 -753.752,-338.8908 73.997,67.8663 -1035.591,-2707.60081 -3627.29,-1056.3345 -2644.658,1685.6402 -2864.834,5540.3579 -921.695,7074.8414"
         style="fill:#05173e;fill-opacity:1;fill-rule:nonzero;stroke:none;stroke-width:3.99814"
         id="path1084" /><path
         d="m 18414.202,-24134.711 h 1030.875 c 304.693,0 552.075,-300.111 552.075,-670.731 0,-370.621 -247.382,-671.172 -552.075,-671.172 h -1030.875 c -305.056,0 -552.436,300.551 -552.436,671.172 0,370.62 247.38,670.731 552.436,670.731"
         style="fill:#012968;fill-opacity:1;fill-rule:nonzero;stroke:none;stroke-width:3.99814"
         id="path1086" /><path
         d="m 18518.305,-25059.28 973.564,4.848 c -128.406,5161.364 -241.577,12999.48 -27.204,13438.849 -0.363,-1.322 -14.146,-28.204 -64.566,-59.052 l -790.024,250.311 c -127.681,-78.002 -204.941,-125.155 -231.421,-2319.793 -13.783,-1129.489 -8.706,-2689.532 15.598,-4636.061 40.625,-3313.55 123.327,-6645.61 124.053,-6679.102"
         style="fill:#012968;fill-opacity:1;fill-rule:nonzero;stroke:none;stroke-width:3.99814"
         id="path1088" /><path
         d="m 15020.508,-24806.323 h 7816.449 c 360.19,0 651.824,-381.638 651.824,-852.736 0,-82.409 -51.144,-148.954 -113.897,-148.954 h -8892.303 c -63.114,0 -113.897,66.545 -113.897,148.954 0,471.098 291.635,852.736 651.824,852.736"
         style="fill:#012968;fill-opacity:1;fill-rule:nonzero;stroke:none;stroke-width:3.99814"
         id="path1090" /><path
         d="M 28872.406,-174.82338 23707.144,1575.1576 c 0,0 -1088.187,1775.9817 -2488.321,4158.3533 -457.764,-550.4222 -712.037,-1396.1068 -1173.067,-1941.2406 l 3419.085,-4594.63654 c 123.328,-166.14027 298.526,-260.88866 482.43,-261.32936 l 4746.672,-19.3904 1624.3,-157.3264 V 22.605928 L 28872.406,-174.82338"
         style="fill:#f48c7f;fill-opacity:1;fill-rule:nonzero;stroke:none;stroke-width:3.99814"
         id="path1092" /><path
         d="m 21436.46,1157.3832 c 0,0 -1773.019,2208.2989 -2228.97,3167.6816 -456.313,959.3827 310.496,334.9247 1093.991,587.4402 296.35,95.6297 221.264,2207.4174 782.044,1520.822 920.243,-1125.9636 2076.624,-3095.4084 2076.624,-3095.4084 L 21436.46,1157.3832"
         style="fill:#fff8f3;fill-opacity:1;fill-rule:nonzero;stroke:none;stroke-width:3.99814"
         id="path1094" /><path
         d="m 18915.856,7402.4049 c 0,0 -1590.93,381.197 -2316.751,-355.6371 -726.183,-736.8341 155.248,-7288.57609 154.523,-8374.8775 -0.725,-1085.8608 -498.39,-4154.8278 -498.39,-4154.8278 0,0 4822.12,-1025.4862 5587.841,605.0678 0,0 218.001,6211.9698 185.718,6993.3135 -32.646,780.9032 -747.585,3975.9075 -945.272,4317.8832 -197.325,342.4163 -2167.669,969.0779 -2167.669,969.0779"
         style="fill:#ff7768;fill-opacity:1;fill-rule:nonzero;stroke:none;stroke-width:3.99814"
         id="path1096" /><path
         d="m 18906.063,10392.047 c 0,0 -8.706,-57.73 -23.578,-156.004 -72.183,-471.9791 -350.034,-2036.8702 -537.564,-2466.9838 -227.068,-520.0146 776.603,-2178.332 1742.187,-1976.0551 287.644,60.3745 -243.028,1523.9068 -217.275,1678.5891 48.606,297.0253 114.985,701.5789 182.453,1116.7091 38.45,234.4473 76.898,471.5386 113.534,694.9686 103.015,634.1532 187.531,1152.4051 187.531,1152.4051 l -1447.288,-43.629"
         style="fill:#f7a491;fill-opacity:1;fill-rule:nonzero;stroke:none;stroke-width:3.99814"
         id="path1098" /><path
         d="m 18882.485,10236.043 c 14.872,98.274 23.578,156.004 23.578,156.004 l 1447.288,43.629 c 0,0 -84.516,-518.2519 -187.531,-1152.4051 -36.272,-222.1079 -74.722,-457.8772 -112.809,-691.0024 -223.441,40.1028 -457.038,171.8692 -690.999,419.9778 -255.36,271.0246 -422.578,596.6946 -523.417,943.9586 17.773,111.0541 32.646,206.6841 43.89,279.8381"
         style="fill:#f47458;fill-opacity:1;fill-rule:nonzero;stroke:none;stroke-width:3.99814"
         id="path1100" /><path
         d="m 24697.757,-20434.236 c 0,0 -1463.974,-2132.059 -1473.405,-2317.589 -9.794,-185.531 58.037,-2210.503 232.146,-2396.034 174.11,-185.531 481.704,-351.23 317.388,-559.676 -124.053,-157.767 -876.354,-89.901 -1510.041,-47.594 -184.991,12.338 -416.776,1805.067 -490.046,2068.599 -106.28,382.52 -364.906,1244.51 -268.421,1511.128 47.156,130.003 272.773,397.061 590.161,646.492 334.435,262.211 1612.331,2422.474 1612.331,2422.474 l 989.887,-1327.8"
         style="fill:#f48c7f;fill-opacity:1;fill-rule:nonzero;stroke:none;stroke-width:3.99814"
         id="path1102" /><path
         d="m 22116.214,-21516.57 c 0,0 982.996,-3362.027 1367.851,-3524.201 101.927,-43.187 163.229,-152.479 255.724,-415.57 27.931,-79.766 0,-344.62 0,-344.62 h -1619.585 c 0,0 -259.351,1481.6 -361.64,2132.06 0,0 -542.281,1590.45 -482.068,1734.996 60.213,144.547 839.718,417.335 839.718,417.335"
         style="fill:#ff5b51;fill-opacity:1;fill-rule:nonzero;stroke:none;stroke-width:3.99814"
         id="path1104" /><path
         d="m 33464.63,-21457.959 c 0,0 1195.264,-2044.362 1090.109,-2691.295 -56.332,-346.383 -307.013,-799.412 -163.155,-1125.524 143.858,-326.11 308.283,-407.638 308.283,-407.638 l 3728.492,-72.713 c 203.092,-3.967 68.883,154.681 -94.89,300.551 -268.021,238.853 -484.352,397.061 -1340.574,899.007 -55.823,33.052 -259.134,189.497 -332.441,244.143 -185.899,137.495 -372.595,354.314 -533.32,571.135 -267.73,361.365 -1444.932,3306.057 -1444.932,3306.057 l -1217.572,-1023.723"
         style="fill:#f7a491;fill-opacity:1;fill-rule:nonzero;stroke:none;stroke-width:3.99814"
         id="path1106" /><path
         d="m 36659.946,-24311.428 c -986.078,-306.721 -1714.946,-97.833 -2122.69,101.359 -105.192,-361.367 -244.552,-814.837 -170.627,-1076.166 90.536,-319.941 219.414,-392.215 333.238,-396.181 900.692,-28.204 3299.202,-67.426 3985.958,-78.443 95.904,-1.321 148.827,134.411 87.163,223.872 -170.338,246.345 -2039.552,1171.354 -2113.042,1225.559"
         style="fill:#ff5b51;fill-opacity:1;fill-rule:nonzero;stroke:none;stroke-width:3.99814"
         id="path1108" /><path
         d="m 29141.188,-8845.8447 c 0,0 -1479.935,-2052.2943 -1857.536,-2377.0833 -377.238,-325.23 -4000.176,-8429.963 -4000.176,-8429.963 l 1290.591,-1144.914 c 0,0 3237.718,4904.883 4758.279,7528.312 1285.875,2217.993 812.15,2077.414 1568.077,3427.6887 416.414,743.444 322.104,1748.6589 -226.705,2351.5228 -68.556,75.358 -142.553,153.3601 -223.078,234.8878 -1119.382,1133.4553 -8790.376,2408.8129 -8790.376,2408.8129 l -4906.636,-583.9145 c 0,0 4008.882,-3415.3494 4158.689,-3506.1313 149.444,-90.783 5535.97,-1045.3173 5648.054,-1045.3173 112.083,0 2580.817,1136.0992 2580.817,1136.0992"
         style="fill:#016589;fill-opacity:1;fill-rule:nonzero;stroke:none;stroke-width:3.99814"
         id="path1110" /><path
         d="m 16255.238,-5482.9375 c 0,0 -841.531,-3067.2038 420.766,-4499.0064 1262.66,-1431.3621 8762.083,-1272.2731 11230.816,-1272.2731 0,0 1010.202,-3362.907 1122.284,-3908.481 112.084,-545.135 5012.265,-7589.127 5012.265,-7589.127 l 1346.559,1045.317 c 0,0 -5273.901,12451.7025 -5685.599,12997.2773 -411.334,545.1335 -6283.917,2726.5505 -7742.814,3226.2932 -1458.896,499.7428 -5704.277,0 -5704.277,0"
         style="fill:#65b3c6;fill-opacity:1;fill-rule:nonzero;stroke:none;stroke-width:3.99814"
         id="path1112" /><path
         d="M 26013.738,35.826628 21535.123,1239.3517 c 0,0 -1619.586,2528.6806 -3174.968,4704.3684 -457.764,-550.4221 -712.4,-1396.1067 -1173.428,-1941.2406 l 3419.446,-4594.63655 c 123.329,-165.69956 410.972,-466.25025 594.513,-467.13165 h 4651.637 l 1607.253,29.5262 V 233.25582 L 26013.738,35.826628"
         style="fill:#f7a491;fill-opacity:1;fill-rule:nonzero;stroke:none;stroke-width:3.99814"
         id="path1114" /><path
         d="m 18577.43,1367.5925 c 0,0 -1772.657,2208.7395 -2228.608,3168.1223 -456.313,959.3826 -117.886,2566.58 665.246,2819.0955 783.131,252.5155 3287.413,-3806.2417 3287.413,-3806.2417 L 18577.43,1367.5925"
         style="fill:#fff8f3;fill-opacity:1;fill-rule:nonzero;stroke:none;stroke-width:3.99814"
         id="path1116" /><path
         d="m 23421.313,-11568.87 -451.96,2285.8605 c -315.937,1598.3836 -1481.022,2761.3651 -2833.277,2827.9093 l -5723.864,280.7197 -176.649,708.1892 5923.728,-290.8555 c 1607.978,-79.3243 2993.603,-1462.2103 3369.39,-3362.9074 l 480.254,-2428.6438 c -162.866,-8.373 -360.916,-14.984 -587.622,-20.272"
         style="fill:#012968;fill-opacity:1;fill-rule:nonzero;stroke:none;stroke-width:3.99814"
         id="path1118" /><path
         d="m 15743.791,-10351.242 c 0,0 7863.965,-163.937 8683.732,0 819.769,163.495 1174.881,-1085.42 930.038,-1739.405 -244.842,-654.425 -917.704,-906.94 -1909.043,-966.434 -990.975,-59.493 -9238.708,-341.976 -9470.855,-74.476 -190.071,218.582 -2690.362,10603.4476 -3600.086,14401.3163 -181.728,759.3093 176.648,1552.111 801.269,1775.1003 621.355,221.2265 1273.542,-207.1244 1461.434,-959.8234 l 3103.511,-12436.2782"
         style="fill:#ff7768;fill-opacity:1;fill-rule:nonzero;stroke:none;stroke-width:3.99814"
         id="path1120" /><path
         d="m 20190.486,14128.66 c 0,0 -708.048,99.596 -1151.665,-598.898 -443.98,-698.935 -922.057,-2860.08 180.277,-4034.9598 1101.97,-1174.8802 2191.245,155.123 2352.661,1564.8908 161.414,1410.209 224.166,3120.087 -1381.273,3068.967"
         style="fill:#f7a491;fill-opacity:1;fill-rule:nonzero;stroke:none;stroke-width:3.99814"
         id="path1122" /><path
         d="m 20269.561,14359.582 c 0,0 -945.635,-2054.939 -1622.125,-2149.687 -676.852,-95.189 -765.358,-1187.22 -765.358,-1187.22 0,0 241.578,2516.342 911.539,3001.542 669.598,485.2 1475.944,335.365 1475.944,335.365"
         style="fill:#05173e;fill-opacity:1;fill-rule:nonzero;stroke:none;stroke-width:3.99814"
         id="path1124" /><path
         d="m 18824.811,11693.406 c 54.772,-364.892 -55.86,-699.816 -247.381,-747.411 -191.521,-48.035 -391.385,208.887 -446.156,573.779 -55.136,365.332 55.497,699.816 247.018,747.851 191.52,47.595 391.384,-209.328 446.519,-574.219"
         style="fill:#f7a491;fill-opacity:1;fill-rule:nonzero;stroke:none;stroke-width:3.99814"
         id="path1126" /><path
         d="m 36714.211,5877.6166 h -7216.098 c -191.158,0 -363.092,-140.1396 -435.637,-354.7557 L 26840.76,-1061.0514 h -3978.412 c -111.358,0 -201.678,-109.2912 -201.678,-244.5832 0,-134.8512 90.32,-244.583 201.678,-244.583 h 11322.735 c 311.33,0 593.605,222.1079 721.069,567.16828 L 37143.5,5072.0348 c 139.76,378.1123 -88.034,805.5818 -429.289,805.5818"
         style="fill:#012968;fill-opacity:1;fill-rule:nonzero;stroke:none;stroke-width:3.99814"
         id="path1128" /><path
         d="m 32828.983,2043.6113 c -48.714,-295.7032 -261.092,-493.1323 -474.231,-441.5716 -213.176,52.0015 -346.479,333.6026 -297.693,629.3057 48.679,295.7031 261.021,493.5731 474.196,441.5716 213.176,-51.5607 346.516,-333.1618 297.728,-629.3057"
         style="fill:#ffffff;fill-opacity:1;fill-rule:nonzero;stroke:none;stroke-width:3.99814"
         id="path1130" /><path
         d="M 44520.901,-11817.86 H 23513.084 v 778.259 h 21007.817 v -778.259"
         style="fill:#05173e;fill-opacity:1;fill-rule:nonzero;stroke:none;stroke-width:3.99814"
         id="path1132" /><path
         d="m 23225.44,-25819.471 v 22985.9633 h 602.856 V -25819.471 h -602.856"
         style="fill:#05173e;fill-opacity:1;fill-rule:nonzero;stroke:none;stroke-width:3.99814"
         id="path1134" /><g
         id="g1136"
         transform="matrix(-3.9273076,0,0,5.074372,64107.27,-49891.733)"><path
           d="M 16300,4747.45 H 1064.2 v -68.44 H 16300 v 68.44"
           style="fill:#f5daa2;fill-opacity:1;fill-rule:nonzero;stroke:none"
           id="path1138" /></g><path
         d="m 37596.186,12046.399 c 0,-486.963 324.933,-881.381 725.749,-881.381 400.851,0 725.748,394.418 725.748,881.381 0,487.403 -324.897,881.821 -725.748,881.821 -400.816,0 -725.749,-394.418 -725.749,-881.821"
         style="fill:#fff8f3;fill-opacity:1;fill-rule:nonzero;stroke:none;stroke-width:3.99814"
         id="path1140" /><path
         d="m 58755.151,-4714.8144 h 195.765 c -32.03,29.5263 -72.111,47.1539 -115.675,47.1539 h -4904.206 c -256.594,0 -464.62,-248.1086 -464.62,-553.5069 v -351.6709 c 0,-305.3983 208.026,-553.0663 464.62,-553.0663 l 4849.325,1.7628 -25.209,1409.3274"
         style="fill:#ff7768;fill-opacity:1;fill-rule:nonzero;stroke:none;stroke-width:3.99814"
         id="path1142" /><path
         d="m 55970.95,-4668.9825 c -245.385,0 -444.306,-237.0914 -444.306,-529.269 v -397.5027 c 0,-292.1776 198.921,-528.8283 444.306,-528.8283 h 3052.982 v 88.5788 h -12.623 l -776.131,87.6974 -156.916,732.8678 c 0,0 302.806,404.9944 322.538,415.5709 19.769,10.5766 610.509,42.3063 610.509,42.3063 h 12.623 v 88.5788 H 55970.95"
         style="fill:#ff5b51;fill-opacity:1;fill-rule:nonzero;stroke:none;stroke-width:3.99814"
         id="path1144" /><path
         d="m 58825.918,-5394.3587 c 0,428.7916 185.936,636.3567 185.936,636.3567 H 56033.45 c -225.364,0 -408.107,-217.7009 -408.107,-486.0814 v -305.839 c 0,-268.3803 182.743,-486.0813 408.107,-486.0813 h 2978.404 c 0,0 -185.936,102.2401 -185.936,641.645"
         style="fill:#fff8f3;fill-opacity:1;fill-rule:nonzero;stroke:none;stroke-width:3.99814"
         id="path1146" /><g
         id="g1148"
         transform="matrix(-3.6272905,0,0,4.4069026,67607.154,-49891.733)"><g
           id="g1150"
           clip-path="url(#clipPath1154)"><path
             d="m 3303.2,10059.3 h 0.031 v 1.801 h -0.031 z"
             style="fill:#f75549;fill-opacity:1;fill-rule:nonzero;stroke:none"
             id="path1156" /></g></g><path
         d="m 55637.277,-5666.2646 c 100.439,292.6183 292.976,574.6601 659.44,665.0016 855.715,211.972 2715.137,243.261 2715.137,243.261 H 56033.45 c -225.364,0 -408.107,-217.7009 -408.107,-486.0814 v -305.839 0 c 0,-0.8813 0.03,-2.2034 0.03,-3.5255 0,0 0,-0.4406 0,-0.8813 0,-0.8814 0,-1.7629 0.03,-2.6443 0,-0.4406 0,-0.4406 0,-0.8813 0,-0.8814 0.03,-2.2035 0.03,-3.0848 0,0 0.03,0 0.03,-0.4407 0.689,-36.1367 4.788,-70.9511 11.789,-104.8843"
         style="fill:#f7e6dc;fill-opacity:1;fill-rule:nonzero;stroke:none;stroke-width:3.99814"
         id="path1158" /><path
         d="m 59078.704,-3548.3072 h 195.838 c -32.029,23.3566 -72.147,37.4586 -115.711,37.4586 h -4906.164 c -256.667,0 -464.764,-196.5478 -464.764,-438.9275 v -278.9569 c 0,-242.3796 208.097,-438.9275 464.764,-438.9275 l 4851.248,1.3221 -25.211,1118.0312"
         style="fill:#012968;fill-opacity:1;fill-rule:nonzero;stroke:none;stroke-width:3.99814"
         id="path1160" /><path
         d="m 56293.381,-3511.7299 c -245.459,0 -444.489,-188.1748 -444.489,-419.9778 v -315.0936 c 0,-232.2438 199.03,-419.9778 444.489,-419.9778 h 3054.178 v 70.5104 h -12.586 l -776.458,69.6291 -156.917,581.2705 c 0,0 302.843,321.7038 322.648,330.0769 19.732,7.9324 610.727,33.0518 610.727,33.0518 l 12.586,0.4407 v 70.0698 h -3054.178"
         style="fill:#05173e;fill-opacity:1;fill-rule:nonzero;stroke:none;stroke-width:3.99814"
         id="path1162" /><path
         d="m 59149.509,-4087.2714 c 0,340.2129 186.007,505.031 186.007,505.031 h -2979.564 c -225.473,0 -408.288,-172.7506 -408.288,-385.604 v -242.8203 c 0,-212.8533 182.815,-385.604 408.288,-385.604 h 2979.564 c 0,0 -186.007,80.6463 -186.007,508.9973"
         style="fill:#fff8f3;fill-opacity:1;fill-rule:nonzero;stroke:none;stroke-width:3.99814"
         id="path1164" /><path
         d="m 55947.809,-4219.4785 h -0.03 0.03 m -0.08,2.6441 v 0.4407 -0.4407 m -0.03,2.6441 c 0,0.4407 0,0.4407 0,0.8814 0,-0.4407 0,-0.4407 0,-0.8814"
         style="fill:#051538;fill-opacity:1;fill-rule:nonzero;stroke:none;stroke-width:3.99814"
         id="path1166" /><path
         d="m 55959.598,-4303.2096 c 100.475,232.2437 293.085,456.1143 659.731,527.9469 856.004,167.9029 2716.187,193.0223 2716.187,193.0223 h -2979.564 c -225.473,0 -408.288,-172.7506 -408.288,-385.604 v -242.8203 0 c 0,-0.8813 0.03,-1.7627 0.03,-2.6442 0,-0.4407 0,-0.4407 0,-0.8814 0,-0.8813 0,-1.322 0.03,-2.2034 v -0.4407 c 0,-0.8813 0.03,-1.7627 0.03,-2.6441 h 0.03 c 0.689,-29.0855 4.788,-56.849 11.788,-83.7311"
         style="fill:#f7e6dc;fill-opacity:1;fill-rule:nonzero;stroke:none;stroke-width:3.99814"
         id="path1168" /><path
         d="m 52998.676,-6124.1418 h -4287.384 c -180.457,0 -326.746,177.5982 -326.746,397.0619 v 2385.8971 c 0,219.023 146.289,397.0619 326.746,397.0619 h 4287.384 c 180.421,0 326.71,-178.0389 326.71,-397.0619 v -2385.8971 c 0,-219.4637 -146.289,-397.0619 -326.71,-397.0619"
         style="fill:#012968;fill-opacity:1;fill-rule:nonzero;stroke:none;stroke-width:3.99814"
         id="path1170" /><path
         d="m 52502.717,-6124.1418 h -4287.311 c -180.458,0 -326.783,177.5982 -326.783,397.0619 v 2385.8971 c 0,219.023 146.325,397.0619 326.783,397.0619 h 4287.311 c 180.493,0 326.783,-178.0389 326.783,-397.0619 v -2385.8971 c 0,-219.4637 -146.29,-397.0619 -326.783,-397.0619"
         style="fill:#65b3c6;fill-opacity:1;fill-rule:nonzero;stroke:none;stroke-width:3.99814"
         id="path1172" /><path
         d="m 48427.638,-5009.6361 h 3773.07 c 84.915,0 153.761,83.7311 153.761,186.8526 v 1122.4381 c 0,103.1215 -68.846,186.8527 -153.761,186.8527 h -3773.07 c -84.878,0 -153.724,-83.7312 -153.724,-186.8527 v -1122.4381 c 0,-103.1215 68.846,-186.8526 153.724,-186.8526"
         style="fill:#327d98;fill-opacity:1;fill-rule:nonzero;stroke:none;stroke-width:3.99814"
         id="path1174" /><path
         d="m 49416.438,-4720.5433 c 29.563,0 54.808,12.3393 75.738,37.8994 20.929,25.56 31.412,56.4083 31.412,92.1042 v 624.4581 c 0,8.8138 -0.725,17.6276 -2.103,26.0007 -1.416,8.3732 -3.446,16.3055 -6.058,23.7973 -2.249,6.6104 -6.094,11.458 -11.535,14.5428 l -8.161,1.7627 -8.162,-1.7627 c -5.441,-3.0848 -9.358,-7.9324 -11.716,-14.5428 l -1.669,-9.6952 1.669,-10.1358 c 1.669,-4.407 2.866,-9.2545 3.555,-14.1022 0.871,-5.2882 1.269,-10.5765 1.269,-15.8648 v -624.4581 c 0,-21.5938 -6.275,-40.1028 -18.825,-55.0862 -12.55,-15.4243 -27.713,-22.916 -45.414,-22.916 h -171.389 c -17.701,0 -32.827,7.4917 -45.414,22.916 -12.514,14.9834 -18.825,33.4924 -18.825,55.0862 v 624.4581 h 2.103 c 0,21.5938 6.203,40.1028 18.644,55.5269 12.115,14.5429 26.625,22.0346 43.492,22.9159 v 0 h 85.604 c 5.985,0 10.991,2.6442 15.054,7.4918 4.315,5.2883 6.492,11.0173 6.492,18.509 0,7.0511 -2.177,13.2207 -6.492,18.0683 -4.063,5.2883 -9.069,7.9324 -15.054,7.9324 h -83.5 c -29.708,0 -55.027,-12.78 -75.956,-38.3401 -20.784,-25.56 -31.158,-55.9676 -31.158,-92.1042 h -2.104 v -624.4581 c 0,-35.6959 10.447,-66.5442 31.376,-92.1042 20.93,-25.5601 46.175,-37.8994 75.738,-37.8994 z m -171.389,-52.4422 c -41.424,0 -76.791,18.0683 -106.063,53.7643 -29.308,35.2552 -43.962,78.4428 -43.962,128.6815 v 624.4581 h 2.104 c 0,50.6794 14.582,93.4263 43.709,129.1222 28.91,34.8146 63.623,52.8829 104.212,53.3236 h 85.604 c 17.701,0 32.863,-7.4917 45.413,-22.916 12.659,-15.4241 19.044,-33.4924 19.044,-55.0862 0,-21.5938 -6.385,-40.1028 -19.044,-55.0863 -12.55,-15.4241 -27.712,-22.9159 -45.413,-22.9159 h -83.5 c -5.877,0 -10.882,-2.6441 -15.054,-7.9324 -4.208,-4.8476 -6.275,-11.0172 -6.275,-18.509 h -2.285 v -624.4581 c 0,-7.4917 2.104,-13.2207 6.457,-18.0683 4.025,-5.2883 9.068,-7.9324 15.053,-7.9324 h 171.389 c 5.877,0 10.883,2.6441 15.053,7.9324 4.172,4.8476 6.275,10.5766 6.275,18.0683 v 624.4581 l -1.668,10.5766 c -3.337,9.6952 -5.005,19.3904 -5.005,29.5262 0,10.1359 1.668,19.8311 5.005,29.967 6.82,19.831 18.427,33.9331 34.75,42.3062 8.233,3.9662 16.468,6.1697 24.665,6.1697 8.234,0 16.468,-2.2035 24.702,-6.1697 16.323,-8.3731 27.966,-22.4752 34.931,-42.3062 3.664,-11.0173 6.42,-22.4752 8.379,-33.9332 1.958,-11.8986 2.938,-23.7973 2.938,-36.1366 v -624.4581 c 0,-50.2387 -14.655,-93.4263 -43.963,-128.6815 -29.417,-35.696 -64.783,-53.7643 -106.062,-53.7643 h -171.389"
         style="fill:#ff7768;fill-opacity:1;fill-rule:nonzero;stroke:none;stroke-width:3.99814"
         id="path1176" /><path
         d="m 50166.381,-4234.9026 c -12.406,18.5089 -26.733,34.3737 -42.911,47.1538 v 326.1108 c 0,7.0511 -2.067,13.2207 -6.275,18.0683 -4.172,5.2883 -9.214,7.9324 -15.054,7.9324 -6.022,0 -11.099,-2.6441 -15.271,-7.9324 -4.208,-4.8476 -6.275,-11.0172 -6.275,-18.0683 v -312.4494 h -42.911 v 312.4494 c 0,21.5938 6.275,39.6621 18.825,55.0862 12.696,15.4243 27.931,22.916 45.632,22.916 17.593,0 32.682,-7.4917 45.414,-22.916 12.514,-15.4241 18.826,-33.4924 18.826,-55.0862 z m -64.24,-485.6407 c 5.84,0 10.882,2.2034 15.054,7.4918 4.208,4.8475 6.275,11.0171 6.275,18.0682 v 312.4494 c 0,36.1366 -10.447,66.985 -31.376,92.1043 -20.93,25.5601 -46.176,38.3401 -75.738,38.3401 h -171.39 c -17.701,0 -32.863,7.4916 -45.413,22.9158 -12.514,14.9834 -18.825,33.4925 -18.825,55.0863 v 312.4494 c 0,7.0511 -2.141,13.2207 -6.457,18.0683 -4.063,5.2883 -9.105,7.9324 -15.09,7.9324 -5.84,0 -10.882,-2.6441 -15.053,-7.9324 -4.208,-4.8476 -6.311,-11.0172 -6.311,-18.0683 v -312.4494 c 0,-36.1366 10.482,-66.5443 31.411,-92.1043 20.93,-25.5599 46.176,-37.8993 75.738,-37.8993 h 171.39 c 17.701,0 32.863,-7.9324 45.414,-22.9159 12.55,-15.4241 18.825,-33.9332 18.825,-55.527 v -312.4494 c 0,-7.0511 2.067,-13.2207 6.275,-18.0682 4.172,-5.2884 9.249,-7.4918 15.271,-7.4918 z m 0,-52.4422 c -17.701,0 -32.936,7.9325 -45.632,22.916 -12.55,15.4241 -18.825,33.9331 -18.825,55.0862 v 312.4494 c 0,7.4917 -2.103,13.2208 -6.275,18.509 -4.172,5.2882 -9.177,7.4918 -15.053,7.4918 h -171.39 c -41.423,0 -76.79,18.0682 -106.098,53.3235 -29.272,36.1365 -43.926,78.8835 -43.926,129.1222 v 312.4494 c 0,21.5938 6.275,39.6621 18.825,55.0862 12.55,15.4243 27.713,22.916 45.414,22.916 17.701,0 32.827,-7.4917 45.413,-22.916 12.551,-15.4241 18.827,-33.4924 18.827,-55.0862 v -312.4494 c 0,-7.051 2.139,-13.2208 6.455,-18.509 4.063,-4.8476 9.105,-7.4918 15.09,-7.4918 h 171.39 c 41.278,0 76.644,-17.6275 106.061,-53.3235 29.309,-35.6958 43.964,-78.8835 43.964,-129.1222 v -312.4494 c 0,-21.1531 -6.312,-39.6621 -18.826,-55.0862 -12.732,-14.9835 -27.821,-22.916 -45.414,-22.916"
         style="fill:#ff7768;fill-opacity:1;fill-rule:nonzero;stroke:none;stroke-width:3.99814"
         id="path1178" /><path
         d="m 50359.097,-4512.5375 c -5.984,0 -11.063,2.6441 -15.089,7.4917 -4.316,5.2883 -6.492,11.4579 -6.492,18.509 0,6.6103 2.502,12.7801 7.544,18.509 4.498,4.8475 9.141,7.4918 14.037,7.4918 5.841,0 10.883,-2.6443 15.054,-7.4918 4.171,-5.2883 6.275,-11.0173 6.275,-18.509 0,-7.0511 -2.104,-13.2207 -6.275,-18.509 -4.171,-4.8476 -9.213,-7.4917 -15.054,-7.4917 z m 0,416.4522 c -5.984,0 -11.063,2.6443 -15.089,7.9325 -4.316,4.8476 -6.492,11.0173 -6.492,18.0683 0,7.0511 2.502,13.2207 7.544,18.509 4.498,5.2883 9.141,7.4917 14.037,7.4917 5.841,0 10.883,-2.2034 15.054,-7.4917 4.171,-5.2883 6.275,-11.0173 6.275,-18.509 0,-7.051 -2.104,-13.2207 -6.275,-18.0683 -4.171,-5.2882 -9.213,-7.9325 -15.054,-7.9325 z m 0,-468.4536 c 17.666,0 32.828,7.4916 45.378,22.9159 12.55,14.9834 18.825,33.4924 18.825,55.0862 0,21.5938 -6.275,40.1028 -18.825,55.0863 -12.55,15.4241 -27.712,23.3566 -45.378,23.3566 -17.736,0 -32.862,-7.9325 -45.413,-23.3566 -12.55,-14.9835 -18.862,-33.4925 -18.862,-55.0863 0,-21.5938 6.312,-40.1028 18.862,-55.0862 12.551,-15.4243 27.677,-22.9159 45.413,-22.9159 z m 0,416.4522 c 17.666,0 32.828,7.9324 45.378,22.9159 12.55,15.4241 18.825,33.9332 18.825,55.0863 0,21.5938 -6.275,40.1028 -18.825,55.527 -12.55,14.9835 -27.712,22.9158 -45.378,22.9158 -17.736,0 -32.862,-7.9323 -45.413,-22.9158 -12.55,-15.4242 -18.862,-33.9332 -18.862,-55.527 0,-21.1531 6.312,-39.6622 18.862,-55.0863 12.551,-14.9835 27.677,-22.9159 45.413,-22.9159"
         style="fill:#ff7768;fill-opacity:1;fill-rule:nonzero;stroke:none;stroke-width:3.99814"
         id="path1180" /><path
         d="m 50906.057,-4728.4758 8.162,1.7628 c 5.441,3.0849 9.286,7.4918 11.498,14.1022 l 1.669,10.1358 -1.669,9.6952 c -2.212,6.6104 -6.057,11.4579 -11.498,14.102 -6.42,3.5255 -13.022,5.7291 -19.878,7.4918 -6.819,1.7628 -13.892,2.6441 -21.11,2.6441 h -171.39 c -17.738,0 -32.864,7.4917 -45.414,22.916 -12.55,14.9834 -18.825,33.4924 -18.825,55.0862 v 208.0058 c 0,21.5938 6.275,40.1029 18.825,55.527 12.55,14.9835 27.676,22.9159 45.414,22.9159 h 171.39 c 29.562,0 54.808,12.3394 75.737,37.8993 20.894,25.56 31.377,55.9677 31.377,92.1043 v 208.0058 h -2.105 c 0,36.1366 -10.446,66.5442 -31.411,92.1042 -20.894,25.5601 -46.14,38.3401 -75.703,38.3401 h -255.107 c -5.839,0 -10.882,-2.6441 -15.053,-7.9324 -4.171,-4.8476 -6.275,-11.0172 -6.275,-18.0683 0,-7.4917 2.104,-13.2207 6.275,-18.509 4.171,-4.8476 9.214,-7.4918 15.053,-7.4918 h 257.212 v 0 c 16.83,-0.8813 31.303,-8.373 43.273,-22.9159 12.441,-15.4241 18.645,-33.9331 18.645,-55.5269 h 2.285 v -208.0058 c 0,-21.5938 -6.275,-40.1029 -18.826,-55.0863 -12.551,-15.4242 -27.713,-22.9158 -45.377,-22.9158 h -171.39 c -29.599,0 -54.845,-12.78 -75.737,-38.3401 -20.967,-25.1193 -31.413,-55.9677 -31.413,-92.1043 v -208.0058 c 0,-35.6959 10.446,-66.5442 31.413,-92.1042 20.892,-25.5601 46.138,-37.8994 75.737,-37.8994 h 171.39 c 4.17,0 8.415,-0.4407 12.732,-1.7628 4.062,-0.8813 8.016,-2.2034 11.934,-4.4069 z m 0,-52.4421 c -8.233,0 -16.467,2.2034 -24.702,6.1697 l -8.124,1.7627 h -171.39 c -41.46,0 -76.826,18.0683 -106.098,53.7643 -29.309,35.2552 -43.927,78.4428 -43.927,128.6815 v 208.0058 c 0,50.2387 14.618,93.4264 43.927,129.1222 29.272,35.696 64.638,53.3235 106.098,53.3235 h 171.39 c 5.839,0 10.845,2.6442 15.053,7.4918 4.171,5.2882 6.275,11.458 6.275,18.509 v 208.0058 h -2.104 c 0,7.4918 -2.176,13.6614 -6.492,18.509 -4.063,5.2883 -9.069,7.9324 -15.053,7.9324 h -254.891 c -17.7,0 -32.826,7.4918 -45.413,22.9159 -12.515,14.9835 -18.79,33.4925 -18.79,55.0863 0,21.5938 6.275,39.6621 18.79,55.0862 12.587,15.4243 27.713,22.916 45.413,22.916 h 257.212 c 40.408,-0.4407 75.085,-18.509 103.958,-53.3236 29.309,-35.6959 43.926,-78.4428 43.926,-129.1222 h 2.14 v -208.0058 c 0,-50.2387 -14.69,-92.9857 -43.999,-129.1222 -29.417,-35.2553 -64.783,-53.3235 -106.025,-53.3235 h -171.39 c -6.021,0 -11.027,-2.2036 -15.089,-7.4918 -4.316,-5.2882 -6.457,-11.0173 -6.457,-18.509 v -208.0058 c 0,-7.4917 2.141,-13.2207 6.457,-18.0683 4.062,-5.2883 9.068,-7.9324 15.089,-7.9324 h 171.39 c 10.011,0 19.914,-1.3221 29.671,-3.5255 9.503,-2.6442 18.717,-6.1697 27.639,-10.5766 16.288,-7.9324 27.967,-22.0345 34.968,-41.8655 3.301,-10.1359 5.006,-20.2718 5.006,-29.967 0,-10.1358 -1.705,-20.2717 -5.006,-29.967 -6.856,-19.8311 -18.499,-33.9331 -34.968,-42.3062 -8.233,-3.9663 -16.395,-6.1697 -24.484,-6.1697"
         style="fill:#ff7768;fill-opacity:1;fill-rule:nonzero;stroke:none;stroke-width:3.99814"
         id="path1182" /><path
         d="m 51558.897,-4720.5433 c 5.877,0 10.883,2.2034 15.053,7.4918 4.208,4.8475 6.312,11.0171 6.312,18.0682 v 728.9017 h -2.104 c 0,36.1366 -10.447,66.5442 -31.412,92.1042 -20.893,25.5601 -46.139,38.3401 -75.738,38.3401 h -255.071 c -5.839,0 -10.845,-2.6441 -15.053,-7.9324 -4.172,-4.8476 -6.312,-11.0172 -6.312,-18.0683 0,-7.4917 2.14,-13.2207 6.312,-18.509 4.208,-4.8476 9.214,-7.4918 15.053,-7.4918 h 257.175 v 0 c 16.866,-0.8813 31.303,-8.373 43.31,-22.9159 12.441,-15.4241 18.644,-33.9331 18.644,-55.5269 h 2.286 v -728.9017 c 0,-7.0511 2.103,-13.2207 6.275,-18.0682 4.207,-5.2884 9.285,-7.4918 15.27,-7.4918 z m 0,-52.4422 c -17.701,0 -32.935,7.9325 -45.595,22.916 -12.586,15.4241 -18.825,33.9331 -18.825,55.0862 v 728.9017 h -2.141 c 0,7.4918 -2.14,13.6614 -6.456,18.509 -4.062,5.2883 -9.068,7.9324 -15.053,7.9324 h -254.89 c -17.701,0 -32.827,7.4918 -45.413,22.9159 -12.551,14.9835 -18.827,33.4925 -18.827,55.0863 0,21.5938 6.276,39.6621 18.827,55.0862 12.586,15.4243 27.712,22.916 45.413,22.916 h 257.175 c 40.445,-0.4407 75.121,-18.509 103.994,-53.3236 29.308,-35.6959 43.927,-78.4428 43.927,-129.1222 h 2.103 v -728.9017 c 0,-21.1531 -6.275,-39.6621 -18.825,-55.0862 -12.696,-14.9835 -27.822,-22.916 -45.414,-22.916"
         style="fill:#ff7768;fill-opacity:1;fill-rule:nonzero;stroke:none;stroke-width:3.99814"
         id="path1184" /><path
         d="m 51740.659,-5477.2085 h 145.963 c 13.421,0 24.302,13.2207 24.302,29.5263 v 177.5981 c 0,16.3055 -10.881,29.5262 -24.302,29.5262 h -145.963 c -13.421,0 -24.267,-13.2207 -24.267,-29.5262 v -177.5981 c 0,-16.3056 10.846,-29.5263 24.267,-29.5263"
         style="fill:#fff8f3;fill-opacity:1;fill-rule:nonzero;stroke:none;stroke-width:3.99814"
         id="path1186" /><path
         d="m 51217.133,-5477.2085 h 145.999 c 13.42,0 24.303,13.2207 24.303,29.5263 v 177.5981 c 0,16.3055 -10.883,29.5262 -24.303,29.5262 h -145.999 c -13.385,0 -24.266,-13.2207 -24.266,-29.5262 v -177.5981 c 0,-16.3056 10.881,-29.5263 24.266,-29.5263"
         style="fill:#fff8f3;fill-opacity:1;fill-rule:nonzero;stroke:none;stroke-width:3.99814"
         id="path1188" /><path
         d="m 50693.643,-5477.2085 h 145.962 c 13.421,0 24.303,13.2207 24.303,29.5263 v 177.5981 c 0,16.3055 -10.882,29.5262 -24.303,29.5262 h -145.962 c -13.385,0 -24.267,-13.2207 -24.267,-29.5262 v -177.5981 c 0,-16.3056 10.882,-29.5263 24.267,-29.5263"
         style="fill:#fff8f3;fill-opacity:1;fill-rule:nonzero;stroke:none;stroke-width:3.99814"
         id="path1190" /><path
         d="m 50170.152,-5477.2085 h 145.963 c 13.421,0 24.302,13.2207 24.302,29.5263 v 177.5981 c 0,16.3055 -10.881,29.5262 -24.302,29.5262 h -145.963 c -13.384,0 -24.267,-13.2207 -24.267,-29.5262 v -177.5981 c 0,-16.3056 10.883,-29.5263 24.267,-29.5263"
         style="fill:#fff8f3;fill-opacity:1;fill-rule:nonzero;stroke:none;stroke-width:3.99814"
         id="path1192" /><path
         d="m 49646.661,-5477.2085 h 145.963 c 13.42,0 24.303,13.2207 24.303,29.5263 v 177.5981 c 0,16.3055 -10.883,29.5262 -24.303,29.5262 h -145.963 c -13.421,0 -24.302,-13.2207 -24.302,-29.5262 v -177.5981 c 0,-16.3056 10.881,-29.5263 24.302,-29.5263"
         style="fill:#fff8f3;fill-opacity:1;fill-rule:nonzero;stroke:none;stroke-width:3.99814"
         id="path1194" /><path
         d="m 22657.406,-1534.7935 v 0 l 58.037,61.6967 v 0 l -58.037,-61.6967 m 444.706,473.7421 v 0 l 1.814,1.7627 v 0 l -1.814,-1.7627 m 2022.94,2155.8567 3814.822,4064.4861 v 0 L 25125.052,1094.8053 v 0 m 4489.135,4782.8113 v 0 l 7748.257,8255.8904 h -0.03 L 29614.19,5877.6166"
         style="fill:#ffd7a8;fill-opacity:1;fill-rule:nonzero;stroke:none;stroke-width:3.99814"
         id="path1218" /><path
         d="m 22652.328,-1540.0817 h 24.303 -24.303 l 5.078,5.2882 v 0 l -5.078,-5.2882"
         style="fill:#826b68;fill-opacity:1;fill-rule:nonzero;stroke:none;stroke-width:3.99814"
         id="path1220" /><path
         d="m 24510.589,439.9396 614.463,654.8657 v 0 l -614.463,-654.8657 v 0"
         style="fill:#faa688;fill-opacity:1;fill-rule:nonzero;stroke:none;stroke-width:3.99814"
         id="path1222" /><path
         d="m 23103.926,-1059.2887 v 0 l 1406.663,1499.2283 v 0 l -1406.663,-1499.2283"
         style="fill:#fbb291;fill-opacity:1;fill-rule:nonzero;stroke:none;stroke-width:3.99814"
         id="path1224" /><path
         d="m 22715.443,-1473.0968 386.669,412.0454 v 0 l -386.669,-412.0454 v 0 m 6224.431,6632.3882 674.313,718.3252 v 0 l -674.313,-718.3252 v 0"
         style="fill:#80747d;fill-opacity:1;fill-rule:nonzero;stroke:none;stroke-width:3.99814"
         id="path1226" /><g
         id="g1228"
         transform="matrix(-3.6272905,0,0,4.4069026,67607.154,-49891.733)"><g
           id="g1230"
           clip-path="url(#clipPath1234)"><path
             d="m 12392.1,10973 h -37.2 c 8.2,3 15.4,7.8 21.2,14 l 16,-14 m -3228.34,2.4 -647.58,0.7 -852.85,2689.6 232.49,297.2 c 33.29,-64.2 100.4,-108.1 177.76,-108.1 110.5,0 200.08,89.5 200.08,200 0,94.6 -65.56,173.8 -153.69,194.7 l 218.14,278.9 L 10474.2,12655 H 8516.81 c -94.08,0 -156.88,-97 -118.35,-182.8 l 616.81,-1374 c 28.11,-62.6 83.52,-107.4 148.49,-122.8 m 3105.74,105.1 h -218.4 c 1.5,0.1 3,0.3 4.5,0.4 h 213.4 l 0.5,-0.4 m -1162.1,320.6 -447.3,1090.9 1051.7,-922.3 -604.4,-168.6"
             style="fill:url(#linearGradient1240);fill-opacity:1;fill-rule:nonzero;stroke:none"
             id="path1242" /></g></g><g
         id="g1244"
         transform="matrix(-3.6272905,0,0,4.4069026,67607.154,-49891.733)"><g
           id="g1246"
           clip-path="url(#clipPath1250)"><path
             d="m 12393.5,10971.8 h -42 c 1.2,0.4 2.3,0.8 3.4,1.2 h 37.2 l 1.4,-1.2"
             style="fill:url(#linearGradient1256);fill-opacity:1;fill-rule:nonzero;stroke:none"
             id="path1258" /></g></g><g
         id="g1260"
         transform="matrix(-3.6272905,0,0,4.4069026,67607.154,-49891.733)"><g
           id="g1262"
           clip-path="url(#clipPath1266)"><path
             d="m 12051.1,11080.5 h -812.3 l -1.8,4.5 274.3,-4.1 h 544.3 c -1.5,-0.1 -3,-0.3 -4.5,-0.4 m -584.3,248.9 -346,38.8 -13.4,32.9 604.4,168.6 169.4,-148.6 -414.4,-91.7"
             style="fill:url(#linearGradient1272);fill-opacity:1;fill-rule:nonzero;stroke:none"
             id="path1274" /></g></g><g
         id="g1276"
         transform="matrix(-3.6272905,0,0,4.4069026,67607.154,-49891.733)"><g
           id="g1278"
           clip-path="url(#clipPath1282)"><path
             d="m 12269,11080.9 h -757.7 l -274.3,4.1 -116.2,283.2 346,-38.8 414.4,91.7 387.8,-340.2"
             style="fill:url(#linearGradient1288);fill-opacity:1;fill-rule:nonzero;stroke:none"
             id="path1290" /></g></g><g
         id="g1292"
         transform="matrix(-3.6272905,0,0,4.4069026,67607.154,-49891.733)"><g
           id="g1294"
           clip-path="url(#clipPath1298)"><path
             d="m 12351.5,10971.8 -3187.74,3.6 c -64.97,15.4 -120.38,60.2 -148.49,122.8 l -616.81,1374 c -38.53,85.8 24.27,182.8 118.35,182.8 h 1957.39 l 185.9,-163 447.3,-1090.9 13.4,-32.9 116.2,-283.2 1.8,-4.5 h 812.3 218.4 l 106.6,-93.5 c -5.8,-6.2 -13,-11 -21.2,-14 -1.1,-0.4 -2.2,-0.8 -3.4,-1.2 m -2662.65,957.9 c -6.25,0 -12.54,-0.6 -18.85,-1.9 -58.77,-11.7 -95.53,-75.6 -82.08,-142.8 11.99,-59.9 59.94,-102 111.89,-102.1 6.25,0 12.55,0.7 18.85,1.9 58.77,11.8 95.52,75.7 82.07,142.8 -11.98,59.9 -59.92,102.1 -111.88,102.1"
             style="fill:url(#linearGradient1304);fill-opacity:1;fill-rule:nonzero;stroke:none"
             id="path1306" /></g></g><g
         id="g1308"
         transform="matrix(-3.6272905,0,0,4.4069026,67607.154,-49891.733)"><g
           id="g1310"
           clip-path="url(#clipPath1314)"><path
             d="m 9699.81,11682.9 c -51.95,0.1 -99.9,42.2 -111.89,102.1 -13.45,67.2 23.31,131.1 82.08,142.8 6.31,1.3 12.6,1.9 18.85,1.9 51.96,0 99.9,-42.2 111.88,-102.1 13.45,-67.1 -23.3,-131 -82.07,-142.8 -6.3,-1.2 -12.6,-1.9 -18.85,-1.9"
             style="fill:url(#linearGradient1320);fill-opacity:1;fill-rule:nonzero;stroke:none"
             id="path1322" /></g></g><g
         id="g1324"
         transform="matrix(-3.6272905,0,0,4.4069026,67607.154,-49891.733)"><g
           id="g1326"
           clip-path="url(#clipPath1330)"><path
             d="m 8073.58,13854.8 c -77.36,0 -144.47,43.9 -177.76,108.1 l 224.15,286.6 c 88.13,-20.9 153.69,-100.1 153.69,-194.7 0,-110.5 -89.58,-200 -200.08,-200"
             style="fill:url(#linearGradient1336);fill-opacity:1;fill-rule:nonzero;stroke:none"
             id="path1338" /></g></g><path
         d="m 39958.242,-951.76028 h -257.139 c -15.307,0 -27.713,14.98352 -27.713,33.49245 V 233.25582 c 0,18.50894 12.406,33.49246 27.713,33.49246 h 257.139 c 15.306,0 27.749,-14.98352 27.749,-33.49246 V -918.26783 c 0,-18.50893 -12.443,-33.49245 -27.749,-33.49245"
         style="fill:#ff5b51;fill-opacity:1;fill-rule:nonzero;stroke:none;stroke-width:3.99814"
         id="path1340" /><path
         d="m 42769.899,13684.444 c -188.438,470.217 -438.286,765.92 -742.687,878.297 -469.481,174.072 -918.286,-137.496 -922.747,-140.581 l -147.449,308.043 c 22.779,15.864 565.132,391.773 1155.619,173.631 385.544,-142.783 695.423,-500.624 921.004,-1063.385 l -263.74,-156.005"
         style="fill:#05173e;fill-opacity:1;fill-rule:nonzero;stroke:none;stroke-width:3.99814"
         id="path1342" /><path
         d="m 40794.332,15164.282 -1673.559,-1350.275 c -44.943,-36.577 -57.166,-110.172 -27.314,-164.818 l 501.691,-917.517 c 29.852,-54.646 90.465,-69.629 135.406,-33.052 l 1673.56,1350.275 c 44.978,36.577 57.166,110.173 27.349,164.819 l -501.69,917.517 c -29.853,54.645 -90.501,69.629 -135.443,33.051"
         style="fill:#ff5b51;fill-opacity:1;fill-rule:nonzero;stroke:none;stroke-width:3.99814"
         id="path1344" /><path
         d="m 37578.92,14412.464 2231.111,-4080.791 c 927.57,748.292 1180.065,2268.673 563.97,3395.518 -616.094,1127.286 -1867.51,1434.007 -2795.081,685.273"
         style="fill:#65b3c6;fill-opacity:1;fill-rule:nonzero;stroke:none;stroke-width:3.99814"
         id="path1346" /><path
         d="m 43162.227,13566.78 1495.06,-6904.7347 -369.511,-118.105 -1495.097,6904.7347 z m 1868.925,-7169.5897 -1650.779,7623.9417 -961.56,-307.161 1650.817,-7624.3824 961.522,307.6017"
         style="fill:#ff5b51;fill-opacity:1;fill-rule:nonzero;stroke:none;stroke-width:3.99814"
         id="path1348" /><path
         d="m 44321.8,5954.7374 361.603,-149.8348 -1899.031,-6756.66288 -361.605,149.83474 z m 750.123,81.5277 -940.847,390.4516 -2096.863,-7460.4454 940.882,-390.4516 2096.828,7460.4454"
         style="fill:#ff5b51;fill-opacity:1;fill-rule:nonzero;stroke:none;stroke-width:3.99814"
         id="path1350" /><path
         d="m 39930.746,10050.953 -210.673,-170.1062 c -12.55,-10.1359 -29.454,-5.7289 -37.76,9.2546 l -2487.776,4550.5676 c -8.344,15.425 -4.934,35.696 7.617,45.831 l 210.672,170.107 c 12.514,10.136 29.454,6.17 37.76,-9.254 l 2487.778,-4550.568 c 8.342,-15.424 4.897,-35.696 -7.618,-45.832"
         style="fill:#05173e;fill-opacity:1;fill-rule:nonzero;stroke:none;stroke-width:3.99814"
         id="path1352" /><path
         d="m 45203.412,6095.3176 c 0,-486.522 -324.533,-880.9398 -724.877,-880.9398 -400.381,0 -724.951,394.4178 -724.951,880.9398 0,486.0813 324.57,880.4991 724.951,880.4991 400.344,0 724.877,-394.4178 724.877,-880.4991"
         style="fill:#ff7768;fill-opacity:1;fill-rule:nonzero;stroke:none;stroke-width:3.99814"
         id="path1354" /><path
         d="m 37822.929,-314.52213 h 6389.906 c 97.248,0 176.033,-95.62984 176.033,-213.73483 v -992.87514 h -6741.972 v 992.87514 c 0,118.10499 78.82,213.73483 176.033,213.73483"
         style="fill:#65b3c6;fill-opacity:1;fill-rule:nonzero;stroke:none;stroke-width:3.99814"
         id="path1356" /><path
         d="m 57169.444,9595.2795 c -275.965,0 -276.399,520.8955 0,520.8955 275.928,0 276.399,-520.8955 0,-520.8955"
         style="fill:#ffffff;fill-opacity:1;fill-rule:nonzero;stroke:none;stroke-width:3.99814"
         id="path1374" /><path
         d="m 45117.59,18626.345 c -275.927,0 -276.399,520.896 0,520.896 275.965,0 276.401,-520.896 0,-520.896"
         style="fill:#ffffff;fill-opacity:1;fill-rule:nonzero;stroke:none;stroke-width:3.99814"
         id="path1378" /><path
         d="m 46789.01,8633.2527 c -275.928,0 -276.4,520.8959 0,520.8959 275.964,0 276.399,-520.8959 0,-520.8959"
         style="fill:#ffffff;fill-opacity:1;fill-rule:nonzero;stroke:none;stroke-width:3.99814"
         id="path1388" /><path
         d="m 51451.42,7437.66 c -127.39,0 -127.608,240.1763 0,240.1763 127.354,0 127.572,-240.1763 0,-240.1763"
         style="fill:#ffffff;fill-opacity:1;fill-rule:nonzero;stroke:none;stroke-width:3.99814"
         id="path1398" /><path
         d="m 56905.522,6582.721 c -127.354,0 -127.572,240.1762 0,240.1762 127.354,0 127.572,-240.1762 0,-240.1762"
         style="fill:#ffffff;fill-opacity:1;fill-rule:nonzero;stroke:none;stroke-width:3.99814"
         id="path1400" /><path
         d="m 45337.513,12213.42 c -106.134,0 -106.279,200.514 0,200.514 106.135,0 106.316,-200.514 0,-200.514"
         style="fill:#ffffff;fill-opacity:1;fill-rule:nonzero;stroke:none;stroke-width:3.99814"
         id="path1422" /></g></g></svg>
