<?xml version="1.0" encoding="UTF-8" standalone="no"?>
<svg
   width="700pt"
   height="600pt"
   version="1.1"
   viewBox="0 0 700 600"
   id="svg114"
   sodipodi:docname="noun-5g-infrastructure-4012618.svg"
   inkscape:version="1.1.1 (3bf5ae0d25, 2021-09-20)"
   xmlns:inkscape="http://www.inkscape.org/namespaces/inkscape"
   xmlns:sodipodi="http://sodipodi.sourceforge.net/DTD/sodipodi-0.dtd"
   xmlns="http://www.w3.org/2000/svg"
   xmlns:svg="http://www.w3.org/2000/svg">
  <sodipodi:namedview
     id="namedview116"
     pagecolor="#ffffff"
     bordercolor="#666666"
     borderopacity="1.0"
     inkscape:pageshadow="2"
     inkscape:pageopacity="0.0"
     inkscape:pagecheckerboard="0"
     inkscape:document-units="pt"
     showgrid="false"
     inkscape:zoom="0.77035714"
     inkscape:cx="466.66667"
     inkscape:cy="337.5058"
     inkscape:window-width="1920"
     inkscape:window-height="992"
     inkscape:window-x="-8"
     inkscape:window-y="-8"
     inkscape:window-maximized="1"
     inkscape:current-layer="g112" />
  <defs
     id="defs44">
    <symbol
       id="n"
       overflow="visible">
      <path
         d="m 29.312,-1.75 c -1.5117,0.78125 -3.0898,1.3711 -4.7344,1.7656 -1.6367,0.40625 -3.3398,0.60938 -5.1094,0.60938 -5.3125,0 -9.5273,-1.4844 -12.641,-4.4531 -3.1055,-2.9688 -4.6562,-7 -4.6562,-12.094 0,-5.094 1.5508,-9.125 4.6562,-12.094 3.1133,-2.9688 7.3281,-4.4531 12.641,-4.4531 1.7695,0 3.4727,0.19922 5.1094,0.59375 1.6445,0.39844 3.2227,0.99219 4.7344,1.7812 v 6.5938 c -1.5312,-1.0391 -3.0391,-1.8008 -4.5156,-2.2812 -1.4805,-0.48828 -3.0391,-0.73438 -4.6719,-0.73438 -2.9375,0 -5.2461,0.94531 -6.9219,2.8281 -1.6797,1.875 -2.5156,4.4648 -2.5156,7.7656 0,3.293 0.83594,5.8828 2.5156,7.7656 1.6758,1.875 3.9844,2.8125 6.9219,2.8125 1.6328,0 3.1914,-0.23828 4.6719,-0.71875 1.4766,-0.48828 2.9844,-1.2539 4.5156,-2.2969 z"
         id="path2" />
    </symbol>
    <symbol
       id="i"
       overflow="visible">
      <path
         d="m 21.453,-17.406 c -0.67969,-0.3125 -1.3516,-0.53906 -2.0156,-0.6875 -0.65625,-0.15625 -1.3203,-0.23438 -1.9844,-0.23438 -1.9688,0 -3.4844,0.63281 -4.5469,1.8906 -1.0547,1.2617 -1.5781,3.0703 -1.5781,5.4219 V 6.2e-4 H 3.6718 v -23.922 h 7.6562 v 3.9219 c 0.97656,-1.5625 2.1016,-2.7031 3.375,-3.4219 1.2812,-0.71875 2.8125,-1.0781 4.5938,-1.0781 0.25,0 0.52344,0.01172 0.82812,0.03125 0.30078,0.02344 0.73438,0.07031 1.2969,0.14062 z"
         id="path5" />
    </symbol>
    <symbol
       id="d"
       overflow="visible">
      <path
         d="m 27.562,-12.031 v 2.1875 H 9.671 c 0.1875,1.793 0.83203,3.1367 1.9375,4.0312 1.1133,0.89844 2.6719,1.3438 4.6719,1.3438 1.6016,0 3.25,-0.23438 4.9375,-0.70312 1.6875,-0.47656 3.4219,-1.2031 5.2031,-2.1719 v 5.8906 c -1.8047,0.6875 -3.6094,1.2031 -5.4219,1.5469 -1.8125,0.35156 -3.6211,0.53125 -5.4219,0.53125 -4.3359,0 -7.7031,-1.0977 -10.109,-3.2969 -2.3984,-2.207 -3.5938,-5.2969 -3.5938,-9.2656 0,-3.9062 1.1758,-6.9727 3.5312,-9.2031 2.3633,-2.2383 5.6094,-3.3594 9.7344,-3.3594 3.7578,0 6.7695,1.1367 9.0312,3.4062 2.2578,2.2617 3.3906,5.2812 3.3906,9.0625 z m -7.8594,-2.5312 c 0,-1.457 -0.42969,-2.6289 -1.2812,-3.5156 -0.84375,-0.89453 -1.9492,-1.3438 -3.3125,-1.3438 -1.4922,0 -2.6992,0.41797 -3.625,1.25 -0.91797,0.83594 -1.4922,2.0391 -1.7188,3.6094 z"
         id="path8" />
    </symbol>
    <symbol
       id="c"
       overflow="visible">
      <path
         d="m 14.391,-10.766 c -1.5938,0 -2.793,0.27344 -3.5938,0.8125 -0.80469,0.54297 -1.2031,1.3398 -1.2031,2.3906 0,0.96875 0.32031,1.7305 0.96875,2.2812 0.64453,0.54297 1.5469,0.8125 2.7031,0.8125 1.4375,0 2.6445,-0.51562 3.625,-1.5469 0.98828,-1.0312 1.4844,-2.3203 1.4844,-3.875 v -0.875 z m 11.688,-2.8906 V -6e-4 h -7.7031 v -3.5469 c -1.0312,1.4492 -2.1875,2.5078 -3.4688,3.1719 -1.2813,0.6641 -2.8398,1 -4.6719,1 -2.4805,0 -4.4961,-0.72266 -6.0469,-2.1719 -1.543,-1.4453 -2.3125,-3.3203 -2.3125,-5.625 0,-2.8125 0.96094,-4.8672 2.8906,-6.1719 1.9375,-1.3125 4.9688,-1.9688 9.0938,-1.9688 h 4.5156 v -0.60938 c 0,-1.207 -0.48047,-2.0938 -1.4375,-2.6562 -0.94922,-0.5625 -2.4375,-0.84375 -4.4688,-0.84375 -1.6367,0 -3.1562,0.16797 -4.5625,0.5 -1.4062,0.32422 -2.7188,0.8125 -3.9375,1.4688 v -5.8281 c 1.6445,-0.40625 3.2891,-0.70703 4.9375,-0.90625 1.6562,-0.20703 3.3047,-0.3125 4.9531,-0.3125 4.3203,0 7.4375,0.85547 9.3438,2.5625 1.9141,1.6992 2.875,4.4609 2.875,8.2812 z"
         id="path11" />
    </symbol>
    <symbol
       id="b"
       overflow="visible">
      <path
         d="m 12.031,-30.719 v 6.7969 h 7.875 v 5.4688 h -7.875 v 10.141 c 0,1.1172 0.21875,1.8711 0.65625,2.2656 0.4375,0.38672 1.3125,0.57812 2.625,0.57812 h 3.9375 v 5.4688 h -6.5625 c -3.0234,0 -5.1641,-0.62891 -6.4219,-1.8906 -1.2617,-1.2578 -1.8906,-3.3984 -1.8906,-6.4219 v -10.141 h -3.7969 v -5.4688 h 3.7969 v -6.7969 z"
         id="path14" />
    </symbol>
    <symbol
       id="a"
       overflow="visible">
      <path
         d="m 19.953,-20.422 v -12.812 h 7.6875 V 0 H 19.953 v -3.4531 c -1.0547,1.4062 -2.2148,2.4375 -3.4844,3.0938 -1.2734,0.65625 -2.7422,0.98438 -4.4062,0.98438 -2.9492,0 -5.3711,-1.1719 -7.2656,-3.5156 -1.8867,-2.3438 -2.8281,-5.3594 -2.8281,-9.0469 0,-3.6875 0.94141,-6.7031 2.8281,-9.0469 1.8945,-2.3438 4.3164,-3.5156 7.2656,-3.5156 1.6562,0 3.1172,0.33594 4.3906,1 1.2812,0.65625 2.4453,1.6836 3.5,3.0781 z m -5.0469,15.484 c 1.6445,0 2.8945,-0.59766 3.75,-1.7969 0.86328,-1.1953 1.2969,-2.9297 1.2969,-5.2031 0,-2.2812 -0.43359,-4.0195 -1.2969,-5.2188 -0.85547,-1.1953 -2.1055,-1.7969 -3.75,-1.7969 -1.625,0 -2.8711,0.60156 -3.7344,1.7969 -0.85547,1.1992 -1.2812,2.9375 -1.2812,5.2188 0,2.2734 0.42578,4.0078 1.2812,5.2031 0.86328,1.1992 2.1094,1.7969 3.7344,1.7969 z"
         id="path17" />
    </symbol>
    <symbol
       id="h"
       overflow="visible">
      <path
         d="m 16.406,-4.9375 c 1.6328,0 2.8828,-0.59766 3.75,-1.7969 0.86328,-1.1953 1.2969,-2.9297 1.2969,-5.2031 0,-2.2812 -0.43359,-4.0195 -1.2969,-5.2188 -0.86719,-1.1953 -2.1172,-1.7969 -3.75,-1.7969 -1.6367,0 -2.8906,0.60547 -3.7656,1.8125 -0.875,1.1992 -1.3125,2.9336 -1.3125,5.2031 0,2.2617 0.4375,3.9961 1.3125,5.2031 0.875,1.1992 2.1289,1.7969 3.7656,1.7969 z m -5.0781,-15.484 c 1.0508,-1.3945 2.2188,-2.4219 3.5,-3.0781 1.2812,-0.66406 2.7539,-1 4.4219,-1 2.9453,0 5.3672,1.1719 7.2656,3.5156 1.8945,2.3438 2.8438,5.3594 2.8438,9.0469 0,3.6875 -0.94922,6.7031 -2.8438,9.0469 -1.8984,2.3438 -4.3203,3.5156 -7.2656,3.5156 -1.668,0 -3.1406,-0.33594 -4.4219,-1 -1.2813,-0.66406 -2.4492,-1.6914 -3.5,-3.0781 V 4e-4 H 3.6717 v -33.234 h 7.6562 z"
         id="path20" />
    </symbol>
    <symbol
       id="g"
       overflow="visible">
      <path
         d="m 0.53125,-23.922 h 7.6562 l 6.4219,16.234 5.4688,-16.234 h 7.6562 l -10.062,26.188 c -1.0117,2.6641 -2.1953,4.5234 -3.5469,5.5781 -1.3438,1.0625 -3.1211,1.5938 -5.3281,1.5938 H 4.37545 V 4.4223 h 2.3906 c 1.3008,0 2.2422,-0.21094 2.8281,-0.625 0.59375,-0.40625 1.0547,-1.1484 1.3906,-2.2188 l 0.20312,-0.65625 z"
         id="path23" />
    </symbol>
    <symbol
       id="f"
       overflow="visible">
      <path
         d="m 4.0156,-31.891 h 8.2188 v 25.672 h 14.453 V -2e-4 H 4.0154 Z"
         id="path26" />
    </symbol>
    <symbol
       id="e"
       overflow="visible">
      <path
         d="m 3.6719,-23.922 h 7.6562 V 0 H 3.6719 Z m 0,-9.3125 h 7.6562 v 6.2344 H 3.6719 Z"
         id="path29" />
    </symbol>
    <symbol
       id="m"
       overflow="visible">
      <path
         d="m 25.844,-19.953 c 0.96875,-1.4766 2.1172,-2.6016 3.4531,-3.375 1.332,-0.78125 2.7969,-1.1719 4.3906,-1.1719 2.75,0 4.8438,0.85156 6.2812,2.5469 1.4375,1.6875 2.1562,4.1523 2.1562,7.3906 V -4e-4 h -7.6875 v -12.469 c 0.0078,-0.1875 0.01953,-0.37891 0.03125,-0.57812 0.0078,-0.19531 0.01563,-0.48438 0.01563,-0.85938 0,-1.6953 -0.25,-2.9258 -0.75,-3.6875 -0.5,-0.75781 -1.3086,-1.1406 -2.4219,-1.1406 -1.4492,0 -2.5703,0.60156 -3.3594,1.7969 -0.79297,1.1992 -1.2031,2.9297 -1.2344,5.1875 v 11.75 h -7.6875 v -12.469 c 0,-2.6562 -0.23047,-4.3633 -0.6875,-5.125 -0.44922,-0.75781 -1.2578,-1.1406 -2.4219,-1.1406 -1.4688,0 -2.6055,0.60547 -3.4062,1.8125 -0.79297,1.1992 -1.1875,2.918 -1.1875,5.1562 V -5e-4 h -7.7031 v -23.922 h 7.7031 v 3.5 c 0.9375,-1.3516 2.0156,-2.3672 3.2344,-3.0469 1.2188,-0.6875 2.5547,-1.0312 4.0156,-1.0312 1.6562,0 3.1133,0.40234 4.375,1.2031 1.2695,0.79297 2.2344,1.9062 2.8906,3.3438 z"
         id="path32" />
    </symbol>
    <symbol
       id="l"
       overflow="visible">
      <path
         d="m 26.219,-30.891 v 6.75 c -1.7617,-0.78125 -3.4766,-1.3672 -5.1406,-1.7656 -1.668,-0.40625 -3.2422,-0.60938 -4.7188,-0.60938 -1.9609,0 -3.4141,0.27344 -4.3594,0.8125 -0.9375,0.54297 -1.4062,1.3867 -1.4062,2.5312 0,0.85547 0.31641,1.5234 0.95312,2 0.63281,0.46875 1.7852,0.875 3.4531,1.2188 l 3.5,0.70312 c 3.5391,0.71875 6.0625,1.8047 7.5625,3.25 1.5,1.4492 2.25,3.5117 2.25,6.1875 0,3.5234 -1.0469,6.1406 -3.1406,7.8594 -2.0859,1.7188 -5.2734,2.5781 -9.5625,2.5781 -2.0234,0 -4.0547,-0.19531 -6.0938,-0.57812 -2.0312,-0.38281 -4.0625,-0.95703 -6.0938,-1.7188 v -6.9375 c 2.0312,1.0859 3.9922,1.9023 5.8906,2.4531 1.9062,0.54297 3.7422,0.8125 5.5156,0.8125 1.7891,0 3.1602,-0.29688 4.1094,-0.89062 0.95703,-0.60156 1.4375,-1.457 1.4375,-2.5625 0,-1 -0.32422,-1.7695 -0.96875,-2.3125 -0.64844,-0.53906 -1.9375,-1.0234 -3.875,-1.4531 l -3.1875,-0.70312 c -3.1875,-0.6875 -5.5234,-1.7734 -7,-3.2656 -1.4688,-1.5 -2.2031,-3.5156 -2.2031,-6.0469 0,-3.1758 1.0234,-5.6172 3.0781,-7.3281 2.0508,-1.707 5,-2.5625 8.8438,-2.5625 1.75,0 3.5508,0.13281 5.4062,0.39062 1.8516,0.26172 3.7695,0.65625 5.75,1.1875 z"
         id="path35" />
    </symbol>
    <symbol
       id="k"
       overflow="visible">
      <path
         d="m 3.4219,-9.3125 v -14.609 h 7.6875 v 2.3906 c 0,1.293 -0.01172,2.918 -0.03125,4.875 -0.01172,1.9609 -0.01563,3.2656 -0.01563,3.9219 0,1.9297 0.04687,3.3125 0.14062,4.1562 0.10156,0.84375 0.28125,1.4609 0.53125,1.8438 0.3125,0.5 0.71875,0.88672 1.2188,1.1562 0.50781,0.27344 1.0938,0.40625 1.75,0.40625 1.5938,0 2.8438,-0.60938 3.75,-1.8281 0.91406,-1.2266 1.375,-2.9297 1.375,-5.1094 v -11.812 h 7.6406 v 23.922 h -7.6406 v -3.4531 c -1.1562,1.3867 -2.3828,2.4141 -3.6719,3.0781 -1.2812,0.66406 -2.6992,1 -4.25,1 -2.7734,0 -4.8828,-0.84766 -6.3281,-2.5469 -1.4375,-1.6953 -2.1562,-4.1602 -2.1562,-7.3906 z"
         id="path38" />
    </symbol>
    <symbol
       id="j"
       overflow="visible">
      <path
         d="m 15.062,-19.031 c -1.6992,0 -2.9961,0.60938 -3.8906,1.8281 -0.88672,1.2188 -1.3281,2.9766 -1.3281,5.2656 0,2.293 0.44141,4.0469 1.3281,5.2656 0.89453,1.2188 2.1914,1.8281 3.8906,1.8281 1.6641,0 2.9375,-0.60938 3.8125,-1.8281 0.88281,-1.2188 1.3281,-2.9727 1.3281,-5.2656 0,-2.2891 -0.44531,-4.0469 -1.3281,-5.2656 -0.875,-1.2188 -2.1484,-1.8281 -3.8125,-1.8281 z m 0,-5.4688 c 4.1133,0 7.3281,1.1094 9.6406,3.3281 2.3125,2.2187 3.4688,5.2969 3.4688,9.2344 0,3.9297 -1.1562,7.0078 -3.4688,9.2344 -2.3125,2.2188 -5.5273,3.3281 -9.6406,3.3281 -4.1367,0 -7.3711,-1.1094 -9.7031,-3.3281 -2.3242,-2.2266 -3.4844,-5.3047 -3.4844,-9.2344 0,-3.9375 1.1602,-7.0156 3.4844,-9.2344 2.332,-2.2188 5.5664,-3.3281 9.7031,-3.3281 z"
         id="path41" />
    </symbol>
  </defs>
  <g
     id="g112">
    <path
       d="m 309.4,306.25 h -28.086 c -4.832,0 -8.75,3.918 -8.75,8.75 0,4.832 3.918,8.75 8.75,8.75 H 309.4 c 9.3789,0 18.047,-5.0039 22.734,-13.125 4.6914,-8.1211 4.6914,-18.129 0,-26.25 -4.6875,-8.1211 -13.355,-13.125 -22.734,-13.125 h -17.5 l 1.6641,-8.75 h 30.711 c 4.8359,0 8.75,-3.918 8.75,-8.75 0,-4.832 -3.9141,-8.75 -8.75,-8.75 h -38.062 c -4.2773,-0.0703 -7.9805,2.9648 -8.75,7.1758 l -4.8984,26.25 c -0.48047,2.5469 0.19141,5.1719 1.8359,7.1758 1.668,2 4.1367,3.1523 6.7383,3.1484 h 28 c 2.3203,0 4.5469,0.92188 6.1875,2.5625 1.6406,1.64062 2.5625,3.8672 2.5625,6.1875 0.004,4.7305 -3.7578,8.6094 -8.4883,8.75 z"
       id="path46" />
    <path
       d="m 383.16,323.75 c 11.223,-0.0234 21.98,-4.4922 29.918,-12.43 7.938,-7.9378 12.406,-18.695 12.43,-29.922 0,-2.3203 -0.92188,-4.543 -2.5625,-6.1875 -1.6406,-1.6406 -3.8672,-2.5625 -6.1875,-2.5625 h -23.012 c -4.832,0 -8.75,3.918 -8.75,8.75 0,4.8359 3.918,8.75 8.75,8.75 h 12.512 c -2.1367,5.6875 -6.2852,10.391 -11.656,13.227 -5.375,2.8359 -11.598,3.6055 -17.5,2.1641 -5.9023,-1.4414 -11.07,-4.9961 -14.527,-9.9883 -3.4609,-4.9922 -4.9727,-11.082 -4.2461,-17.113 0.72266,-6.0312 3.6328,-11.59 8.1758,-15.621 4.543,-4.0352 10.406,-6.2617 16.48,-6.2656 6.5703,-0.0156 12.871,2.6016 17.5,7.2617 3.4297,3.4297 8.9922,3.4297 12.426,0 3.4297,-3.4297 3.4297,-8.9922 0,-12.426 -10.027,-9.9805 -24.375,-14.297 -38.242,-11.504 -13.871,2.7969 -25.43,12.328 -30.809,25.414 -5.3789,13.086 -3.8672,27.992 4.0234,39.73 7.8945,11.742 21.129,18.766 35.277,18.723 z"
       id="path48" />
    <path
       d="m 189.09,126 c 0,-2.3203 -0.92188,-4.5469 -2.5625,-6.1875 -1.6406,-1.6406 -3.8672,-2.5625 -6.1875,-2.5625 -3.5391,0 -6.7266,2.1328 -8.082,5.4023 -1.3555,3.2695 -0.60547,7.0312 1.8945,9.5352 2.5039,2.5039 6.2695,3.25 9.5391,1.8945 3.2695,-1.3516 5.3984,-4.543 5.3984,-8.082 z"
       id="path50" />
    <path
       d="m 115.24,411.69 v 83.738 c 0,2.3203 0.92188,4.5469 2.5625,6.1875 1.64062,1.6406 3.8672,2.5625 6.1875,2.5625 h 34.039 v 9.3633 h -7.0898 c -4.832,0 -8.75,3.9141 -8.75,8.75 0,4.832 3.918,8.75 8.75,8.75 h 59.062 c 4.832,0 8.75,-3.918 8.75,-8.75 0,-4.8359 -3.918,-8.75 -8.75,-8.75 h -7.0859 v -9.3633 h 33.949 c 2.3203,0 4.5469,-0.92188 6.1875,-2.5625 1.6406,-1.64062 2.5625,-3.8672 2.5625,-6.1875 V 411.69 c 0,-2.3203 -0.92188,-4.5469 -2.5625,-6.1875 -1.64062,-1.6406 -3.8672,-2.5625 -6.1875,-2.5625 h -47.777 v -54.773 h 57.664 l 97.914,56.523 c 1.3242,0.78516 2.832,1.2109 4.375,1.2266 1.5391,-0.0156 3.0469,-0.44141 4.375,-1.2266 l 97.914,-56.523 h 57.664 v 54.773 h -49.531 c -4.832,0 -8.75,3.918 -8.75,8.75 v 87.062 c 0,2.3203 0.92187,4.5469 2.5625,6.1875 1.6445,1.6406 3.8672,2.5625 6.1875,2.5625 h 116.55 c 2.3203,0 4.5469,-0.92188 6.1875,-2.5625 1.6406,-1.64062 2.5625,-3.8672 2.5625,-6.1875 v -87.5 c 0,-2.3203 -0.92188,-4.5469 -2.5625,-6.1875 -1.64062,-1.6406 -3.8672,-2.5625 -6.1875,-2.5625 h -49.523 v -63.086 c 0,-2.3203 -0.92188,-4.5469 -2.5625,-6.1875 -1.6406,-1.6406 -3.8672,-2.5625 -6.1875,-2.5625 h -59.938 v -97.914 h 59.938 c 2.3203,0 4.5469,-0.92188 6.1875,-2.5625 1.6406,-1.64062 2.5625,-3.8672 2.5625,-6.1875 v -63.523 h 30.887 c 6.3672,0 12.473,-2.5234 16.984,-7.0195 4.5078,-4.4922 7.0547,-10.59 7.0781,-16.957 v -17.5 c 0,-2.3203 -0.92188,-4.5469 -2.5625,-6.1875 -1.64062,-1.6406 -3.8672,-2.5625 -6.1875,-2.5625 h -1.1367 v -60.375 c 0,-2.3203 -0.92188,-4.5469 -2.5625,-6.1875 -1.64062,-1.6406 -3.8672,-2.5625 -6.1875,-2.5625 h -90.301 c -4.832,0 -8.75,3.918 -8.75,8.75 v 60.375 h -1.1367 c -4.832,0 -8.75,3.918 -8.75,8.75 v 17.5 c 0,6.3594 2.5234,12.457 7.0195,16.953 4.4961,4.4961 10.598,7.0234 16.953,7.0234 h 30.977 v 54.773 h -57.488 l -97.91,-56.523 c -2.707,-1.5664 -6.043,-1.5664 -8.75,0 l -97.914,56.523 h -57.664 v -54.773 h 24.152 c 2.3203,0 4.5469,-0.92187 6.1875,-2.5625 1.6406,-1.6445 2.5625,-3.8672 2.5625,-6.1875 v -116.73 c 0,-2.3203 -0.92188,-4.5469 -2.5625,-6.1875 -1.64062,-1.6406 -3.8672,-2.5625 -6.1875,-2.5625 h -65.715 c -4.832,0 -8.75,3.918 -8.75,8.75 v 116.73 c 0,2.3203 0.92187,4.543 2.5625,6.1875 1.6445,1.6406 3.8672,2.5625 6.1875,2.5625 h 24.062 v 63.523 c 0,2.3203 0.92187,4.5469 2.5625,6.1875 1.6445,1.6406 3.8672,2.5625 6.1875,2.5625 h 59.938 v 97.914 h -59.938 c -4.832,0 -8.75,3.9141 -8.75,8.75 v 63.523 h -47.598 c -4.832,0 -8.75,3.918 -8.75,8.75 z m 452.02,78.75 h -99.051 v -70 H 567.26 Z M 481.248,58.63 h 72.625 v 51.625 h -72.625 z m -9.8867,77.875 v -8.75 h 92.574 v 8.75 c -0.0469,3.5898 -2.9727,6.4766 -6.5625,6.4766 h -79.363 c -1.7148,0 -3.3633,-0.68359 -4.5781,-1.8984 -1.2148,-1.21481 -1.8945,-2.8594 -1.8945,-4.5781 z m -315.09,-92.75 h 48.211 l 0.004,99.227 h -48.215 z m 192.5,132.65 91.262,52.5 v 105 l -91.262,52.5 -91.262,-52.5 v -105 z m -163.54,337.14 h -9.7148 v -9.3633 h 9.7109 z m -52.5,-26.863 v -8.75 h 95.199 v 8.75 z m 95.199,-66.238 v 39.727 h -95.199 v -39.727 z"
       id="path52" />
    <path
       d="m 549.94,455.35 c 0,4.832 -3.918,8.75 -8.75,8.75 -4.832,0 -8.75,-3.918 -8.75,-8.75 0,-4.8359 3.918,-8.75 8.75,-8.75 4.832,0 8.75,3.9141 8.75,8.75"
       id="path54" />
    <path
       d="m 572.07,525 c 0,-2.3203 -0.92188,-4.5469 -2.5625,-6.1875 -1.64062,-1.6406 -3.8672,-2.5625 -6.1875,-2.5625 h -90.824 c -4.832,0 -8.75,3.918 -8.75,8.75 0,4.832 3.918,8.75 8.75,8.75 h 90.824 c 2.3203,0 4.5469,-0.92188 6.1875,-2.5625 1.6406,-1.64062 2.5625,-3.8672 2.5625,-6.1875 z"
       id="path56" />
    <path
       d="m 315.44,120.57 c -1.6562,1.6445 -2.5898,3.8789 -2.5898,6.2148 0,2.332 0.93359,4.5664 2.5898,6.2109 1.6523,1.6367 3.8867,2.5508 6.2109,2.5391 2.2969,-0.0117 4.4961,-0.92187 6.125,-2.5391 5.6367,-5.6406 13.293,-8.7891 21.266,-8.75 7.957,0.0156 15.594,3.1602 21.262,8.75 3.4102,3.3945 8.9258,3.3945 12.336,0 1.6562,-1.6445 2.5898,-3.8789 2.5898,-6.2109 0,-2.3359 -0.93359,-4.5703 -2.5898,-6.2148 -8.9102,-8.9102 -20.996,-13.918 -33.598,-13.918 -12.605,0 -24.691,5.0078 -33.602,13.918 z"
       id="path58" />
    <path
       d="m 404.16,111.48 c 1.6562,-1.6445 2.5859,-3.8828 2.5859,-6.2148 0,-2.332 -0.92969,-4.5703 -2.5859,-6.2109 -14.621,-14.621 -34.449,-22.832 -55.125,-22.832 -20.676,0 -40.508,8.2109 -55.125,22.832 -3.4336,3.4062 -3.4531,8.9492 -0.0469,12.379 3.4102,3.4336 8.9531,3.4531 12.383,0.0469 11.332,-11.383 26.727,-17.780996 42.789,-17.780996 16.059,0 31.457,6.398396 42.785,17.780996 3.4141,3.3906 8.9258,3.3906 12.34,0 z"
       id="path60" />
    <path
       d="m 382.64,442.84 c 1.6562,-1.6406 2.5898,-3.8789 2.5898,-6.2109 0,-2.332 -0.93359,-4.5703 -2.5898,-6.2109 -3.4102,-3.3945 -8.9258,-3.3945 -12.336,0 -5.668,5.5898 -13.305,8.7305 -21.262,8.75 -7.9727,0.0391 -15.629,-3.1133 -21.266,-8.75 -3.4102,-3.3945 -8.9219,-3.3945 -12.336,0 -1.6562,1.6406 -2.5898,3.8789 -2.5898,6.2109 0,2.332 0.93359,4.5703 2.5898,6.2109 8.9102,8.9141 20.996,13.922 33.602,13.922 12.602,0 24.688,-5.0078 33.598,-13.922 z"
       id="path62" />
    <path
       d="m 293.91,452.02 c -3.3945,3.4141 -3.3945,8.9258 0,12.34 14.617,14.617 34.449,22.832 55.125,22.832 20.676,0 40.504,-8.2148 55.125,-22.832 3.3906,-3.4141 3.3906,-8.9258 0,-12.34 -3.4141,-3.3906 -8.9258,-3.3906 -12.34,0 -11.363,11.32 -26.75,17.672 -42.785,17.672 -16.039,0 -31.426,-6.3516 -42.789,-17.672 -3.4141,-3.3906 -8.9258,-3.3906 -12.336,0 z"
       id="path64" />
    <path
       d="m 521.41,315 c 3.4102,3.3945 8.9219,3.3945 12.336,0 8.9141,-8.9102 13.918,-20.996 13.918,-33.602 0,-12.602 -5.0039,-24.688 -13.918,-33.598 -3.4062,-3.4336 -8.9492,-3.4531 -12.383,-0.043 -3.4297,3.4062 -3.4492,8.9492 -0.043,12.379 5.6289,5.6289 8.7891,13.262 8.7891,21.219 0,7.957 -3.1602,15.59 -8.7891,21.219 -1.6445,1.6562 -2.5586,3.8984 -2.543,6.2305 0.0156,2.3359 0.96484,4.5625 2.6328,6.1953 z"
       id="path66" />
    <path
       d="m 549.06,339.41 c 2.3242,0.0117 4.5625,-0.90234 6.2109,-2.5391 14.625,-14.637 22.84,-34.48 22.84,-55.168 0,-20.691 -8.2148,-40.535 -22.84,-55.168 -3.4102,-3.3945 -8.9219,-3.3945 -12.336,0 -1.6562,1.6406 -2.5898,3.8789 -2.5898,6.2109 0,2.332 0.93359,4.5703 2.5898,6.2109 11.312,11.352 17.664,26.723 17.664,42.746 0,16.023 -6.3516,31.395 -17.664,42.742 -2.5117,2.4922 -3.2773,6.2539 -1.9375,9.5273 1.3438,3.2773 4.5234,5.4219 8.0625,5.4375 z"
       id="path68" />
    <path
       d="m 176.75,248.15 c -1.6445,-1.6562 -3.8789,-2.5859 -6.2109,-2.5859 -2.3359,0 -4.5703,0.92969 -6.2148,2.5859 -8.9102,8.9141 -13.918,21 -13.918,33.602 0,12.602 5.0078,24.688 13.918,33.602 1.6523,1.6367 3.8867,2.5508 6.2148,2.5352 2.375,-0.0781 4.6172,-1.1211 6.2109,-2.8867 1.6562,-1.6445 2.5898,-3.8789 2.5898,-6.2109 0,-2.3359 -0.93359,-4.5703 -2.5898,-6.2148 -5.6484,-5.6172 -8.8242,-13.254 -8.8242,-21.219 0,-7.9648 3.1758,-15.602 8.8242,-21.219 3.168,-3.3672 3.168,-8.6172 0,-11.988 z"
       id="path70" />
    <path
       d="m 142.8,226.54 c -14.625,14.633 -22.84,34.477 -22.84,55.168 0,20.688 8.2148,40.531 22.84,55.168 3.4297,3.4062 8.9727,3.3867 12.379,-0.043 3.4102,-3.4336 3.3906,-8.9766 -0.043,-12.383 -11.312,-11.348 -17.664,-26.719 -17.664,-42.742 0,-16.023 6.3516,-31.395 17.664,-42.746 1.6562,-1.6406 2.5898,-3.8789 2.5898,-6.2109 0,-2.332 -0.93359,-4.5703 -2.5898,-6.2109 -3.4102,-3.3945 -8.9258,-3.3945 -12.336,0 z"
       id="path72" />
  </g>
</svg>
