<?xml version="1.0" encoding="UTF-8" standalone="no"?>
<svg
   width="700pt"
   height="600pt"
   version="1.1"
   viewBox="0 0 700 600"
   id="svg118"
   sodipodi:docname="noun-smart-car-4029683.svg"
   inkscape:version="1.1.1 (3bf5ae0d25, 2021-09-20)"
   xmlns:inkscape="http://www.inkscape.org/namespaces/inkscape"
   xmlns:sodipodi="http://sodipodi.sourceforge.net/DTD/sodipodi-0.dtd"
   xmlns="http://www.w3.org/2000/svg"
   xmlns:svg="http://www.w3.org/2000/svg">
  <sodipodi:namedview
     id="namedview120"
     pagecolor="#ffffff"
     bordercolor="#666666"
     borderopacity="1.0"
     inkscape:pageshadow="2"
     inkscape:pageopacity="0.0"
     inkscape:pagecheckerboard="0"
     inkscape:document-units="pt"
     showgrid="false"
     inkscape:zoom="0.77035714"
     inkscape:cx="466.66667"
     inkscape:cy="332.3134"
     inkscape:window-width="1920"
     inkscape:window-height="992"
     inkscape:window-x="-8"
     inkscape:window-y="-8"
     inkscape:window-maximized="1"
     inkscape:current-layer="g116" />
  <defs
     id="defs50">
    <symbol
       id="p"
       overflow="visible">
      <path
         d="m 29.312,-1.75 c -1.5117,0.78125 -3.0898,1.3711 -4.7344,1.7656 -1.6367,0.40625 -3.3398,0.60938 -5.1094,0.60938 -5.3125,0 -9.5273,-1.4844 -12.641,-4.4531 -3.1055,-2.9688 -4.6562,-7 -4.6562,-12.094 0,-5.094 1.5508,-9.125 4.6562,-12.094 3.1133,-2.9688 7.3281,-4.4531 12.641,-4.4531 1.7695,0 3.4727,0.19922 5.1094,0.59375 1.6445,0.39844 3.2227,0.99219 4.7344,1.7812 v 6.5938 c -1.5312,-1.0391 -3.0391,-1.8008 -4.5156,-2.2812 -1.4805,-0.48828 -3.0391,-0.73438 -4.6719,-0.73438 -2.9375,0 -5.2461,0.94531 -6.9219,2.8281 -1.6797,1.875 -2.5156,4.4648 -2.5156,7.7656 0,3.293 0.83594,5.8828 2.5156,7.7656 1.6758,1.875 3.9844,2.8125 6.9219,2.8125 1.6328,0 3.1914,-0.23828 4.6719,-0.71875 1.4766,-0.48828 2.9844,-1.2539 4.5156,-2.2969 z"
         id="path2" />
    </symbol>
    <symbol
       id="c"
       overflow="visible">
      <path
         d="m 21.453,-17.406 c -0.67969,-0.3125 -1.3516,-0.53906 -2.0156,-0.6875 -0.65625,-0.15625 -1.3203,-0.23438 -1.9844,-0.23438 -1.9688,0 -3.4844,0.63281 -4.5469,1.8906 -1.0547,1.2617 -1.5781,3.0703 -1.5781,5.4219 V 6.2e-4 H 3.6718 v -23.922 h 7.6562 v 3.9219 c 0.97656,-1.5625 2.1016,-2.7031 3.375,-3.4219 1.2812,-0.71875 2.8125,-1.0781 4.5938,-1.0781 0.25,0 0.52344,0.01172 0.82812,0.03125 0.30078,0.02344 0.73438,0.07031 1.2969,0.14062 z"
         id="path5" />
    </symbol>
    <symbol
       id="a"
       overflow="visible">
      <path
         d="m 27.562,-12.031 v 2.1875 H 9.671 c 0.1875,1.793 0.83203,3.1367 1.9375,4.0312 1.1133,0.89844 2.6719,1.3438 4.6719,1.3438 1.6016,0 3.25,-0.23438 4.9375,-0.70312 1.6875,-0.47656 3.4219,-1.2031 5.2031,-2.1719 v 5.8906 c -1.8047,0.6875 -3.6094,1.2031 -5.4219,1.5469 -1.8125,0.35156 -3.6211,0.53125 -5.4219,0.53125 -4.3359,0 -7.7031,-1.0977 -10.109,-3.2969 -2.3984,-2.207 -3.5938,-5.2969 -3.5938,-9.2656 0,-3.9062 1.1758,-6.9727 3.5312,-9.2031 2.3633,-2.2383 5.6094,-3.3594 9.7344,-3.3594 3.7578,0 6.7695,1.1367 9.0312,3.4062 2.2578,2.2617 3.3906,5.2812 3.3906,9.0625 z m -7.8594,-2.5312 c 0,-1.457 -0.42969,-2.6289 -1.2812,-3.5156 -0.84375,-0.89453 -1.9492,-1.3438 -3.3125,-1.3438 -1.4922,0 -2.6992,0.41797 -3.625,1.25 -0.91797,0.83594 -1.4922,2.0391 -1.7188,3.6094 z"
         id="path8" />
    </symbol>
    <symbol
       id="i"
       overflow="visible">
      <path
         d="m 14.391,-10.766 c -1.5938,0 -2.793,0.27344 -3.5938,0.8125 -0.80469,0.54297 -1.2031,1.3398 -1.2031,2.3906 0,0.96875 0.32031,1.7305 0.96875,2.2812 0.64453,0.54297 1.5469,0.8125 2.7031,0.8125 1.4375,0 2.6445,-0.51562 3.625,-1.5469 0.98828,-1.0312 1.4844,-2.3203 1.4844,-3.875 v -0.875 z m 11.688,-2.8906 V -6e-4 h -7.7031 v -3.5469 c -1.0312,1.4492 -2.1875,2.5078 -3.4688,3.1719 -1.2813,0.6641 -2.8398,1 -4.6719,1 -2.4805,0 -4.4961,-0.72266 -6.0469,-2.1719 -1.543,-1.4453 -2.3125,-3.3203 -2.3125,-5.625 0,-2.8125 0.96094,-4.8672 2.8906,-6.1719 1.9375,-1.3125 4.9688,-1.9688 9.0938,-1.9688 h 4.5156 v -0.60938 c 0,-1.207 -0.48047,-2.0938 -1.4375,-2.6562 -0.94922,-0.5625 -2.4375,-0.84375 -4.4688,-0.84375 -1.6367,0 -3.1562,0.16797 -4.5625,0.5 -1.4062,0.32422 -2.7188,0.8125 -3.9375,1.4688 v -5.8281 c 1.6445,-0.40625 3.2891,-0.70703 4.9375,-0.90625 1.6562,-0.20703 3.3047,-0.3125 4.9531,-0.3125 4.3203,0 7.4375,0.85547 9.3438,2.5625 1.9141,1.6992 2.875,4.4609 2.875,8.2812 z"
         id="path11" />
    </symbol>
    <symbol
       id="b"
       overflow="visible">
      <path
         d="m 12.031,-30.719 v 6.7969 h 7.875 v 5.4688 h -7.875 v 10.141 c 0,1.1172 0.21875,1.8711 0.65625,2.2656 0.4375,0.38672 1.3125,0.57812 2.625,0.57812 h 3.9375 v 5.4688 h -6.5625 c -3.0234,0 -5.1641,-0.62891 -6.4219,-1.8906 -1.2617,-1.2578 -1.8906,-3.3984 -1.8906,-6.4219 v -10.141 h -3.7969 v -5.4688 h 3.7969 v -6.7969 z"
         id="path14" />
    </symbol>
    <symbol
       id="h"
       overflow="visible">
      <path
         d="m 19.953,-20.422 v -12.812 h 7.6875 V 0 H 19.953 v -3.4531 c -1.0547,1.4062 -2.2148,2.4375 -3.4844,3.0938 -1.2734,0.65625 -2.7422,0.98438 -4.4062,0.98438 -2.9492,0 -5.3711,-1.1719 -7.2656,-3.5156 -1.8867,-2.3438 -2.8281,-5.3594 -2.8281,-9.0469 0,-3.6875 0.94141,-6.7031 2.8281,-9.0469 1.8945,-2.3438 4.3164,-3.5156 7.2656,-3.5156 1.6562,0 3.1172,0.33594 4.3906,1 1.2812,0.65625 2.4453,1.6836 3.5,3.0781 z m -5.0469,15.484 c 1.6445,0 2.8945,-0.59766 3.75,-1.7969 0.86328,-1.1953 1.2969,-2.9297 1.2969,-5.2031 0,-2.2812 -0.43359,-4.0195 -1.2969,-5.2188 -0.85547,-1.1953 -2.1055,-1.7969 -3.75,-1.7969 -1.625,0 -2.8711,0.60156 -3.7344,1.7969 -0.85547,1.1992 -1.2812,2.9375 -1.2812,5.2188 0,2.2734 0.42578,4.0078 1.2812,5.2031 0.86328,1.1992 2.1094,1.7969 3.7344,1.7969 z"
         id="path17" />
    </symbol>
    <symbol
       id="g"
       overflow="visible">
      <path
         d="m 16.406,-4.9375 c 1.6328,0 2.8828,-0.59766 3.75,-1.7969 0.86328,-1.1953 1.2969,-2.9297 1.2969,-5.2031 0,-2.2812 -0.43359,-4.0195 -1.2969,-5.2188 -0.86719,-1.1953 -2.1172,-1.7969 -3.75,-1.7969 -1.6367,0 -2.8906,0.60547 -3.7656,1.8125 -0.875,1.1992 -1.3125,2.9336 -1.3125,5.2031 0,2.2617 0.4375,3.9961 1.3125,5.2031 0.875,1.1992 2.1289,1.7969 3.7656,1.7969 z m -5.0781,-15.484 c 1.0508,-1.3945 2.2188,-2.4219 3.5,-3.0781 1.2812,-0.66406 2.7539,-1 4.4219,-1 2.9453,0 5.3672,1.1719 7.2656,3.5156 1.8945,2.3438 2.8438,5.3594 2.8438,9.0469 0,3.6875 -0.94922,6.7031 -2.8438,9.0469 -1.8984,2.3438 -4.3203,3.5156 -7.2656,3.5156 -1.668,0 -3.1406,-0.33594 -4.4219,-1 -1.2813,-0.66406 -2.4492,-1.6914 -3.5,-3.0781 V 4e-4 H 3.6717 v -33.234 h 7.6562 z"
         id="path20" />
    </symbol>
    <symbol
       id="f"
       overflow="visible">
      <path
         d="m 0.53125,-23.922 h 7.6562 l 6.4219,16.234 5.4688,-16.234 h 7.6562 l -10.062,26.188 c -1.0117,2.6641 -2.1953,4.5234 -3.5469,5.5781 -1.3438,1.0625 -3.1211,1.5938 -5.3281,1.5938 H 4.37545 V 4.4223 h 2.3906 c 1.3008,0 2.2422,-0.21094 2.8281,-0.625 0.59375,-0.40625 1.0547,-1.1484 1.3906,-2.2188 l 0.20312,-0.65625 z"
         id="path23" />
    </symbol>
    <symbol
       id="e"
       overflow="visible">
      <path
         d="m 4.0156,-31.891 h 8.2188 v 11.641 l 11.859,-11.641 h 9.5469 L 18.2813,-16.797 35.2193,0 H 24.9383 L 12.2353,-12.562 V 0 H 4.0165 Z"
         id="path26" />
    </symbol>
    <symbol
       id="d"
       overflow="visible">
      <path
         d="m 15.062,-19.031 c -1.6992,0 -2.9961,0.60938 -3.8906,1.8281 -0.88672,1.2188 -1.3281,2.9766 -1.3281,5.2656 0,2.293 0.44141,4.0469 1.3281,5.2656 0.89453,1.2188 2.1914,1.8281 3.8906,1.8281 1.6641,0 2.9375,-0.60938 3.8125,-1.8281 0.88281,-1.2188 1.3281,-2.9727 1.3281,-5.2656 0,-2.2891 -0.44531,-4.0469 -1.3281,-5.2656 -0.875,-1.2188 -2.1484,-1.8281 -3.8125,-1.8281 z m 0,-5.4688 c 4.1133,0 7.3281,1.1094 9.6406,3.3281 2.3125,2.2187 3.4688,5.2969 3.4688,9.2344 0,3.9297 -1.1562,7.0078 -3.4688,9.2344 -2.3125,2.2188 -5.5273,3.3281 -9.6406,3.3281 -4.1367,0 -7.3711,-1.1094 -9.7031,-3.3281 -2.3242,-2.2266 -3.4844,-5.3047 -3.4844,-9.2344 0,-3.9375 1.1602,-7.0156 3.4844,-9.2344 2.332,-2.2188 5.5664,-3.3281 9.7031,-3.3281 z"
         id="path29" />
    </symbol>
    <symbol
       id="o"
       overflow="visible">
      <path
         d="m 25.844,-19.953 c 0.96875,-1.4766 2.1172,-2.6016 3.4531,-3.375 1.332,-0.78125 2.7969,-1.1719 4.3906,-1.1719 2.75,0 4.8438,0.85156 6.2812,2.5469 1.4375,1.6875 2.1562,4.1523 2.1562,7.3906 V -4e-4 h -7.6875 v -12.469 c 0.0078,-0.1875 0.01953,-0.37891 0.03125,-0.57812 0.0078,-0.19531 0.01563,-0.48438 0.01563,-0.85938 0,-1.6953 -0.25,-2.9258 -0.75,-3.6875 -0.5,-0.75781 -1.3086,-1.1406 -2.4219,-1.1406 -1.4492,0 -2.5703,0.60156 -3.3594,1.7969 -0.79297,1.1992 -1.2031,2.9297 -1.2344,5.1875 v 11.75 h -7.6875 v -12.469 c 0,-2.6562 -0.23047,-4.3633 -0.6875,-5.125 -0.44922,-0.75781 -1.2578,-1.1406 -2.4219,-1.1406 -1.4688,0 -2.6055,0.60547 -3.4062,1.8125 -0.79297,1.1992 -1.1875,2.918 -1.1875,5.1562 V -5e-4 h -7.7031 v -23.922 h 7.7031 v 3.5 c 0.9375,-1.3516 2.0156,-2.3672 3.2344,-3.0469 1.2188,-0.6875 2.5547,-1.0312 4.0156,-1.0312 1.6562,0 3.1133,0.40234 4.375,1.2031 1.2695,0.79297 2.2344,1.9062 2.8906,3.3438 z"
         id="path32" />
    </symbol>
    <symbol
       id="n"
       overflow="visible">
      <path
         d="m 3.6719,-33.234 h 7.6562 v 18.094 l 8.7969,-8.7812 h 8.8906 l -11.688,10.969 12.594,12.953 H 20.656 L 11.3279,-9.968 V 8e-4 H 3.6717 Z"
         id="path35" />
    </symbol>
    <symbol
       id="m"
       overflow="visible">
      <path
         d="m 3.6719,-23.922 h 7.6562 V 0 H 3.6719 Z m 0,-9.3125 h 7.6562 v 6.2344 H 3.6719 Z"
         id="path38" />
    </symbol>
    <symbol
       id="l"
       overflow="visible">
      <path
         d="m 4.0156,-31.891 h 9.1875 l 11.594,21.875 V -31.891 H 32.594 V 0 H 23.4065 L 11.8125,-21.875 V 0 H 4.0156 Z"
         id="path41" />
    </symbol>
    <symbol
       id="k"
       overflow="visible">
      <path
         d="M 27.734,-14.562 V 0 h -7.7031 v -11.156 c 0,-2.0625 -0.04687,-3.4844 -0.14062,-4.2656 -0.08594,-0.78125 -0.24219,-1.3594 -0.46875,-1.7344 -0.30469,-0.5 -0.71094,-0.88281 -1.2188,-1.1562 -0.51172,-0.28125 -1.0938,-0.42188 -1.75,-0.42188 -1.5938,0 -2.8516,0.61719 -3.7656,1.8438 -0.90625,1.2305 -1.3594,2.9375 -1.3594,5.125 v 11.766 h -7.6562 v -23.922 h 7.6562 v 3.5 c 1.1445,-1.3945 2.3633,-2.4219 3.6562,-3.0781 1.3008,-0.66406 2.7383,-1 4.3125,-1 2.7578,0 4.8516,0.85156 6.2812,2.5469 1.4375,1.6875 2.1562,4.1523 2.1562,7.3906 z"
         id="path44" />
    </symbol>
    <symbol
       id="j"
       overflow="visible">
      <path
         d="M 11.328,-3.4531 V 9.0939 H 3.6718 v -33.016 h 7.6562 v 3.5 c 1.0508,-1.3945 2.2188,-2.4219 3.5,-3.0781 1.2812,-0.66406 2.7539,-1 4.4219,-1 2.9453,0 5.3672,1.1719 7.2656,3.5156 1.8945,2.3438 2.8438,5.3594 2.8438,9.0469 0,3.6875 -0.94922,6.7031 -2.8438,9.0469 -1.8984,2.3438 -4.3203,3.5156 -7.2656,3.5156 -1.668,0 -3.1406,-0.33594 -4.4219,-1 -1.2813,-0.66406 -2.4492,-1.6914 -3.5,-3.0781 z m 5.0781,-15.5 c -1.6367,0 -2.8906,0.60547 -3.7656,1.8125 -0.875,1.1992 -1.3125,2.9336 -1.3125,5.2031 0,2.2617 0.4375,3.9961 1.3125,5.2031 0.875,1.1992 2.1289,1.7969 3.7656,1.7969 1.6328,0 2.8828,-0.59766 3.75,-1.7969 0.86328,-1.1953 1.2969,-2.9297 1.2969,-5.2031 0,-2.2812 -0.43359,-4.0195 -1.2969,-5.2188 -0.86719,-1.1953 -2.1172,-1.7969 -3.75,-1.7969 z"
         id="path47" />
    </symbol>
  </defs>
  <g
     id="g116">
    <path
       d="m 677.90392,343.05867 c 3.05178,0 5.98033,-1.12802 8.13812,-3.13549 2.15781,-2.00748 3.37034,-4.73194 3.37034,-7.57108 v -42.82626 c 0,-2.83914 -1.21251,-5.56361 -3.37034,-7.57107 -2.15783,-2.00745 -5.08634,-3.13549 -8.13812,-3.13549 H 617.71536 L 576.97279,136.74623 c 9.67947,-4.04843 16.82075,-12.01143 19.36445,-21.59912 2.54317,-9.5833 0.20551,-19.725778 -6.33991,-27.503026 -6.54035,-7.771866 -16.56428,-12.311939 -27.17836,-12.311939 -10.61409,0 -20.63763,4.540685 -27.17837,12.311939 -6.54549,7.776635 -8.88308,17.919726 -6.33991,27.503026 2.54317,9.58806 9.68459,17.55142 19.36445,21.59912 L 507.92257,278.81928 H 390.19173 c -6.3553,0 -11.50846,4.79409 -11.50846,10.70656 v 42.82626 c 0,2.83914 1.2125,5.56362 3.37033,7.57108 2.15783,2.00744 5.08635,3.13549 8.13813,3.13549 h 11.50845 v 149.8919 H 275.10717 v -23.33909 c 6.70476,-2.22255 12.51541,-6.31405 16.63136,-11.71506 4.12042,-5.40589 6.35017,-11.8537 6.38621,-18.47892 v -21.41312 c -0.0308,-5.75475 -1.72114,-11.39485 -4.90142,-16.33272 -3.18029,-4.9326 -7.7271,-8.98103 -13.1683,-11.71983 l 2.18871,-4.06752 h 15.88035 v -21.41313 h -23.01691 c -4.34138,-0.0191 -8.31792,2.26563 -10.24464,5.88861 l -1.26388,2.24643 -24.28086,-45.07281 c -1.92659,-3.62297 -5.90325,-5.9077 -10.24463,-5.88861 H 113.9886 c -4.34139,-0.0191 -8.31792,2.26564 -10.24464,5.88861 l -24.280865,45.07281 -1.263879,-2.24643 c -1.926581,-3.62298 -5.903245,-5.90769 -10.24463,-5.88861 H 44.937673 v 21.41313 h 15.880354 l 2.188712,4.06752 c -5.440803,2.7388 -9.987762,6.78723 -13.168305,11.71983 -3.180279,4.93751 -4.870509,10.57747 -4.901418,16.33272 v 21.41312 c 0.03591,6.62474 2.265785,13.07303 6.386206,18.47892 4.115293,5.40113 9.926077,9.49251 16.631364,11.71506 v 23.33909 H -1.0961512 V 514.3637 H 689.41122 v -21.41313 h -23.01691 v -149.8919 z m -556.77253,0 h 100.81145 l 23.01691,42.82625 H 98.111845 Z m -7.1363,149.8919 H 90.97818 v -21.41313 h 23.01691 z m 92.06765,0 H 137.012 v -21.41313 h 69.05074 z m 46.03382,0 h -23.01691 v -21.41313 h 23.01691 z m 11.50846,-42.82626 H 79.469724 c -6.355299,0 -11.508457,-4.7941 -11.508457,-10.70656 v -21.41313 c 0,-5.91247 5.153158,-10.70656 11.508457,-10.70656 H 263.60502 c 3.05179,0 5.98032,1.12801 8.13813,3.13549 2.1578,2.00747 3.37033,4.73193 3.37033,7.57107 v 21.41313 c 0,2.83913 -1.2125,5.56362 -3.37033,7.57107 -2.15783,2.00745 -5.08634,3.13549 -8.13813,3.13549 z M 562.82488,96.807679 c 4.65481,0 8.85231,2.60971 10.62987,6.610291 1.78282,4.00059 0.80149,8.60343 -2.49174,11.66734 -3.29324,3.06392 -8.24085,3.97672 -12.54119,2.31813 -4.30022,-1.65383 -7.1054,-5.55885 -7.1054,-9.8892 0,-5.91247 5.15317,-10.706561 11.50846,-10.706561 z m 6.56088,96.359081 h -13.12175 l 6.56087,-22.69914 z m -19.21978,21.41313 h 25.3186 l 6.09843,21.41313 h -37.51493 z m -12.31511,42.82626 h 49.94933 l 6.09844,21.41313 H 531.75298 Z M 505.2826,492.95057 h -34.52536 v -85.65251 h 34.52536 z m 138.10148,0 H 528.29951 v -96.35908 c 0,-2.83913 -1.2125,-5.56362 -3.37033,-7.57107 -2.15782,-2.00746 -5.08635,-3.1355 -8.13812,-3.1355 h -57.54228 c -6.3553,0 -11.50845,4.7941 -11.50845,10.70657 v 96.35908 H 424.72342 V 343.05867 H 643.38408 Z M 401.70649,321.64554 V 300.2324 h 264.6945 v 21.41314 z"
       id="path52"
       style="stroke-width:1.2686" />
    <path
       d="m 562.81936,471.53744 h 46.03382 c 3.05179,0 5.98032,-1.12801 8.13813,-3.13549 2.15779,-2.00747 3.37033,-4.73194 3.37033,-7.57108 v -64.23938 c 0,-2.83913 -1.2125,-5.56362 -3.37033,-7.57107 -2.15783,-2.00746 -5.08634,-3.1355 -8.13813,-3.1355 h -46.03382 c -6.3553,0 -11.50845,4.7941 -11.50845,10.70657 v 64.23938 c 0,2.83914 1.2125,5.56363 3.37032,7.57108 2.15783,2.00744 5.08635,3.13549 8.13813,3.13549 z m 11.50846,-64.23938 h 23.01691 v 42.82625 h -23.01691 z"
       id="path54"
       style="stroke-width:1.2686" />
    <path
       d="m 505.86894,160.49645 16.27625,-15.14215 c -10.78915,-10.03738 -16.85101,-23.64988 -16.85101,-37.84617 0,-14.196297 6.06253,-27.80893 16.85101,-37.846181 L 505.86894,54.519807 C 490.75932,68.57661 482.272,87.637965 482.272,107.51669 c 0,19.87872 8.48746,38.94497 23.59694,52.99688 z"
       id="path56"
       style="stroke-width:1.2686" />
    <path
       d="m 619.76978,160.49645 c 15.10962,-14.05681 23.59694,-33.11816 23.59694,-52.99689 0,-19.878725 -8.48746,-38.944975 -23.59694,-52.996883 l -16.27099,15.137247 h -0.006 c 10.78914,10.037373 16.851,23.654778 16.851,37.851066 0,14.19141 -6.06252,27.80893 -16.851,37.84619 z"
       id="path58"
       style="stroke-width:1.2686" />
    <path
       d="m 489.58613,175.64471 c -19.39998,-18.08125 -30.29159,-42.58766 -30.29159,-68.13536 0,-25.5477 10.89188,-50.052885 30.29159,-68.135354 L 473.30987,24.231854 c -23.70479,22.105692 -37.01776,52.051034 -37.01776,83.277496 0,31.22646 13.31166,61.17058 37.01776,83.27749 z"
       id="path60"
       style="stroke-width:1.2686" />
    <path
       d="m 636.0526,175.64471 16.27624,15.14213 c 23.7048,-22.10568 37.01777,-52.05103 37.01777,-83.27749 0,-31.226462 -13.31166,-61.170581 -37.01777,-83.277496 L 636.0526,39.373996 c 19.39997,18.081246 30.29157,42.587654 30.29157,68.135354 0,25.5477 -10.89187,50.05289 -30.29157,68.13536 z"
       id="path62"
       style="stroke-width:1.2686" />
    <path
       d="m 90.972655,418.00462 h 23.016915 v 21.41313 H 90.972655 Z"
       id="path64"
       style="stroke-width:1.2686" />
    <path
       d="m 229.07412,418.00462 h 23.01693 v 21.41313 h -23.01693 z"
       id="path66"
       style="stroke-width:1.2686" />
    <path
       d="m 212.2126,251.67966 c -10.78915,-10.03737 -25.42119,-15.67685 -40.68075,-15.67685 -15.25956,0 -29.89173,5.64009 -40.68075,15.67685 l 16.27099,15.13725 c 6.57625,-5.84077 15.32005,-9.0958 24.40976,-9.0958 9.08971,0 17.8335,3.25503 24.40977,9.0958 z"
       id="path68"
       style="stroke-width:1.2686" />
    <path
       d="m 228.49542,236.53141 16.27098,-15.13725 c -19.44074,-18.04331 -45.77734,-28.17111 -73.2385,-28.17111 -27.46114,0 -53.79644,10.12817 -73.238497,28.17111 l 16.270987,15.13725 c 15.12014,-14.03356 35.60914,-21.91481 56.96619,-21.91481 21.35707,0 41.84607,7.88174 56.96621,21.91481 z"
       id="path70"
       style="stroke-width:1.2686" />
    <path
       d="m 155.26218,285.09639 16.27099,15.13724 16.27098,-15.13724 c -4.31561,-4.01491 -10.16756,-6.271 -16.27098,-6.271 -6.10343,0 -11.95538,2.25609 -16.27099,6.271 z"
       id="path72"
       style="stroke-width:1.2686" />
  </g>
</svg>
