<?xml version="1.0" encoding="UTF-8" standalone="no"?>
<svg
   width="700pt"
   height="550pt"
   version="1.1"
   viewBox="0 0 700 550"
   id="svg4442"
   sodipodi:docname="noun-satellite-4621156.svg"
   inkscape:version="1.1.1 (3bf5ae0d25, 2021-09-20)"
   xmlns:inkscape="http://www.inkscape.org/namespaces/inkscape"
   xmlns:sodipodi="http://sodipodi.sourceforge.net/DTD/sodipodi-0.dtd"
   xmlns="http://www.w3.org/2000/svg"
   xmlns:svg="http://www.w3.org/2000/svg">
  <defs
     id="defs4446" />
  <sodipodi:namedview
     id="namedview4444"
     pagecolor="#ffffff"
     bordercolor="#666666"
     borderopacity="1.0"
     inkscape:pageshadow="2"
     inkscape:pageopacity="0.0"
     inkscape:pagecheckerboard="0"
     inkscape:document-units="pt"
     showgrid="false"
     inkscape:zoom="0.77035714"
     inkscape:cx="466.66667"
     inkscape:cy="384.23737"
     inkscape:window-width="1920"
     inkscape:window-height="992"
     inkscape:window-x="-8"
     inkscape:window-y="-8"
     inkscape:window-maximized="1"
     inkscape:current-layer="svg4442" />
  <path
     d="m 213.15,50.312 c -1.8398,0 -3.6055,0.73828 -4.9102,2.0547 -63.461,64.254 -63.461,168.63 0,232.88 1.3047,1.3281 3.0742,2.0781 4.9219,2.082 1.8516,0.004 3.625,-0.73828 4.9336,-2.0586 1.3008,-1.3281 2.0273,-3.1211 2.0234,-4.9922 -0.008,-1.8672 -0.74609,-3.6562 -2.0547,-4.9727 -58.145,-58.871 -58.113,-154.11 0.0312,-212.98 1.3008,-1.3242 2.0273,-3.1211 2.0234,-4.9883 -0.008,-1.8672 -0.74609,-3.6602 -2.0547,-4.9766 -1.3047,-1.3164 -3.0703,-2.0547 -4.9141,-2.0547 z m 273.7,0 h 0.004 c -1.8438,0 -3.6094,0.73828 -4.9141,2.0547 -1.3086,1.3203 -2.043,3.1094 -2.0469,4.9805 -0.004,1.8672 0.72266,3.6602 2.0273,4.9844 58.145,58.871 58.168,154.11 0.0234,212.98 h -0.004 c -1.3086,1.3164 -2.043,3.1094 -2.0469,4.9766 -0.004,1.8672 0.72266,3.6641 2.0273,4.9883 1.3086,1.3164 3.0781,2.0586 4.9258,2.0547 1.8477,-0.004 3.6133,-0.75391 4.918,-2.0781 63.461,-64.254 63.461,-168.63 0,-232.88 -1.3047,-1.3164 -3.0703,-2.0547 -4.9102,-2.0547 z M 243.84,82.207 c -1.5625,0.17578 -3.0195,0.88672 -4.1328,2.0117 -46.09,46.664 -46.09,122.5 0,169.17 1.3008,1.3242 3.0664,2.0742 4.9141,2.082 1.8477,0.004 3.6211,-0.73047 4.9297,-2.0508 1.3008,-1.3242 2.0273,-3.1211 2.0234,-4.9883 -0.008,-1.8711 -0.74609,-3.6602 -2.0586,-4.9766 -40.77,-41.281 -40.738,-107.98 0.0352,-149.26 1.3047,-1.3281 2.0352,-3.125 2.0273,-4.9961 -0.008,-1.8711 -0.74609,-3.6641 -2.0625,-4.9805 -1.4922,-1.5078 -3.5781,-2.2461 -5.6758,-2.0117 z m 210.78,0 c -1.5625,0.17578 -3.0195,0.88672 -4.1328,2.0117 -1.3164,1.3164 -2.0547,3.1094 -2.0625,4.9805 -0.008,1.8711 0.72266,3.668 2.0273,4.9961 40.773,41.281 40.805,107.98 0.0312,149.27 l 0.004,-0.004 c -1.3125,1.3164 -2.0508,3.1055 -2.0586,4.9766 -0.004,1.8672 0.72266,3.6641 2.0234,4.9883 1.3086,1.3203 3.0859,2.0625 4.9336,2.0547 1.8516,-0.008 3.6211,-0.75781 4.9219,-2.0859 46.09,-46.664 46.09,-122.5 0,-169.169997 -1.4961,-1.5117 -3.5898,-2.25 -5.6875,-2.0117 z m -179.14,31.84 c -1.6289,0.14062 -3.1523,0.85547 -4.3086,2.0234 -28.715,29.074 -28.75,76.426 -0.0312,105.5 l -0.004,-0.004 c 1.3086,1.3359 3.0859,2.0859 4.9375,2.0859 1.8555,0 3.6328,-0.75 4.9414,-2.0859 1.3047,-1.3242 2.0352,-3.1172 2.0312,-4.9922 -0.004,-1.8711 -0.74219,-3.6641 -2.0547,-4.9805 -23.398,-23.691 -23.398,-61.895 0,-85.586 2.7031,-2.75 2.7031,-7.1953 0,-9.9414 -1.4531,-1.4648 -3.4688,-2.207 -5.5117,-2.0234 z m 147.85,0 c -1.6211,0.14453 -3.1445,0.85938 -4.2969,2.0234 -2.707,2.7461 -2.707,7.1914 0,9.9414 23.398,23.691 23.398,61.895 0,85.586 -1.3125,1.3164 -2.0547,3.1094 -2.0625,4.9805 -0.004,1.8711 0.72266,3.668 2.0273,4.9922 1.3086,1.3359 3.0859,2.0859 4.9414,2.0859 1.8516,0 3.6289,-0.75 4.9375,-2.0859 28.715,-29.074 28.684,-76.426 -0.0312,-105.5 l -0.004,0.004 c -1.4531,-1.4648 -3.4688,-2.207 -5.5117,-2.0234 z m -73.336,28.723 c -12.824,0 -23.363,10.539 -23.363,23.363 0,10.395 6.9219,19.285 16.375,22.281 v 7.0664 H 302.33 v -0.004 c -3.8594,0.004 -6.9844,3.1289 -6.9883,6.9883 -0.008,1.8594 0.72656,3.6406 2.0352,4.9609 1.3125,1.3164 3.0938,2.0586 4.9531,2.0586 h 4.3633 l -45.906,286.19 h -66.355 c -1.8594,0.008 -3.6406,0.75 -4.9492,2.0703 -1.3086,1.3203 -2.0391,3.1055 -2.0312,4.9648 0.0117,3.8477 3.1289,6.9648 6.9805,6.9766 h 311.12 c 1.8594,0.008 3.6445,-0.72266 4.9609,-2.0312 1.3203,-1.3086 2.0664,-3.0898 2.0703,-4.9453 0.008,-1.8711 -0.73047,-3.6641 -2.0508,-4.9844 -1.3203,-1.3203 -3.1133,-2.0586 -4.9805,-2.0508 h -66.348 l -45.859,-286.19 h 4.3516 c 1.8594,0 3.6406,-0.74219 4.9492,-2.0586 1.3125,-1.3203 2.0469,-3.1016 2.0391,-4.9609 -0.004,-3.8594 -3.1289,-6.9844 -6.9883,-6.9883 h -40.676 v -7.0781 c 9.4453,-3.0039 16.375,-11.887 16.375,-22.27 0,-12.824 -10.57,-23.363 -23.395,-23.363 z m 0,13.977 c 5.2578,0 9.3828,4.1289 9.3828,9.3828 0,5.2578 -4.1289,9.3828 -9.3828,9.3828 -5.2578,0 -9.3398,-4.1289 -9.3398,-9.3828 0,-5.2578 4.082,-9.3828 9.3398,-9.3828 z m -14.469,52.742 h 28.973 l -14.48,11.125 z m -15.586,5.6875 18.582,14.262 -23.801,18.266 z m 60.145,0.0117 5.2188,32.527 -23.801,-18.277 z m -30.078,23.074 35.863,27.531 -35.852,27.508 -35.863,-27.52 z m -40.438,41.617 28.961,22.234 -37.09,28.461 z m 80.895,0 8.125,50.695 -37.09,-28.461 z m -40.445,31.051 47.445,36.434 -47.445,36.434 -47.457,-36.434 z m -53.363,49.547 41.867,32.145 -53.617,41.168 z m 106.72,0 11.758,73.305 -53.617,-41.156 z m -53.352,40.973 68.336,52.469 6.6953,41.758 h -150.07 l 6.6953,-41.77 z"
     id="path4440" />
</svg>
