<?xml version="1.0" encoding="UTF-8" standalone="no"?>
<svg
   width="700pt"
   height="700pt"
   version="1.1"
   viewBox="0 0 700 700"
   id="svg48"
   sodipodi:docname="noun-electronics-1226115.svg"
   inkscape:version="1.1.1 (3bf5ae0d25, 2021-09-20)"
   xmlns:inkscape="http://www.inkscape.org/namespaces/inkscape"
   xmlns:sodipodi="http://sodipodi.sourceforge.net/DTD/sodipodi-0.dtd"
   xmlns="http://www.w3.org/2000/svg"
   xmlns:svg="http://www.w3.org/2000/svg">
  <defs
     id="defs52" />
  <sodipodi:namedview
     id="namedview50"
     pagecolor="#ffffff"
     bordercolor="#666666"
     borderopacity="1.0"
     inkscape:pageshadow="2"
     inkscape:pageopacity="0.0"
     inkscape:pagecheckerboard="0"
     inkscape:document-units="pt"
     showgrid="false"
     inkscape:zoom="0.449375"
     inkscape:cx="800"
     inkscape:cy="798.88734"
     inkscape:window-width="1920"
     inkscape:window-height="992"
     inkscape:window-x="-8"
     inkscape:window-y="-8"
     inkscape:window-maximized="1"
     inkscape:current-layer="svg48" />
  <g
     id="g46"
     transform="matrix(0.99048837,0,0,0.78370303,-238.79925,-123.15994)">
    <path
       d="M 387.2,704 H 492 c 28,0 50.398,-20 50.398,-45.602 v -372 C 542.398,261.597 520,240.796 492,240.796 L 387.2,240.8 c -28,0 -50.398,20 -50.398,45.602 v 372.8 c 0,24.797 22.398,44.797 50.398,44.797 z M 352.802,286.4 c 0,-16 15.199,-29.602 34.398,-29.602 H 492 c 19.199,0 34.398,12.801 34.398,29.602 v 372.8 c 0,16 -15.199,29.602 -34.398,29.602 H 387.2 c -19.199,0 -34.398,-12.801 -34.398,-29.602 z"
       id="path2" />
    <path
       d="M 855.2,751.2 H 344.8 c -4.8008,0 -8,3.1992 -8,8 v 191.2 c 0,4.8008 3.1992,8 8,8 h 510.4 c 4.8008,0 8,-3.1992 8,-8 V 759.2 c 0,-4 -3.1992,-8 -8,-8 z m -8,192 H 352.8 v -176 h 494.4 z"
       id="path4" />
    <path
       d="m 821.6,483.2 h -188 c -23.199,0 -41.602,19.199 -41.602,42.398 v 136.8 c 0,23.199 19.199,42.398 41.602,42.398 h 187.2 c 23.199,0 41.602,-19.199 41.602,-42.398 l -0.004,-136.8 c 0.80078,-23.203 -17.598,-42.402 -40.797,-42.402 z m 25.598,178.4 c 0,14.398 -12,26.398 -25.602,26.398 h -188 c -14.398,0 -25.602,-12 -25.602,-26.398 v -136 c 0,-14.398 12,-26.398 25.602,-26.398 h 187.2 c 14.398,0 25.602,12 25.602,26.398 l -0.004,136 z"
       id="path6" />
    <path
       d="m 775.2,592.8 c -20,0 -36.801,16.801 -36.801,36.801 0,20 16.801,36.801 36.801,36.801 20,0 36.801,-16.801 36.801,-36.801 0,-20 -16.801,-36.801 -36.801,-36.801 z m 0,57.598 c -11.199,0 -20.801,-9.6016 -20.801,-20.801 0,-11.199 9.6016,-20.801 20.801,-20.801 11.1994,0 20.801,9.6016 20.801,20.801 0,12.004 -9.6016,20.801 -20.801,20.801 z"
       id="path8" />
    <path
       d="m 710.4,595.2 h -69.602 c -4.8008,0 -8,3.1992 -8,8 0,4.8008 3.1992,8 8,8 H 710.4 c 4.8008,0 8,-3.1992 8,-8 0,-4.8008 -3.1992,-8 -8,-8 z"
       id="path10" />
    <path
       d="m 710.4,621.6 h -69.602 c -4.8008,0 -8,3.1992 -8,8 0,4.8008 3.1992,8 8,8 H 710.4 c 4.8008,0 8,-3.1992 8,-8 0,-4.8008 -3.1992,-8 -8,-8 z"
       id="path12" />
    <path
       d="m 710.4,648 h -69.602 c -4.8008,0 -8,3.1992 -8,8 0,4.8008 3.1992,8 8,8 H 710.4 c 4.8008,0 8,-3.1992 8,-8 0,-4.8008 -3.1992,-8 -8,-8 z"
       id="path14" />
    <path
       d="M 818.4,520.8 H 636.8 c -4.8008,0 -8,3.1992 -8,8 v 35.199 c 0,4.8008 3.1992,8 8,8 h 181.6 c 4.8008,0 8,-3.1992 8,-8 V 528.8 c -0.004,-4.8008 -4.0039,-8 -8.0039,-8 z m -173.6,16 h 62.398 v 19.199 H 644.8 Z m 165.6,19.199 H 723.201 V 536.8 H 810.4 Z"
       id="path16" />
    <path
       d="m 855.2,273.6 h -40 v -24.801 c 0,-4.8008 -3.1992,-8 -8,-8 h -30.398 c -4.8008,0 -8,3.1992 -8,8 V 273.6 h -52 v -24.801 c 0,-4.8008 -3.1992,-8 -8,-8 h -30.398 c -4.8008,0 -8,3.1992 -8,8 V 273.6 h -40 c -4.8008,0 -8,3.1992 -8,8 v 91.199 h -22.398 c -4.8008,0 -8,3.1992 -8,8 V 413.6 c 0,4.8008 3.1992,8 8,8 h 22.398 v 19.199 c 0,4.8008 3.1992,8 8,8 h 224 c 4.8008,0 8,-3.1992 8,-8 l -0.004,-159.2 c 0.80078,-4 -2.3984,-8 -7.1992,-8 z m -8,159.2 h -208 v -19.199 c 0,-4.8008 -3.1992,-8 -8,-8 H 608.802 V 388.8 H 631.2 c 4.8008,0 8,-3.1992 8,-8 v -91.199 h 40 c 4.8008,0 8,-3.1992 8,-8 V 256.8 h 14.398 v 24.801 c 0,4.8008 3.1992,8 8,8 h 68 c 4.8008,0 8,-3.1992 8,-8 V 256.8 h 14.398 v 24.801 c 0,4.8008 3.1992,8 8,8 h 40 l 0.004,143.2 z"
       id="path18" />
    <path
       d="m 782.4,312 c -2.3984,0 -4,1.6016 -4,4 v 32.801 c 0,2.3984 1.6016,4 4,4 h 18.398 v 16 c -3.1992,0.80078 -4.8008,3.1992 -5.6016,5.6016 h -39.199 v -26.398 c 3.1992,-0.80078 6.3984,-4 6.3984,-8 l 0.004,-4.0039 c 0,-4.8008 -3.1992,-8 -8,-8 h -4 c -4,0 -7.1992,2.3984 -8,6.3984 h -46.398 c -2.3984,0 -4,1.6016 -4,4 v 57.602 c -3.1992,0.80078 -4.8008,3.1992 -5.6016,5.6016 h -15.199 v -70.398 c 3.1992,-0.80078 6.3984,-4 6.3984,-8 v -4.8008 c 0,-4.8008 -3.1992,-8 -8,-8 l -5.5977,-0.004 c -4.8008,0 -8,3.1992 -8,8 v 4.8008 c 0,4 2.3984,6.3984 6.3984,8 v 74.398 c 0,2.3984 1.6016,4 4,4 h 19.199 c 0.80078,3.1992 4,6.3984 8,6.3984 h 4 c 4.8008,0 8,-3.1992 8,-8 v -4.8008 c 0,-4 -2.3984,-6.3984 -6.3984,-8 v -53.602 h 42.398 c 0.80078,3.1992 3.1992,5.6016 5.6016,5.6016 v 30.398 c 0,2.3984 1.6016,4 4,4 h 43.199 c 0.80078,3.1992 4,6.3984 8,6.3984 h 4 c 4.8008,0 8,-3.1992 8,-8 v -3.9922 c 0,-4 -2.3984,-6.3984 -6.3984,-8 v -20 c 0,-2.3984 -1.6016,-4 -4,-4 h -18.398 v -24 h 24.801 c 0.80078,3.1992 4,6.3984 8,6.3984 h 4 c 4.8008,0 8,-3.1992 8,-8 v -4.8008 c 0,-4.8008 -3.1992,-8 -8,-8 h -4 c -4,0 -7.1992,2.3984 -8,6.3984 z"
       id="path20" />
    <path
       d="m 404.8,912 c 4.8008,0 8,-3.1992 8,-8 v -96.801 c 0,-4.8008 -3.1992,-8 -8,-8 -4.8008,0 -8,3.1992 -8,8 V 904 c 0,4 4,8 8,8 z"
       id="path22" />
    <path
       d="m 448,912 c 4.8008,0 8,-3.1992 8,-8 v -96.801 c 0,-4.8008 -3.1992,-8 -8,-8 -4.8008,0 -8,3.1992 -8,8 V 904 c 0,4 4,8 8,8 z"
       id="path24" />
    <path
       d="m 491.2,912 c 4.8008,0 8,-3.1992 8,-8 v -96.801 c 0,-4.8008 -3.1992,-8 -8,-8 -4.8008,0 -8,3.1992 -8,8 V 904 c 0,4 4,8 8,8 z"
       id="path26" />
    <path
       d="m 535.2,912 c 4.8008,0 8,-3.1992 8,-8 v -96.801 c 0,-4.8008 -3.1992,-8 -8,-8 -4.8008,0 -8,3.1992 -8,8 V 904 c 0,4 3.1992,8 8,8 z"
       id="path28" />
    <path
       d="m 578.4,912 c 4.8008,0 8,-3.1992 8,-8 v -96.801 c 0,-4.8008 -3.1992,-8 -8,-8 -4.8008,0 -8,3.1992 -8,8 V 904 c 0,4 3.2031,8 8,8 z"
       id="path30" />
    <path
       d="m 621.6,912 c 4.8008,0 8,-3.1992 8,-8 v -96.801 c 0,-4.8008 -3.1992,-8 -8,-8 -4.8008,0 -8,3.1992 -8,8 V 904 c 0,4 4,8 8,8 z"
       id="path32" />
    <path
       d="m 664.8,912 c 4.8008,0 8,-3.1992 8,-8 v -96.801 c 0,-4.8008 -3.1992,-8 -8,-8 -4.8008,0 -8,3.1992 -8,8 V 904 c 0,4 4,8 8,8 z"
       id="path34" />
    <path
       d="m 708,912 h 86.398 c 4.8008,0 8,-3.1992 8,-8 v -96.801 c 0,-4.8008 -3.1992,-8 -8,-8 H 708 c -4.8008,0 -8,3.1992 -8,8 V 904 c 0,4 4,8 8,8 z m 8,-16 v -36.801 h 12.801 c 1.6016,0 3.1992,-0.80078 4,-2.3984 l 4.8008,-12 10.398,36 c 0.80078,1.6016 1.6016,2.3984 4,3.1992 1.6016,0 3.1992,-0.80078 4,-2.3984 l 8.8008,-21.602 h 22.398 v 36.801 h -71.199 z m 71.199,-80.801 V 852 h -25.602 c -1.6016,0 -3.1992,0.80078 -4,2.3984 l -5.6016,13.602 -11.199,-36 c -0.80078,-1.6016 -1.6016,-2.3984 -4,-3.1992 -1.6016,0 -3.1992,0.80078 -4,2.3984 l -8,20 h -9.6016 v -36.801 h 72.004 z"
       id="path36" />
    <path
       d="m 391.2,424.8 h 96.801 c 4.8008,0 8,-3.1992 8,-8 0,-4.8008 -3.1992,-8 -8,-8 H 391.2 c -4.8008,0 -8,3.1992 -8,8 0,4.8008 4,8 8,8 z"
       id="path38" />
    <path
       d="m 441.6,583.2 c -6.3984,0 -9.6016,5.6016 -9.6016,16 0,11.199 3.1992,16 9.6016,16 6.3984,0 9.6016,-5.6016 9.6016,-16 -0.004,-10.398 -3.2031,-16 -9.6016,-16 z"
       id="path40" />
    <path
       d="m 391.2,395.2 h 96.801 c 4.8008,0 8,-3.1992 8,-8 0,-4.8008 -3.1992,-8 -8,-8 H 391.2 c -4.8008,0 -8,3.1992 -8,8 0,4.8008 4,8 8,8 z"
       id="path42" />
    <path
       d="m 391.2,346.4 h 96.801 c 3.1992,0 6.3984,-2.3984 6.3984,-6.3984 v -18.398 c 0,-3.1992 -2.3984,-6.3984 -6.3984,-6.3984 l -96.801,-0.004 c -3.1992,0 -6.3984,2.3984 -6.3984,6.3984 v 18.398 c 0.80078,3.2031 3.1992,6.4023 6.3984,6.4023 z m 6.4023,-18.398 h 84.801 v 6.3984 h -84.801 z"
       id="path44" />
  </g>
</svg>
