<?xml version="1.0" encoding="UTF-8" standalone="no"?>
<svg
   width="96pt"
   height="96pt"
   version="1.1"
   viewBox="0 0 96 96"
   id="svg97"
   sodipodi:docname="noun-experiment-2892447.svg"
   inkscape:version="1.1.1 (3bf5ae0d25, 2021-09-20)"
   xmlns:inkscape="http://www.inkscape.org/namespaces/inkscape"
   xmlns:sodipodi="http://sodipodi.sourceforge.net/DTD/sodipodi-0.dtd"
   xmlns="http://www.w3.org/2000/svg"
   xmlns:svg="http://www.w3.org/2000/svg">
  <sodipodi:namedview
     id="namedview99"
     pagecolor="#ffffff"
     bordercolor="#666666"
     borderopacity="1.0"
     inkscape:pageshadow="2"
     inkscape:pageopacity="0.0"
     inkscape:pagecheckerboard="0"
     inkscape:document-units="pt"
     showgrid="false"
     inkscape:zoom="3.0814286"
     inkscape:cx="166.64349"
     inkscape:cy="83.727399"
     inkscape:window-width="1920"
     inkscape:window-height="992"
     inkscape:window-x="-8"
     inkscape:window-y="-8"
     inkscape:window-maximized="1"
     inkscape:current-layer="g95" />
  <defs
     id="defs41">
    <symbol
       id="m"
       overflow="visible">
      <path
         d="m 29.312,-1.75 c -1.5117,0.78125 -3.0898,1.3711 -4.7344,1.7656 -1.6367,0.40625 -3.3398,0.60938 -5.1094,0.60938 -5.3125,0 -9.5273,-1.4844 -12.641,-4.4531 -3.1055,-2.9688 -4.6562,-7 -4.6562,-12.094 0,-5.094 1.5508,-9.125 4.6562,-12.094 3.1133,-2.9688 7.3281,-4.4531 12.641,-4.4531 1.7695,0 3.4727,0.19922 5.1094,0.59375 1.6445,0.39844 3.2227,0.99219 4.7344,1.7812 v 6.5938 c -1.5312,-1.0391 -3.0391,-1.8008 -4.5156,-2.2812 -1.4805,-0.48828 -3.0391,-0.73438 -4.6719,-0.73438 -2.9375,0 -5.2461,0.94531 -6.9219,2.8281 -1.6797,1.875 -2.5156,4.4648 -2.5156,7.7656 0,3.293 0.83594,5.8828 2.5156,7.7656 1.6758,1.875 3.9844,2.8125 6.9219,2.8125 1.6328,0 3.1914,-0.23828 4.6719,-0.71875 1.4766,-0.48828 2.9844,-1.2539 4.5156,-2.2969 z"
         id="path2" />
    </symbol>
    <symbol
       id="h"
       overflow="visible">
      <path
         d="m 21.453,-17.406 c -0.67969,-0.3125 -1.3516,-0.53906 -2.0156,-0.6875 -0.65625,-0.15625 -1.3203,-0.23438 -1.9844,-0.23438 -1.9688,0 -3.4844,0.63281 -4.5469,1.8906 -1.0547,1.2617 -1.5781,3.0703 -1.5781,5.4219 V 6.2e-4 H 3.6718 v -23.922 h 7.6562 v 3.9219 c 0.97656,-1.5625 2.1016,-2.7031 3.375,-3.4219 1.2812,-0.71875 2.8125,-1.0781 4.5938,-1.0781 0.25,0 0.52344,0.01172 0.82812,0.03125 0.30078,0.02344 0.73438,0.07031 1.2969,0.14062 z"
         id="path5" />
    </symbol>
    <symbol
       id="c"
       overflow="visible">
      <path
         d="m 27.562,-12.031 v 2.1875 H 9.671 c 0.1875,1.793 0.83203,3.1367 1.9375,4.0312 1.1133,0.89844 2.6719,1.3438 4.6719,1.3438 1.6016,0 3.25,-0.23438 4.9375,-0.70312 1.6875,-0.47656 3.4219,-1.2031 5.2031,-2.1719 v 5.8906 c -1.8047,0.6875 -3.6094,1.2031 -5.4219,1.5469 -1.8125,0.35156 -3.6211,0.53125 -5.4219,0.53125 -4.3359,0 -7.7031,-1.0977 -10.109,-3.2969 -2.3984,-2.207 -3.5938,-5.2969 -3.5938,-9.2656 0,-3.9062 1.1758,-6.9727 3.5312,-9.2031 2.3633,-2.2383 5.6094,-3.3594 9.7344,-3.3594 3.7578,0 6.7695,1.1367 9.0312,3.4062 2.2578,2.2617 3.3906,5.2812 3.3906,9.0625 z m -7.8594,-2.5312 c 0,-1.457 -0.42969,-2.6289 -1.2812,-3.5156 -0.84375,-0.89453 -1.9492,-1.3438 -3.3125,-1.3438 -1.4922,0 -2.6992,0.41797 -3.625,1.25 -0.91797,0.83594 -1.4922,2.0391 -1.7188,3.6094 z"
         id="path8" />
    </symbol>
    <symbol
       id="b"
       overflow="visible">
      <path
         d="m 14.391,-10.766 c -1.5938,0 -2.793,0.27344 -3.5938,0.8125 -0.80469,0.54297 -1.2031,1.3398 -1.2031,2.3906 0,0.96875 0.32031,1.7305 0.96875,2.2812 0.64453,0.54297 1.5469,0.8125 2.7031,0.8125 1.4375,0 2.6445,-0.51562 3.625,-1.5469 0.98828,-1.0312 1.4844,-2.3203 1.4844,-3.875 v -0.875 z m 11.688,-2.8906 V -6e-4 h -7.7031 v -3.5469 c -1.0312,1.4492 -2.1875,2.5078 -3.4688,3.1719 -1.2813,0.6641 -2.8398,1 -4.6719,1 -2.4805,0 -4.4961,-0.72266 -6.0469,-2.1719 -1.543,-1.4453 -2.3125,-3.3203 -2.3125,-5.625 0,-2.8125 0.96094,-4.8672 2.8906,-6.1719 1.9375,-1.3125 4.9688,-1.9688 9.0938,-1.9688 h 4.5156 v -0.60938 c 0,-1.207 -0.48047,-2.0938 -1.4375,-2.6562 -0.94922,-0.5625 -2.4375,-0.84375 -4.4688,-0.84375 -1.6367,0 -3.1562,0.16797 -4.5625,0.5 -1.4062,0.32422 -2.7188,0.8125 -3.9375,1.4688 v -5.8281 c 1.6445,-0.40625 3.2891,-0.70703 4.9375,-0.90625 1.6562,-0.20703 3.3047,-0.3125 4.9531,-0.3125 4.3203,0 7.4375,0.85547 9.3438,2.5625 1.9141,1.6992 2.875,4.4609 2.875,8.2812 z"
         id="path11" />
    </symbol>
    <symbol
       id="g"
       overflow="visible">
      <path
         d="m 12.031,-30.719 v 6.7969 h 7.875 v 5.4688 h -7.875 v 10.141 c 0,1.1172 0.21875,1.8711 0.65625,2.2656 0.4375,0.38672 1.3125,0.57812 2.625,0.57812 h 3.9375 v 5.4688 h -6.5625 c -3.0234,0 -5.1641,-0.62891 -6.4219,-1.8906 -1.2617,-1.2578 -1.8906,-3.3984 -1.8906,-6.4219 v -10.141 h -3.7969 v -5.4688 h 3.7969 v -6.7969 z"
         id="path14" />
    </symbol>
    <symbol
       id="f"
       overflow="visible">
      <path
         d="m 19.953,-20.422 v -12.812 h 7.6875 V 0 H 19.953 v -3.4531 c -1.0547,1.4062 -2.2148,2.4375 -3.4844,3.0938 -1.2734,0.65625 -2.7422,0.98438 -4.4062,0.98438 -2.9492,0 -5.3711,-1.1719 -7.2656,-3.5156 -1.8867,-2.3438 -2.8281,-5.3594 -2.8281,-9.0469 0,-3.6875 0.94141,-6.7031 2.8281,-9.0469 1.8945,-2.3438 4.3164,-3.5156 7.2656,-3.5156 1.6562,0 3.1172,0.33594 4.3906,1 1.2812,0.65625 2.4453,1.6836 3.5,3.0781 z m -5.0469,15.484 c 1.6445,0 2.8945,-0.59766 3.75,-1.7969 0.86328,-1.1953 1.2969,-2.9297 1.2969,-5.2031 0,-2.2812 -0.43359,-4.0195 -1.2969,-5.2188 -0.85547,-1.1953 -2.1055,-1.7969 -3.75,-1.7969 -1.625,0 -2.8711,0.60156 -3.7344,1.7969 -0.85547,1.1992 -1.2812,2.9375 -1.2812,5.2188 0,2.2734 0.42578,4.0078 1.2812,5.2031 0.86328,1.1992 2.1094,1.7969 3.7344,1.7969 z"
         id="path17" />
    </symbol>
    <symbol
       id="e"
       overflow="visible">
      <path
         d="m 16.406,-4.9375 c 1.6328,0 2.8828,-0.59766 3.75,-1.7969 0.86328,-1.1953 1.2969,-2.9297 1.2969,-5.2031 0,-2.2812 -0.43359,-4.0195 -1.2969,-5.2188 -0.86719,-1.1953 -2.1172,-1.7969 -3.75,-1.7969 -1.6367,0 -2.8906,0.60547 -3.7656,1.8125 -0.875,1.1992 -1.3125,2.9336 -1.3125,5.2031 0,2.2617 0.4375,3.9961 1.3125,5.2031 0.875,1.1992 2.1289,1.7969 3.7656,1.7969 z m -5.0781,-15.484 c 1.0508,-1.3945 2.2188,-2.4219 3.5,-3.0781 1.2812,-0.66406 2.7539,-1 4.4219,-1 2.9453,0 5.3672,1.1719 7.2656,3.5156 1.8945,2.3438 2.8438,5.3594 2.8438,9.0469 0,3.6875 -0.94922,6.7031 -2.8438,9.0469 -1.8984,2.3438 -4.3203,3.5156 -7.2656,3.5156 -1.668,0 -3.1406,-0.33594 -4.4219,-1 -1.2813,-0.66406 -2.4492,-1.6914 -3.5,-3.0781 V 4e-4 H 3.6717 v -33.234 h 7.6562 z"
         id="path20" />
    </symbol>
    <symbol
       id="a"
       overflow="visible">
      <path
         d="m 0.53125,-23.922 h 7.6562 l 6.4219,16.234 5.4688,-16.234 h 7.6562 l -10.062,26.188 c -1.0117,2.6641 -2.1953,4.5234 -3.5469,5.5781 -1.3438,1.0625 -3.1211,1.5938 -5.3281,1.5938 H 4.37545 V 4.4223 h 2.3906 c 1.3008,0 2.2422,-0.21094 2.8281,-0.625 0.59375,-0.40625 1.0547,-1.1484 1.3906,-2.2188 l 0.20312,-0.65625 z"
         id="path23" />
    </symbol>
    <symbol
       id="d"
       overflow="visible">
      <path
         d="m 4.0156,-31.891 h 22.203 v 6.2188 h -13.984 v 5.9375 h 13.141 v 6.2188 h -13.141 v 7.2969 h 14.453 V -2e-4 H 4.0156 Z"
         id="path26" />
    </symbol>
    <symbol
       id="l"
       overflow="visible">
      <path
         d="m 3.4219,-9.3125 v -14.609 h 7.6875 v 2.3906 c 0,1.293 -0.01172,2.918 -0.03125,4.875 -0.01172,1.9609 -0.01563,3.2656 -0.01563,3.9219 0,1.9297 0.04687,3.3125 0.14062,4.1562 0.10156,0.84375 0.28125,1.4609 0.53125,1.8438 0.3125,0.5 0.71875,0.88672 1.2188,1.1562 0.50781,0.27344 1.0938,0.40625 1.75,0.40625 1.5938,0 2.8438,-0.60938 3.75,-1.8281 0.91406,-1.2266 1.375,-2.9297 1.375,-5.1094 v -11.812 h 7.6406 v 23.922 h -7.6406 v -3.4531 c -1.1562,1.3867 -2.3828,2.4141 -3.6719,3.0781 -1.2812,0.66406 -2.6992,1 -4.25,1 -2.7734,0 -4.8828,-0.84766 -6.3281,-2.5469 -1.4375,-1.6953 -2.1562,-4.1602 -2.1562,-7.3906 z"
         id="path29" />
    </symbol>
    <symbol
       id="k"
       overflow="visible">
      <path
         d="m 23,-23.172 v 6.2344 c -1.0312,-0.71875 -2.0742,-1.2422 -3.125,-1.5781 -1.043,-0.34375 -2.125,-0.51562 -3.25,-0.51562 -2.1367,0 -3.8047,0.625 -5,1.875 -1.1875,1.2422 -1.7812,2.9805 -1.7812,5.2188 0,2.2305 0.59375,3.9688 1.7812,5.2188 1.1953,1.25 2.8633,1.875 5,1.875 1.1953,0 2.332,-0.17578 3.4062,-0.53125 1.0703,-0.36328 2.0625,-0.89453 2.9688,-1.5938 v 6.2656 c -1.1875,0.4375 -2.4023,0.76562 -3.6406,0.98438 -1.2305,0.22656 -2.4648,0.34375 -3.7031,0.34375 -4.3125,0 -7.6875,-1.1094 -10.125,-3.3281 -2.4375,-2.2187 -3.6562,-5.2969 -3.6562,-9.2344 0,-3.9453 1.2188,-7.0234 3.6562,-9.2344 2.4375,-2.2188 5.8125,-3.3281 10.125,-3.3281 1.25,0 2.4844,0.10938 3.7031,0.32812 1.2187,0.21874 2.4297,0.55469 3.6406,1 z"
         id="path32" />
    </symbol>
    <symbol
       id="j"
       overflow="visible">
      <path
         d="m 3.6719,-33.234 h 7.6562 V 0 H 3.6719 Z"
         id="path35" />
    </symbol>
    <symbol
       id="i"
       overflow="visible">
      <path
         d="M 11.328,-3.4531 V 9.0939 H 3.6718 v -33.016 h 7.6562 v 3.5 c 1.0508,-1.3945 2.2188,-2.4219 3.5,-3.0781 1.2812,-0.66406 2.7539,-1 4.4219,-1 2.9453,0 5.3672,1.1719 7.2656,3.5156 1.8945,2.3438 2.8438,5.3594 2.8438,9.0469 0,3.6875 -0.94922,6.7031 -2.8438,9.0469 -1.8984,2.3438 -4.3203,3.5156 -7.2656,3.5156 -1.668,0 -3.1406,-0.33594 -4.4219,-1 -1.2813,-0.66406 -2.4492,-1.6914 -3.5,-3.0781 z m 5.0781,-15.5 c -1.6367,0 -2.8906,0.60547 -3.7656,1.8125 -0.875,1.1992 -1.3125,2.9336 -1.3125,5.2031 0,2.2617 0.4375,3.9961 1.3125,5.2031 0.875,1.1992 2.1289,1.7969 3.7656,1.7969 1.6328,0 2.8828,-0.59766 3.75,-1.7969 0.86328,-1.1953 1.2969,-2.9297 1.2969,-5.2031 0,-2.2812 -0.43359,-4.0195 -1.2969,-5.2188 -0.86719,-1.1953 -2.1172,-1.7969 -3.75,-1.7969 z"
         id="path38" />
    </symbol>
  </defs>
  <g
     id="g95">
    <path
       d="m 91.335701,79.048315 v -10.48187 c 1.816063,-1.522677 2.96715,-3.723904 2.96715,-6.178482 0,-2.454578 -1.151103,-4.654559 -2.96715,-6.178474 V 37.45064 c 0,-5.347253 -4.658766,-9.697665 -10.385032,-9.697665 H 62.181319 L 54.76616,22.24359 c 0.614625,-1.776294 0.963001,-3.666273 0.963001,-5.636201 v -6.171672 c 0,-2.6737088 -2.329298,-4.8488328 -5.192515,-4.8488328 -2.863217,0 -5.192515,2.175124 -5.192515,4.8488328 v 4.848833 c 0,5.347253 -4.658766,9.697665 -10.38503,9.697665 H 33.88218 c 2.473077,-2.032318 4.044141,-5.000989 4.044141,-8.312286 0,-6.111191 -5.324252,-11.0830448 -11.868602,-11.0830448 -6.544349,0 -11.868606,4.9718538 -11.868606,11.0830448 0,3.46092 1.70874,6.55277 4.37782,8.588095 C 11.0185,26.592076 5.28766,32.788473 5.28766,40.221399 V 55.460591 H 2.3205089 V 91.48049 H 94.302194 v -6.92691 c 0,-2.253652 -1.176263,-4.240847 -2.96715,-5.505581 z M 88.36855,77.766828 c -0.47951,-0.09153 -0.976242,-0.139773 -1.483579,-0.139773 H 48.473086 c 0.594752,-2.725004 2.894244,-4.918017 5.917682,-5.440033 L 78.81636,67.962803 c 1.63127,1.676071 3.97513,2.737354 6.584698,2.737354 1.04115,0 2.037335,-0.177504 2.967152,-0.48489 z M 39.410557,55.461414 V 34.517625 c 4.007007,-0.598676 7.557586,-2.31066 10.321446,-4.769673 l 5.997884,6.814334 v 5.045473 h 3.53413 l 2.96715,5.541527 h 7.768173 l 2.967151,-5.541527 h 3.533457 c 0.817289,0 1.483571,0.622189 1.483571,1.385388 V 55.461571 H 55.729887 c -2.453915,0 -4.450729,1.86464 -4.450729,4.156139 0,2.2915 1.996814,4.156147 4.450729,4.156147 h 20.904 c 0.103988,0.576409 0.270237,1.133034 0.494096,1.663722 l -23.276027,4.025676 c -4.432928,0.76628 -7.746978,4.098033 -8.376189,8.165669 h -1.614705 c -0.507329,0 -1.004069,0.04826 -1.483571,0.139781 V 55.461696 Z M 62.581461,41.607601 h 7.067586 l -1.483571,2.770768 H 64.06504 Z m -6.850893,19.395331 c -0.817289,0 -1.483579,-0.620951 -1.483579,-1.38538 0,-0.764428 0.66629,-1.385379 1.483579,-1.385379 h 21.975564 c -0.523879,0.842359 -0.890141,1.776294 -1.069632,2.770759 z m 29.671511,6.926906 c -3.272519,0 -5.934301,-2.485615 -5.934301,-5.541526 0,-3.055912 2.661782,-5.541519 5.934301,-5.541519 3.272512,0 5.934302,2.485607 5.934302,5.541519 0,3.055911 -2.66179,5.541526 -5.934302,5.541526 z m 2.967152,-30.478376 v 17.109056 c -0.929888,-0.307378 -1.925941,-0.484883 -2.967152,-0.484883 -1.621337,0 -3.139422,0.414378 -4.45073,1.125011 V 42.992665 c 0,-2.291499 -1.996806,-4.156139 -4.450729,-4.156139 H 58.697718 V 36.44924 l 3.806941,-5.925 H 80.95186 c 4.090426,0 7.417881,3.107215 7.417881,6.926907 z M 59.723507,29.46755 57.023224,33.669452 51.731359,27.656581 c 0.704684,-0.859061 1.326597,-1.776294 1.857093,-2.746059 z M 48.311838,15.285372 v -4.848833 c 0,-1.1454168 0.998766,-2.0780728 2.225364,-2.0780728 1.226606,0 2.225365,0.932656 2.225365,2.0780728 v 6.171672 c 0,8.001802 -6.435663,14.582436 -14.969529,15.307273 l -1.349786,0.115031 v 23.43114 H 24.57465 V 37.983694 l 9.85857,-10.22949 h 0.526546 c 7.361584,0 13.35218,-5.594092 13.35218,-12.468425 z M 21.607485,27.753797 h 8.834481 l -4.514314,4.683695 -4.385104,-4.681162 c 0.02187,0 0.04236,-0.0025 0.06493,-0.0025 z M 17.156756,16.670752 c 0,-4.584104 3.992429,-8.3122858 8.90145,-8.3122858 4.90903,0 8.901459,3.7281818 8.901459,8.3122858 0,4.584103 -3.992429,8.312286 -8.901459,8.312286 -4.909021,0 -8.90145,-3.728183 -8.90145,-8.312286 z M 8.2553027,40.222221 c 0,-5.717104 4.1480773,-10.536967 9.7783733,-12.001515 l 5.894627,6.291055 -2.320818,2.407718 V 55.461414 H 15.67318 V 36.066083 H 12.706029 V 55.461414 H 8.2553027 Z M 5.2881516,88.71055 V 58.232173 H 39.410387 v 20.817122 c -1.790803,1.266021 -2.967151,3.253191 -2.967151,5.505589 v 4.156146 z m 86.0473794,0 H 39.410387 v -4.156148 c 0,-2.291491 1.996806,-4.156139 4.450729,-4.156139 h 43.023693 c 2.453916,0 4.450722,1.864648 4.450722,4.156139 z"
       id="path43"
       style="stroke-width:0.163844" />
    <path
       d="m 8.255472,61.001952 h 2.967151 v 2.770759 H 8.255472 Z"
       id="path45"
       style="stroke-width:0.163844" />
    <path
       d="m 14.189774,61.001952 h 22.253632 v 2.770759 H 14.189774 Z"
       id="path47"
       style="stroke-width:0.163844" />
    <path
       d="m 8.255472,66.543479 h 28.187934 v 2.770759 H 8.255472 Z"
       id="path49"
       style="stroke-width:0.163844" />
    <path
       d="m 8.255472,72.084997 h 28.187934 v 2.770759 H 8.255472 Z"
       id="path51"
       style="stroke-width:0.163844" />
    <path
       d="m 8.255472,77.626524 h 19.286483 v 2.770759 H 8.255472 Z"
       id="path53"
       style="stroke-width:0.163844" />
    <path
       d="m 30.509106,77.626524 h 2.96715 v 2.770759 h -2.96715 z"
       id="path55"
       style="stroke-width:0.163844" />
    <path
       d="M 85.401399,83.168042 H 88.36855 V 85.9388 h -2.967151 z"
       id="path57"
       style="stroke-width:0.163844" />
    <path
       d="m 79.467098,83.168042 h 2.96715 V 85.9388 h -2.96715 z"
       id="path59"
       style="stroke-width:0.163844" />
    <path
       d="m 73.532797,83.168042 h 2.967151 V 85.9388 h -2.967151 z"
       id="path61"
       style="stroke-width:0.163844" />
  </g>
</svg>
