<?xml version="1.0" encoding="UTF-8" standalone="no"?>
<svg
   width="700pt"
   height="600pt"
   version="1.1"
   viewBox="0 0 700 600"
   id="svg4113"
   sodipodi:docname="noun-ai-5258829.svg"
   inkscape:version="1.1.1 (3bf5ae0d25, 2021-09-20)"
   xmlns:inkscape="http://www.inkscape.org/namespaces/inkscape"
   xmlns:sodipodi="http://sodipodi.sourceforge.net/DTD/sodipodi-0.dtd"
   xmlns="http://www.w3.org/2000/svg"
   xmlns:svg="http://www.w3.org/2000/svg">
  <sodipodi:namedview
     id="namedview4115"
     pagecolor="#ffffff"
     bordercolor="#666666"
     borderopacity="1.0"
     inkscape:pageshadow="2"
     inkscape:pageopacity="0.0"
     inkscape:pagecheckerboard="0"
     inkscape:document-units="pt"
     showgrid="false"
     inkscape:zoom="0.77035714"
     inkscape:cx="466.66667"
     inkscape:cy="425.77654"
     inkscape:window-width="1920"
     inkscape:window-height="992"
     inkscape:window-x="-8"
     inkscape:window-y="-8"
     inkscape:window-maximized="1"
     inkscape:current-layer="g4111" />
  <defs
     id="defs4031">
    <symbol
       id="s"
       overflow="visible">
      <path
         d="m 18.766,-1.125 c -0.96875,0.5 -1.9805,0.875 -3.0312,1.125 -1.043,0.25781 -2.1367,0.39062 -3.2812,0.39062 -3.3984,0 -6.0898,-0.94531 -8.0781,-2.8438 -1.9922,-1.9062 -2.9844,-4.4844 -2.9844,-7.7344 0,-3.2578 0.99219,-5.8359 2.9844,-7.7344 1.9883,-1.9062 4.6797,-2.8594 8.0781,-2.8594 1.1445,0 2.2383,0.13281 3.2812,0.39062 1.0508,0.25 2.0625,0.625 3.0312,1.125 v 4.2188 c -0.98047,-0.65625 -1.9453,-1.1406 -2.8906,-1.4531 -0.94922,-0.3125 -1.9492,-0.46875 -3,-0.46875 -1.875,0 -3.3516,0.60547 -4.4219,1.8125 -1.0742,1.1992 -1.6094,2.8555 -1.6094,4.9688 0,2.1055 0.53516,3.7617 1.6094,4.9688 1.0703,1.1992 2.5469,1.7969 4.4219,1.7969 1.0508,0 2.0508,-0.14844 3,-0.45312 0.94531,-0.3125 1.9102,-0.80078 2.8906,-1.4688 z"
         id="path3974" />
    </symbol>
    <symbol
       id="c"
       overflow="visible">
      <path
         d="m 13.734,-11.141 c -0.4375,-0.19531 -0.87109,-0.34375 -1.2969,-0.4375 -0.41797,-0.10156 -0.83984,-0.15625 -1.2656,-0.15625 -1.2617,0 -2.2305,0.40625 -2.9062,1.2188 -0.67969,0.80469 -1.0156,1.9531 -1.0156,3.4531 v 7.0625 H 2.3591 v -15.312 h 4.8906 v 2.5156 c 0.625,-1 1.3438,-1.7266 2.1562,-2.1875 0.82031,-0.46875 1.8008,-0.70312 2.9375,-0.70312 0.16406,0 0.34375,0.01172 0.53125,0.03125 0.19531,0.01172 0.47656,0.03906 0.84375,0.07813 z"
         id="path3977" />
    </symbol>
    <symbol
       id="a"
       overflow="visible">
      <path
         d="m 17.641,-7.7031 v 1.4062 H 6.188 c 0.125,1.1484 0.53906,2.0078 1.25,2.5781 0.70703,0.57422 1.7031,0.85938 2.9844,0.85938 1.0312,0 2.082,-0.14844 3.1562,-0.45312 1.082,-0.3125 2.1914,-0.77344 3.3281,-1.3906 v 3.7656 c -1.1562,0.4375 -2.3125,0.76562 -3.4688,0.98438 -1.1562,0.22656 -2.3125,0.34375 -3.4688,0.34375 -2.7734,0 -4.9297,-0.70312 -6.4688,-2.1094 -1.5312,-1.4062 -2.2969,-3.3789 -2.2969,-5.9219 0,-2.5 0.75391,-4.4609 2.2656,-5.8906 1.5078,-1.4375 3.582,-2.1562 6.2188,-2.1562 2.4062,0 4.332,0.73047 5.7812,2.1875 1.4453,1.4492 2.1719,3.3828 2.1719,5.7969 z m -5.0312,-1.625 c 0,-0.92578 -0.27344,-1.6719 -0.8125,-2.2344 -0.54297,-0.57031 -1.25,-0.85938 -2.125,-0.85938 -0.94922,0 -1.7188,0.26562 -2.3125,0.79688 -0.5937,0.53126 -0.96484,1.2969 -1.1094,2.2969 z"
         id="path3980" />
    </symbol>
    <symbol
       id="f"
       overflow="visible">
      <path
         d="m 9.2188,-6.8906 c -1.0234,0 -1.793,0.17188 -2.3125,0.51562 -0.51172,0.34375 -0.76562,0.85547 -0.76562,1.5312 0,0.625 0.20703,1.1172 0.625,1.4688 0.41406,0.34375 0.98828,0.51562 1.7188,0.51562 0.92578,0 1.7031,-0.32812 2.3281,-0.98438 0.63281,-0.66406 0.95312,-1.4922 0.95312,-2.4844 v -0.5625 z m 7.4688,-1.8438 V 0 h -4.9219 v -2.2656 c -0.65625,0.92969 -1.3984,1.6055 -2.2188,2.0312 -0.82422,0.41406 -1.8242,0.625 -3,0.625 -1.5859,0 -2.8711,-0.45703 -3.8594,-1.375 -0.99219,-0.92578 -1.4844,-2.1289 -1.4844,-3.6094 0,-1.7891 0.61328,-3.1016 1.8438,-3.9375 1.2383,-0.84375 3.1797,-1.2656 5.8281,-1.2656 h 2.8906 v -0.39062 c 0,-0.76953 -0.30859,-1.332 -0.92188,-1.6875 -0.61719,-0.36328 -1.5703,-0.54688 -2.8594,-0.54688 -1.0547,0 -2.0312,0.10547 -2.9375,0.3125 -0.89844,0.21094 -1.7305,0.52344 -2.5,0.9375 v -3.7344 c 1.0391,-0.25 2.0859,-0.44141 3.1406,-0.57812 1.0625,-0.13281 2.125,-0.20312 3.1875,-0.20312 2.7578,0 4.75,0.54688 5.9688,1.6406 1.2266,1.0859 1.8438,2.8555 1.8438,5.3125 z"
         id="path3983" />
    </symbol>
    <symbol
       id="b"
       overflow="visible">
      <path
         d="m 7.7031,-19.656 v 4.3438 H 12.75 v 3.5 H 7.7031 v 6.5 c 0,0.71094 0.14062,1.1875 0.42188,1.4375 0.28126,0.25 0.83594,0.375 1.6719,0.375 h 2.5156 v 3.5 h -4.1875 c -1.9375,0 -3.3125,-0.39844 -4.125,-1.2031 -0.80469,-0.8125 -1.2031,-2.1797 -1.2031,-4.1094 v -6.5 h -2.4219 v -3.5 h 2.4219 v -4.3438 z"
         id="path3986" />
    </symbol>
    <symbol
       id="i"
       overflow="visible">
      <path
         d="m 12.766,-13.078 v -8.2031 h 4.9219 V -1e-4 H 12.766 v -2.2188 c -0.66797,0.90625 -1.4062,1.5703 -2.2188,1.9844 -0.8126,0.4141 -1.7578,0.625 -2.8281,0.625 -1.8867,0 -3.4336,-0.75 -4.6406,-2.25 -1.2109,-1.5 -1.8125,-3.4258 -1.8125,-5.7812 0,-2.3633 0.60156,-4.2969 1.8125,-5.7969 1.207,-1.5 2.7539,-2.25 4.6406,-2.25 1.0625,0 2,0.21484 2.8125,0.64062 0.82031,0.42969 1.5664,1.0859 2.2344,1.9688 z m -3.2188,9.9219 c 1.0391,0 1.8359,-0.37891 2.3906,-1.1406 0.55078,-0.76953 0.82812,-1.8828 0.82812,-3.3438 0,-1.457 -0.27734,-2.5664 -0.82812,-3.3281 -0.55469,-0.76953 -1.3516,-1.1562 -2.3906,-1.1562 -1.043,0 -1.8398,0.38672 -2.3906,1.1562 -0.55469,0.76172 -0.82812,1.8711 -0.82812,3.3281 0,1.4609 0.27344,2.5742 0.82812,3.3438 0.55078,0.76172 1.3477,1.1406 2.3906,1.1406 z"
         id="path3989" />
    </symbol>
    <symbol
       id="h"
       overflow="visible">
      <path
         d="m 10.5,-3.1562 c 1.0508,0 1.8516,-0.37891 2.4062,-1.1406 0.55078,-0.76953 0.82812,-1.8828 0.82812,-3.3438 0,-1.457 -0.27734,-2.5664 -0.82812,-3.3281 -0.55469,-0.76953 -1.3555,-1.1562 -2.4062,-1.1562 -1.0547,0 -1.8594,0.38672 -2.4219,1.1562 -0.55469,0.77344 -0.82812,1.8828 -0.82812,3.3281 0,1.4492 0.27344,2.5586 0.82812,3.3281 0.5625,0.77344 1.3672,1.1562 2.4219,1.1562 z m -3.25,-9.9219 c 0.67578,-0.88281 1.4219,-1.5391 2.2344,-1.9688 0.82031,-0.42578 1.7656,-0.64062 2.8281,-0.64062 1.8945,0 3.4453,0.75 4.6562,2.25 1.207,1.5 1.8125,3.4336 1.8125,5.7969 0,2.3555 -0.60547,4.2812 -1.8125,5.7812 -1.2109,1.5 -2.7617,2.25 -4.6562,2.25 -1.0625,0 -2.0078,-0.21094 -2.8281,-0.625 C 8.6719,-0.6602 7.9258,-1.32032 7.25,-2.21882 V -2e-5 H 2.3594 v -21.281 H 7.25 Z"
         id="path3992" />
    </symbol>
    <symbol
       id="g"
       overflow="visible">
      <path
         d="m 0.34375,-15.312 h 4.8906 l 4.125,10.391 3.5,-10.391 h 4.8906 l -6.4375,16.766 c -0.64844,1.6953 -1.4023,2.8828 -2.2656,3.5625 -0.86719,0.6875 -2,1.0312 -3.4062,1.0312 H 2.79685 V 2.8289 h 1.5312 c 0.83203,0 1.4375,-0.13672 1.8125,-0.40625 C 6.52336,2.16093 6.82024,1.69218 7.03117,1.01645 L 7.17179,0.59457 Z"
         id="path3995" />
    </symbol>
    <symbol
       id="e"
       overflow="visible">
      <path
         d="m 16.547,-12.766 c 0.61328,-0.94531 1.3477,-1.6719 2.2031,-2.1719 0.85156,-0.5 1.7891,-0.75 2.8125,-0.75 1.7578,0 3.0977,0.54688 4.0156,1.6406 0.92578,1.0859 1.3906,2.6562 1.3906,4.7188 V -4e-4 h -4.9219 v -7.9844 -0.35938 c 0.0078,-0.13281 0.01563,-0.32031 0.01563,-0.5625 0,-1.082 -0.16406,-1.8633 -0.48438,-2.3438 -0.3125,-0.48828 -0.82422,-0.73438 -1.5312,-0.73438 -0.92969,0 -1.6484,0.38672 -2.1562,1.1562 -0.51172,0.76172 -0.77344,1.8672 -0.78125,3.3125 v 7.5156 h -4.9219 v -7.9844 c 0,-1.6953 -0.14844,-2.7852 -0.4375,-3.2656 -0.29297,-0.48828 -0.8125,-0.73438 -1.5625,-0.73438 -0.9375,0 -1.6641,0.38672 -2.1719,1.1562 -0.51172,0.76172 -0.76562,1.8594 -0.76562,3.2969 v 7.5312 h -4.9219 v -15.312 h 4.9219 v 2.2344 c 0.60156,-0.86328 1.2891,-1.5156 2.0625,-1.9531 0.78125,-0.4375 1.6406,-0.65625 2.5781,-0.65625 1.0625,0 2,0.25781 2.8125,0.76562 0.8125,0.51172 1.4258,1.2305 1.8438,2.1562 z"
         id="path3998" />
    </symbol>
    <symbol
       id="r"
       overflow="visible">
      <path
         d="M 7.25,-2.2188 V 5.8281 H 2.3594 v -21.141 H 7.25 v 2.2344 c 0.67578,-0.88281 1.4219,-1.5391 2.2344,-1.9688 0.82031,-0.42578 1.7656,-0.64062 2.8281,-0.64062 1.8945,0 3.4453,0.75 4.6562,2.25 1.207,1.5 1.8125,3.4336 1.8125,5.7969 0,2.3555 -0.60547,4.2812 -1.8125,5.7812 -1.2109,1.5 -2.7617,2.25 -4.6562,2.25 -1.0625,0 -2.0078,-0.21094 -2.8281,-0.625 C 8.6719,-0.6606 7.9258,-1.32072 7.25,-2.21922 Z m 3.25,-9.9062 c -1.0547,0 -1.8594,0.38672 -2.4219,1.1562 -0.55469,0.77344 -0.82812,1.8828 -0.82812,3.3281 0,1.4492 0.27344,2.5586 0.82812,3.3281 0.5625,0.77344 1.3672,1.1562 2.4219,1.1562 1.0508,0 1.8516,-0.37891 2.4062,-1.1406 0.55078,-0.76953 0.82812,-1.8828 0.82812,-3.3438 0,-1.457 -0.27734,-2.5664 -0.82812,-3.3281 -0.55469,-0.76953 -1.3555,-1.1562 -2.4062,-1.1562 z"
         id="path4001" />
    </symbol>
    <symbol
       id="q"
       overflow="visible">
      <path
         d="m 12.422,-21.281 v 3.2188 H 9.7189 c -0.6875,0 -1.1719,0.125 -1.4531,0.375 -0.27344,0.25 -0.40625,0.6875 -0.40625,1.3125 v 1.0625 h 4.1875 v 3.5 H 7.85955 V -2e-4 h -4.8906 v -11.812 h -2.4375 v -3.5 h 2.4375 v -1.0625 c 0,-1.6641 0.46094,-2.8984 1.3906,-3.7031 0.92578,-0.80078 2.3672,-1.2031 4.3281,-1.2031 z"
         id="path4004" />
    </symbol>
    <symbol
       id="d"
       overflow="visible">
      <path
         d="m 9.6406,-12.188 c -1.0859,0 -1.9141,0.39062 -2.4844,1.1719 -0.57422,0.78125 -0.85938,1.9062 -0.85938,3.375 0,1.4688 0.28516,2.5938 0.85938,3.375 0.57031,0.77344 1.3984,1.1562 2.4844,1.1562 1.0625,0 1.875,-0.38281 2.4375,-1.1562 0.57031,-0.78125 0.85938,-1.9062 0.85938,-3.375 0,-1.4688 -0.28906,-2.5938 -0.85938,-3.375 -0.5625,-0.78125 -1.375,-1.1719 -2.4375,-1.1719 z m 0,-3.5 c 2.6328,0 4.6914,0.71484 6.1719,2.1406 1.4766,1.418 2.2188,3.3867 2.2188,5.9062 0,2.5117 -0.74219,4.4805 -2.2188,5.9062 C 14.332,-0.317 12.2734,0.39 9.6406,0.39 6.9922,0.39 4.9258,-0.31703 3.4375,-1.735 1.9453,-3.1608 1.2031,-5.1295 1.2031,-7.6412 c 0,-2.5195 0.74219,-4.4883 2.2344,-5.9062 1.4883,-1.4258 3.5547,-2.1406 6.2031,-2.1406 z"
         id="path4007" />
    </symbol>
    <symbol
       id="p"
       overflow="visible">
      <path
         d="M 17.75,-9.3281 V 0 h -4.9219 v -7.1094 c 0,-1.3438 -0.03125,-2.2656 -0.09375,-2.7656 -0.0625,-0.5 -0.16797,-0.86719 -0.3125,-1.1094 -0.1875,-0.3125 -0.44922,-0.55469 -0.78125,-0.73438 -0.32422,-0.17578 -0.69531,-0.26562 -1.1094,-0.26562 -1.0234,0 -1.8242,0.39844 -2.4062,1.1875 -0.58594,0.78125 -0.875,1.8711 -0.875,3.2656 V -1e-4 H 2.3594 v -21.281 H 7.25 v 8.2031 c 0.73828,-0.88281 1.5195,-1.5391 2.3438,-1.9688 0.83203,-0.42578 1.75,-0.64062 2.75,-0.64062 1.7695,0 3.1133,0.54688 4.0312,1.6406 0.91406,1.0859 1.375,2.6562 1.375,4.7188 z"
         id="path4010" />
    </symbol>
    <symbol
       id="o"
       overflow="visible">
      <path
         d="m 2.5781,-20.406 h 5.875 l 7.4219,14 v -14 h 4.9844 V 0 h -5.875 L 7.5625,-14 V 0 H 2.5781 Z"
         id="path4013" />
    </symbol>
    <symbol
       id="n"
       overflow="visible">
      <path
         d="m 2.1875,-5.9688 v -9.3438 h 4.9219 v 1.5312 c 0,0.83594 -0.00781,1.875 -0.015625,3.125 -0.011719,1.25 -0.015625,2.0859 -0.015625,2.5 0,1.2422 0.03125,2.1328 0.09375,2.6719 0.070313,0.54297 0.17969,0.93359 0.32812,1.1719 0.20703,0.32422 0.47266,0.57422 0.79688,0.75 0.32031,0.16797 0.69141,0.25 1.1094,0.25 1.0195,0 1.8203,-0.39062 2.4062,-1.1719 0.58203,-0.78125 0.875,-1.8672 0.875,-3.2656 v -7.5625 h 4.8906 V -6e-4 H 12.6875 V -2.2194 C 11.94531,-1.32096 11.1641,-0.6608 10.3437,-0.235 9.51948,0.17906 8.6093,0.39 7.6093,0.39 5.8476,0.39 4.5038,-0.14906 3.5781,-1.235 2.64841,-2.317 2.1875,-3.8952 2.1875,-5.9694 Z"
         id="path4016" />
    </symbol>
    <symbol
       id="m"
       overflow="visible">
      <path
         d="M 17.75,-9.3281 V 0 h -4.9219 v -7.1406 c 0,-1.3203 -0.03125,-2.2344 -0.09375,-2.7344 -0.0625,-0.5 -0.16797,-0.86719 -0.3125,-1.1094 -0.1875,-0.3125 -0.44922,-0.55469 -0.78125,-0.73438 -0.32422,-0.17578 -0.69531,-0.26562 -1.1094,-0.26562 -1.0234,0 -1.8242,0.39844 -2.4062,1.1875 -0.58594,0.78125 -0.875,1.8711 -0.875,3.2656 V -1e-4 H 2.3594 v -15.312 H 7.25 v 2.2344 c 0.73828,-0.88281 1.5195,-1.5391 2.3438,-1.9688 0.83203,-0.42578 1.75,-0.64062 2.75,-0.64062 1.7695,0 3.1133,0.54688 4.0312,1.6406 0.91406,1.0859 1.375,2.6562 1.375,4.7188 z"
         id="path4019" />
    </symbol>
    <symbol
       id="l"
       overflow="visible">
      <path
         d="m 2.5781,-20.406 h 8.7344 c 2.5938,0 4.582,0.57812 5.9688,1.7344 1.3945,1.1484 2.0938,2.7891 2.0938,4.9219 0,2.1367 -0.69922,3.7812 -2.0938,4.9375 -1.3867,1.1562 -3.375,1.7344 -5.9688,1.7344 H 7.8281 V 3e-4 h -5.25 z m 5.25,3.8125 v 5.7031 H 10.75 c 1.0195,0 1.8047,-0.25 2.3594,-0.75 0.5625,-0.5 0.84375,-1.2031 0.84375,-2.1094 0,-0.91406 -0.28125,-1.6172 -0.84375,-2.1094 -0.55469,-0.48828 -1.3398,-0.73438 -2.3594,-0.73438 z"
         id="path4022" />
    </symbol>
    <symbol
       id="k"
       overflow="visible">
      <path
         d="M 2.3594,-15.312 H 7.25 v 15.031 c 0,2.0508 -0.49609,3.6172 -1.4844,4.7031 -0.98047,1.082 -2.4062,1.625 -4.2812,1.625 H -0.9375 V 2.8283 h 0.85938 c 0.92578,0 1.5625,-0.21094 1.9062,-0.625 0.35156,-0.41797 0.53125,-1.2461 0.53125,-2.4844 z m 0,-5.9688 H 7.25 v 4 H 2.3594 Z"
         id="path4025" />
    </symbol>
    <symbol
       id="j"
       overflow="visible">
      <path
         d="m 14.719,-14.828 v 3.9844 c -0.65625,-0.45703 -1.3242,-0.79688 -2,-1.0156 -0.66797,-0.21875 -1.3594,-0.32812 -2.0781,-0.32812 -1.3672,0 -2.4336,0.40234 -3.2031,1.2031 -0.76172,0.79297 -1.1406,1.9062 -1.1406,3.3438 0,1.4297 0.37891,2.543 1.1406,3.3438 0.76953,0.79297 1.8359,1.1875 3.2031,1.1875 0.75781,0 1.4844,-0.10938 2.1719,-0.32812 0.6875,-0.22656 1.3203,-0.56641 1.9062,-1.0156 v 4 c -0.76172,0.28125 -1.5391,0.48828 -2.3281,0.625 -0.78125,0.14453 -1.5742,0.21875 -2.375,0.21875 -2.7617,0 -4.9219,-0.70703 -6.4844,-2.125 -1.5547,-1.4141 -2.3281,-3.3828 -2.3281,-5.9062 0,-2.5312 0.77344,-4.5039 2.3281,-5.9219 1.5625,-1.4141 3.7227,-2.125 6.4844,-2.125 0.80078,0 1.5938,0.07422 2.375,0.21875 0.78125,0.13672 1.5547,0.35156 2.3281,0.64062 z"
         id="path4028" />
    </symbol>
  </defs>
  <g
     id="g4111">
    <path
       d="m 598.93,243.78 h -44.512 c -2.082,-11.941 -5.2422,-23.801 -9.4297,-35.355 l 38.672,-22.492 c 7.168,-4.1719 9.6445,-13.43 5.5234,-20.621 l -20.906,-36.477 c -2.0195,-3.5273 -5.2969,-6.0469 -9.2266,-7.1055 -3.9219,-1.0547 -8.0234,-0.50781 -11.531,1.543 l -38.551,22.418 c -7.7812,-9.3281 -16.383,-17.992 -25.656,-25.836 l 22.379,-39.043 c 4.125,-7.1992 1.6445,-16.449 -5.5273,-20.617 l -36.156,-21.031 c -3.5156,-2.0508 -7.6055,-2.5977 -11.535,-1.5352 -3.9258,1.0508 -7.1953,3.5742 -9.2188,7.0977 l -22.266,38.852 c -11.445,-4.207 -23.184,-7.3789 -35.02,-9.4766 v -44.957 c 0,-8.3516 -6.7969,-15.145 -15.148,-15.145 h -38.203 v 11.566 h 38.203 c 1.9766,0 3.582,1.6055 3.582,3.582 v 49.871 c 0,2.8555 2.0938,5.2891 4.918,5.7188 14.258,2.1523 28.426,5.9805 42.102,11.379 2.6758,1.0625 5.707,-0.01172 7.1406,-2.5 l 24.723,-43.137 c 0.47656,-0.83203 1.25,-1.4297 2.1797,-1.6758 0.92187,-0.25391 1.9023,-0.125 2.7266,0.35938 l 36.156,21.031 c 1.6953,0.98828 2.2773,3.1719 1.3047,4.8711 l -24.801,43.273 c -1.4102,2.4688 -0.82422,5.5898 1.3906,7.375 11.371,9.1641 21.742,19.613 30.828,31.059 1.7852,2.2461 4.9492,2.8516 7.4375,1.4023 l 42.828,-24.902 c 0.82812,-0.48047 1.7969,-0.61719 2.7188,-0.36328 0.92969,0.25 1.707,0.84375 2.1836,1.6758 l 20.91,36.473 c 0.97266,1.6992 0.38672,3.8906 -1.3086,4.8789 l -42.895,24.949 c -2.4609,1.4297 -3.5117,4.4375 -2.4805,7.0938 5.3633,13.789 9.168,28.066 11.309,42.438 0.42188,2.8359 2.8555,4.9297 5.7188,4.9297 h 49.434 c 1.9727,0 3.5781,1.6055 3.5781,3.5781 v 42.152 c 0,1.9766 -1.6055,3.5781 -3.5781,3.5781 h -49.434 c -2.8672,0 -5.2969,2.0938 -5.7188,4.9297 -2.1406,14.371 -5.9453,28.648 -11.309,42.438 -1.0312,2.6562 0.0234,5.6641 2.4805,7.0938 l 42.898,24.957 c 1.6953,0.98828 2.2773,3.1719 1.3047,4.8711 l -20.91,36.48 c -0.47656,0.82812 -1.25,1.4297 -2.1758,1.6758 -0.92578,0.24609 -1.9023,0.11719 -2.7266,-0.36328 l -42.824,-24.91 c -2.4805,-1.4414 -5.6484,-0.84766 -7.4375,1.3984 -9.0781,11.441 -19.453,21.887 -30.828,31.059 -2.2148,1.7852 -2.8008,4.9062 -1.3906,7.375 l 24.801,43.273 c 0.97656,1.6992 0.39062,3.8867 -1.3086,4.875 l -36.148,21.031 c -0.83203,0.48437 -1.8047,0.61719 -2.7266,0.35937 -0.92969,-0.25 -1.7031,-0.84766 -2.1797,-1.6758 l -24.723,-43.137 c -1.4297,-2.4961 -4.4609,-3.5664 -7.1406,-2.5 -13.676,5.3984 -27.844,9.2266 -42.102,11.379 -2.8281,0.42969 -4.918,2.8633 -4.918,5.7188 v 49.871 c 0,1.9766 -1.6055,3.582 -3.582,3.582 h -38.203 l 0.004,11.566 h 38.203 c 8.3516,0 15.148,-6.793 15.148,-15.145 v -44.957 c 11.832,-2.0977 23.574,-5.2695 35.02,-9.4766 l 22.266,38.852 c 2.0234,3.5234 5.293,6.0469 9.2188,7.0977 3.918,1.043 8.0195,0.50391 11.535,-1.5352 l 36.148,-21.031 c 7.1719,-4.168 9.6523,-13.418 5.5273,-20.617 l -22.379,-39.043 c 9.2773,-7.8477 17.879,-16.508 25.656,-25.836 l 38.551,22.426 c 3.5117,2.043 7.6094,2.5859 11.539,1.5352 3.9258,-1.0586 7.1953,-3.5742 9.2148,-7.0977 l 20.906,-36.48 c 4.125,-7.1992 1.6445,-16.449 -5.5273,-20.617 l -38.672,-22.5 c 4.1875,-11.555 7.3477,-23.414 9.4297,-35.355 h 44.512 c 8.3516,0 15.145,-6.793 15.145,-15.145 v -42.152 c 0.004,-8.3477 -6.7891,-15.145 -15.141,-15.145 z"
       id="path4033" />
    <path
       d="M 310.75,501.07 V 355.18 h 86.676 c 2.4766,8.0312 9.9648,13.883 18.797,13.883 10.84,0 19.66,-8.8203 19.66,-19.664 0,-10.8437 -8.8203,-19.664 -19.66,-19.664 -8.832,0 -16.32,5.8516 -18.797,13.879 l -86.676,0.004 V 285.79 h 124.07 c 2.4766,8.0312 9.9648,13.879 18.793,13.879 10.84,0 19.66,-8.8203 19.66,-19.664 0,-10.8437 -8.8203,-19.664 -19.66,-19.664 -8.8281,0 -16.316,5.8516 -18.793,13.879 l -124.07,0.004 V 216.4 h 79.738 c 2.4766,8.0312 9.9648,13.879 18.793,13.879 10.84,0 19.66,-8.8203 19.66,-19.664 0,-10.8437 -8.8203,-19.664 -19.66,-19.664 -8.8281,0 -16.316,5.8516 -18.793,13.879 l -79.738,0.004 V 58.943719 l 0.008,-3.5469 c 0.0508,-14.434 0.0937,-26.902 -7.7188,-34.746 -4.4531,-4.4648 -10.727,-6.6406 -19.184,-6.6406 -18.945,0 -35.883,11.164 -43,27.738 -4.3867,-0.87109 -8.8984,-1.3164 -13.492,-1.3164 -37.207,0 -67.48,29.867 -67.48,66.578001 0,2.5195 0.14453,5.0195 0.42578,7.4883 -42.805,8.0312 -74.386997,45.199 -74.386997,88.77 0,27.219 12.41,52.805 33.554997,69.895 -20.472997,16.586 -33.554997,41.738 -33.554997,69.848 0,42.668 30.136997,78.52 70.515997,87.945 -2.3789,7.0977 -3.6953,14.668 -3.6953,21.582 0,36.711 30.273,66.578 67.484,66.578 7.3125,0 13.777,-0.25391 21.156,-2.8633 6.5273,17.598 23.934,29.758 43.812,29.758 8.2852,0 14.383,-2.1016 18.648,-6.4219 7.2812,-7.375 7.1367,-18.895 6.9648,-32.23 -0.0273,-2.0391 -0.0586,-4.1406 -0.0586,-6.2812 z M 416.22,341.3 c 4.4648,0 8.0938,3.6289 8.0938,8.0977 0,4.4648 -3.6328,8.0977 -8.0938,8.0977 -4.4648,0 -8.0977,-3.6328 -8.0977,-8.0977 0,-4.4649 3.6328,-8.0977 8.0977,-8.0977 z m 37.391,-69.391 c 4.4648,0 8.0938,3.6328 8.0938,8.0977 0,4.4649 -3.6289,8.0977 -8.0938,8.0977 -4.4648,0 -8.0938,-3.6328 -8.0938,-8.0977 0,-4.4649 3.6289,-8.0977 8.0938,-8.0977 z m -44.332,-69.391 c 4.4648,0 8.0938,3.6328 8.0938,8.0977 0,4.4649 -3.6289,8.0977 -8.0938,8.0977 -4.4649,0 -8.0938,-3.6328 -8.0938,-8.0977 0,-4.4688 3.6289,-8.0977 8.0938,-8.0977 z m -113.67,328.95 c -1.9805,2.0039 -5.3828,2.9766 -10.418,2.9766 -16.836,0 -31.289,-11.445 -34.367,-27.207 -0.39453,-2.0195 -0.58984,-4.0938 -0.58984,-6.1602 0,-7.7461 2.6992,-15.016 7.8086,-21.023 l -8.8086,-7.4883 c -6.8125,8.0078 -10.562,18.133 -10.562,28.512 0,1.2617 0.0586,2.5195 0.16797,3.7773 -6.2773,2.4844 -11.648,2.6992 -18.605,2.6992 -30.836,0 -55.922,-24.68 -55.922,-55.016 0,-6.2773 1.332,-13.242 3.7109,-19.648 3.1328,0.32031 6.3125,0.48438 9.5312,0.48438 6.207,0 12.414,-0.61719 18.445,-1.8359 l -2.293,-11.34 c -5.2773,1.0664 -10.711,1.6094 -16.152,1.6094 -44.148,0 -80.062,-35.352 -80.062,-78.801 0,-43.449 35.914,-78.801 80.062,-78.801 v -11.566 c -3.7344,0 -7.418,0.22266 -11.039,0.65234 1.9922,-4.7344 3.3359,-10.613 2.5117,-17.289 -2.0234,-16.375 -14.672,-24.352 -17.188,-25.785 l -5.7188,10.051 c 1.0234,0.58203 10.055,6.0273 11.426,17.152 1.1523,9.3047 -4.2734,16.555 -6.4766,19.066 -7.7148,2.3008 -15.008,5.582 -21.723,9.6953 -20.016,-14.875 -31.855,-38.125 -31.855,-62.922 0,-38.043 27.664,-70.484 65.133,-77.43 2.9727,9.9766 8.3086,19.191 15.719,26.914 l 8.3477,-8.0078 c -9.8242,-10.246 -15.238,-23.645 -15.238,-37.738 0,-30.336 25.082,-55.016 55.918,-55.016 15.523,0 29.949,6.1094 40.621,17.207 l 8.3359,-8.0195 c -6.9375,-7.2109 -15.188,-12.676 -24.246,-16.18 5.625,-11.664 17.984,-19.43 31.777,-19.43 5.2227,0 8.8164,1.0625 10.988,3.2422 4.4258,4.4453 4.3906,14.684 4.3477,26.535 l -0.004,303.63 c -2.0352,0.46484 -4.0312,1.082 -5.9688,1.8516 -14.32,5.6797 -24.414,19.273 -25.715,34.629 l 11.527,0.97266 c 0.93359,-11.016 8.1758,-20.77 18.453,-24.848 0.5625,-0.22266 1.1289,-0.42578 1.7031,-0.61328 l -0.004,130.11 c 0,2.1914 0.0273,4.3438 0.0547,6.4336 0.13281,10.758 0.25392,20.027 -3.63279,23.969 z"
       id="path4035" />
    <path
       d="m 252.21,174 c 3.25,-10.219 3.2852,-20.773 0.67188,-30.598 0.21875,-15.484 5.7031,-18.277 12.031,-21.508 2.8945,-1.4727 6.2148,-2.1289 9.6758,-2.0547 l 0.36328,-11.555 c -5.4336,-0.1875 -10.707,0.96875 -15.289,3.3086 -5.7812,2.9453 -11.477,6.5508 -14.953,14.066 -6.8633,-9.9961 -16.941,-17.98 -29.305,-22.16 l -3.7031,10.957 c 23.555,7.9688 36.781,33.105 29.484,56.043 -6.6328,20.848 -28.52,33.742 -50.848,30.023 l -1.9023,11.406 c 3.2148,0.53516 6.418,0.79687 9.5898,0.79687 24.441,0 46.773,-15.449 54.184,-38.727 z"
       id="path4037" />
    <path
       d="m 202.92,377.38 1.8008,11.43 c 10.93,-1.7344 22.121,2.9922 28.527,12 6.4062,9.0117 7.1797,21.137 1.9727,30.895 l 10.203,5.4453 c 7.2539,-13.586 6.1758,-30.484 -2.75,-43.035 -8.9297,-12.559 -24.512,-19.117 -39.754,-16.734 z"
       id="path4039" />
    <path
       d="m 267.48,252 c -8.2227,-9.1719 -21.602,-12.883 -34.898,-9.6562 l 2.7109,11.238 c 9.0234,-2.1758 18.281,0.23047 23.578,6.1445 7.8516,8.7461 6.6875,23.895 -2.5938,33.754 l 8.4258,7.9297 c 13.516,-14.375 14.734,-36.078 2.7773,-49.41 z"
       id="path4041" />
    <path
       d="m 225.02,349.09 10.02,-5.7812 c -3.0938,-5.3594 -8.8672,-12.777 -18.809,-17.715 -3.6133,-1.793 -7.1875,-2.9258 -10.449,-3.6289 4.9688,-8.0977 7.2344,-17.82 6.1484,-27.707 l -11.5,1.2656 c 1.2852,11.684 -3.7578,23.023 -13.156,29.59 -10.387,7.2695 -24.211,7.4883 -35.215,0.55469 l -6.1602,9.793 c 7.2422,4.5586 15.398,6.8281 23.496,6.8281 8.6211,0 17.18,-2.5703 24.504,-7.6953 0.94531,-0.66016 1.8555,-1.3555 2.7344,-2.082 3.5625,0.0781 8.9648,0.72266 14.453,3.4414 7.7461,3.8438 12.055,9.8789 13.934,13.137 z"
       id="path4043" />
    <path
       d="m 336.3,188.64 c 8.8281,0 16.32,-5.8516 18.793,-13.883 h 83.223 c 19.75,16.859 34.707,39.246 42.496,64.766 l -88.328,0.004 c -2.4766,-8.0312 -9.9648,-13.883 -18.793,-13.883 -10.844,0 -19.664,8.8203 -19.664,19.664 0,10.8437 8.8203,19.664 19.664,19.664 8.8281,0 16.316,-5.8516 18.793,-13.883 H 483.8 c 1.9844,9.3281 3.0312,19 3.0312,28.914 0,9.914 -1.0469,19.586 -3.0273,28.914 h -114.83 c -2.4727,-8.0312 -9.9609,-13.883 -18.793,-13.883 -10.844,0 -19.664,8.8203 -19.664,19.664 0,10.8437 8.8203,19.664 19.664,19.664 8.8281,0 16.316,-5.8516 18.793,-13.879 h 111.84 c -6.7656,22.16 -18.938,41.961 -34.953,57.824 h -67.254 c -2.4727,-8.0312 -9.9648,-13.879 -18.793,-13.879 -10.84,0 -19.66,8.8203 -19.66,19.664 0,10.8437 8.8203,19.664 19.66,19.664 8.832,0 16.32,-5.8516 18.793,-13.879 l 53.988,-0.004 c -22.977,17.586 -51.613,28.035 -82.629,28.035 v 11.566 c 81.844,0 148.43,-67.055 148.43,-149.47 0,-82.415 -66.582,-149.47 -148.43,-149.47 V 142.1 c 26.688,0 51.609,7.7344 72.684,21.098 h -67.559 c -2.4766,-8.0234 -9.9648,-13.875 -18.793,-13.875 -10.84,0 -19.66,8.8203 -19.66,19.656 0,10.844 8.8203,19.664 19.66,19.664 z m 37.395,64.766 c -4.4648,0 -8.0977,-3.6289 -8.0977,-8.0977 0,-4.4688 3.6328,-8.0977 8.0977,-8.0977 4.4648,0 8.0938,3.6289 8.0938,8.0977 0,4.4688 -3.6328,8.0977 -8.0938,8.0977 z m -23.516,69.391 c -4.4648,0 -8.0977,-3.6289 -8.0977,-8.0977 0,-4.4648 3.6328,-8.0977 8.0977,-8.0977 4.4649,0 8.0938,3.6328 8.0938,8.0977 0,4.4688 -3.6289,8.0977 -8.0938,8.0977 z m 9.6328,69.391 c -4.4648,0 -8.0938,-3.6328 -8.0938,-8.0977 0,-4.4648 3.6328,-8.0977 8.0938,-8.0977 4.4648,0 8.0977,3.6328 8.0977,8.0977 0,4.4688 -3.6328,8.0977 -8.0977,8.0977 z m -23.512,-231.3 c 4.4648,0 8.0977,3.6328 8.0977,8.0938 0,4.4688 -3.6328,8.0977 -8.0977,8.0977 -4.4648,0 -8.0938,-3.6289 -8.0938,-8.0977 -0.004,-4.4609 3.6289,-8.0938 8.0938,-8.0938 z"
       id="path4045" />
  </g>
</svg>
