<?xml version="1.0" encoding="UTF-8" standalone="no"?>
<svg
   width="96pt"
   height="96pt"
   version="1.1"
   viewBox="0 0 96 96"
   id="svg1014"
   sodipodi:docname="notes.svg"
   inkscape:version="1.1.1 (3bf5ae0d25, 2021-09-20)"
   xmlns:inkscape="http://www.inkscape.org/namespaces/inkscape"
   xmlns:sodipodi="http://sodipodi.sourceforge.net/DTD/sodipodi-0.dtd"
   xmlns="http://www.w3.org/2000/svg"
   xmlns:svg="http://www.w3.org/2000/svg">
  <sodipodi:namedview
     id="namedview1016"
     pagecolor="#ffffff"
     bordercolor="#666666"
     borderopacity="1.0"
     inkscape:pageshadow="2"
     inkscape:pageopacity="0.0"
     inkscape:pagecheckerboard="0"
     inkscape:document-units="pt"
     showgrid="false"
     inkscape:zoom="4.4971991"
     inkscape:cx="70.821859"
     inkscape:cy="61.371532"
     inkscape:window-width="1920"
     inkscape:window-height="992"
     inkscape:window-x="-8"
     inkscape:window-y="-8"
     inkscape:window-maximized="1"
     inkscape:current-layer="g1012" />
  <defs
     id="defs966">
    <symbol
       id="o"
       overflow="visible">
      <path
         d="m 31.266,-1.875 c -1.6172,0.84375 -3.2969,1.4766 -5.0469,1.8906 -1.7422,0.42578 -3.5586,0.64062 -5.4531,0.64062 -5.668,0 -10.156,-1.582 -13.469,-4.75 -3.3125,-3.1641 -4.9688,-7.4609 -4.9688,-12.891 0,-5.4375 1.6562,-9.7383 4.9688,-12.906 3.3125,-3.1641 7.8008,-4.75 13.469,-4.75 1.8945,0 3.7109,0.21484 5.4531,0.64062 1.75,0.42969 3.4297,1.0586 5.0469,1.8906 v 7.0469 c -1.625,-1.1133 -3.2305,-1.9258 -4.8125,-2.4375 -1.5742,-0.51953 -3.2344,-0.78125 -4.9844,-0.78125 -3.1367,0 -5.6016,1.0078 -7.3906,3.0156 -1.793,2 -2.6875,4.7617 -2.6875,8.2812 0,3.5117 0.89453,6.2734 2.6875,8.2812 1.7891,2 4.2539,3 7.3906,3 1.75,0 3.4102,-0.25391 4.9844,-0.76562 1.582,-0.51953 3.1875,-1.332 4.8125,-2.4375 z"
         id="path921" />
    </symbol>
    <symbol
       id="b"
       overflow="visible">
      <path
         d="m 22.875,-18.578 c -0.71094,-0.33203 -1.418,-0.57812 -2.125,-0.73438 -0.71094,-0.15625 -1.418,-0.23438 -2.125,-0.23438 -2.1055,0 -3.7266,0.67188 -4.8594,2.0156 -1.125,1.3438 -1.6875,3.2656 -1.6875,5.7656 V 4.4e-4 H 3.9219 v -25.531 h 8.1562 v 4.2031 c 1.0508,-1.6758 2.2539,-2.8945 3.6094,-3.6562 1.3633,-0.76953 2.9922,-1.1562 4.8906,-1.1562 0.26953,0 0.56641,0.01172 0.89062,0.03125 0.32031,0.02344 0.78516,0.07422 1.3906,0.15625 z"
         id="path924" />
    </symbol>
    <symbol
       id="a"
       overflow="visible">
      <path
         d="m 29.391,-12.828 v 2.3281 H 10.329 c 0.19531,1.9062 0.88281,3.3398 2.0625,4.2969 1.1875,0.96094 2.8438,1.4375 4.9688,1.4375 1.7188,0 3.4766,-0.25391 5.2812,-0.76562 1.8008,-0.50781 3.6484,-1.2812 5.5469,-2.3125 v 6.2969 c -1.9297,0.73047 -3.8594,1.2773 -5.7969,1.6406 -1.9297,0.375 -3.8555,0.5625 -5.7812,0.5625 -4.6172,0 -8.2031,-1.1719 -10.766,-3.5156 -2.5629,-2.3437 -3.8438,-5.6328 -3.8438,-9.875 0,-4.1641 1.2539,-7.4414 3.7656,-9.8281 2.5195,-2.3828 5.9844,-3.5781 10.391,-3.5781 4.0078,0 7.2188,1.2109 9.625,3.625 2.4062,2.418 3.6094,5.6484 3.6094,9.6875 z m -8.375,-2.7188 c 0,-1.5391 -0.45312,-2.7852 -1.3594,-3.7344 -0.90625,-0.95703 -2.0898,-1.4375 -3.5469,-1.4375 -1.5859,0 -2.8711,0.44922 -3.8594,1.3438 -0.98047,0.88672 -1.5898,2.1641 -1.8281,3.8281 z"
         id="path927" />
    </symbol>
    <symbol
       id="d"
       overflow="visible">
      <path
         d="m 15.359,-11.484 c -1.6992,0 -2.9805,0.29297 -3.8438,0.875 -0.85547,0.57422 -1.2812,1.4219 -1.2812,2.5469 0,1.0312 0.34375,1.8398 1.0312,2.4219 0.69531,0.58594 1.6602,0.875 2.8906,0.875 1.5312,0 2.8164,-0.54688 3.8594,-1.6406 1.0508,-1.1016 1.5781,-2.4844 1.5781,-4.1406 v -0.9375 z m 12.469,-3.0781 V -1e-4 h -8.2344 v -3.7812 c -1.0938,1.5547 -2.3242,2.6836 -3.6875,3.3906 -1.3672,0.69531 -3.0273,1.0469 -4.9844,1.0469 -2.6484,0 -4.7969,-0.76953 -6.4531,-2.3125 -1.6484,-1.5391 -2.4688,-3.5391 -2.4688,-6 0,-2.9883 1.0312,-5.1797 3.0938,-6.5781 2.0625,-1.4062 5.2969,-2.1094 9.7031,-2.1094 h 4.7969 v -0.64062 c 0,-1.2891 -0.51172,-2.2344 -1.5312,-2.8281 -1.0117,-0.60156 -2.5938,-0.90625 -4.75,-0.90625 -1.75,0 -3.3828,0.17969 -4.8906,0.53125 -1.5,0.34375 -2.8984,0.86719 -4.1875,1.5625 v -6.2188 c 1.75,-0.42578 3.5039,-0.75 5.2656,-0.96875 1.7578,-0.21875 3.5234,-0.32812 5.2969,-0.32812 4.5938,0 7.9102,0.91406 9.9531,2.7344 2.0508,1.8125 3.0781,4.7617 3.0781,8.8438 z"
         id="path930" />
    </symbol>
    <symbol
       id="h"
       overflow="visible">
      <path
         d="m 12.828,-32.766 v 7.2344 h 8.4062 v 5.8438 H 12.828 v 10.828 c 0,1.1797 0.23438,1.9805 0.70312,2.4062 0.47656,0.41797 1.4141,0.625 2.8125,0.625 h 4.1875 V -5e-4 h -7 c -3.2188,0 -5.5,-0.67188 -6.8438,-2.0156 -1.3438,-1.34372 -2.0156,-3.625 -2.0156,-6.8438 v -10.828 h -4.0625 v -5.8438 h 4.0625 v -7.2344 z"
         id="path933" />
    </symbol>
    <symbol
       id="c"
       overflow="visible">
      <path
         d="m 21.281,-21.781 v -13.672 h 8.2031 V 0 H 21.281 v -3.6875 c -1.125,1.5 -2.3672,2.6016 -3.7188,3.2969 -1.3438,0.69531 -2.9062,1.0469 -4.6875,1.0469 -3.1484,0 -5.7305,-1.25 -7.75,-3.75 -2.0234,-2.5 -3.0312,-5.7109 -3.0312,-9.6406 0,-3.9375 1.0078,-7.1562 3.0312,-9.6562 2.0195,-2.5 4.6016,-3.75 7.75,-3.75 1.7578,0 3.3164,0.35547 4.6719,1.0625 1.3633,0.71094 2.6094,1.8086 3.7344,3.2969 z m -5.375,16.516 c 1.75,0 3.082,-0.63281 4,-1.9062 0.91406,-1.2812 1.375,-3.1328 1.375,-5.5625 0,-2.4375 -0.46094,-4.2891 -1.375,-5.5625 -0.91797,-1.2812 -2.25,-1.9219 -4,-1.9219 -1.7305,0 -3.0586,0.64062 -3.9844,1.9219 -0.91797,1.2734 -1.375,3.125 -1.375,5.5625 0,2.4297 0.45703,4.2812 1.375,5.5625 0.92578,1.2734 2.2539,1.9062 3.9844,1.9062 z"
         id="path936" />
    </symbol>
    <symbol
       id="g"
       overflow="visible">
      <path
         d="m 17.5,-5.2656 c 1.75,0 3.082,-0.63281 4,-1.9062 0.91406,-1.2812 1.375,-3.1328 1.375,-5.5625 0,-2.4375 -0.46094,-4.2891 -1.375,-5.5625 -0.91797,-1.2812 -2.25,-1.9219 -4,-1.9219 -1.75,0 -3.0938,0.64844 -4.0312,1.9375 -0.92969,1.2812 -1.3906,3.1328 -1.3906,5.5469 0,2.418 0.46094,4.2656 1.3906,5.5469 0.9375,1.2812 2.2812,1.9219 4.0312,1.9219 z m -5.4219,-16.516 c 1.125,-1.4883 2.3672,-2.5859 3.7344,-3.2969 1.3633,-0.70703 2.9375,-1.0625 4.7188,-1.0625 3.1445,0 5.7266,1.25 7.75,3.75 2.0195,2.5 3.0312,5.7188 3.0312,9.6562 0,3.9297 -1.0117,7.1406 -3.0312,9.6406 -2.0234,2.5 -4.6055,3.75 -7.75,3.75 -1.7812,0 -3.3555,-0.35156 -4.7188,-1.0469 -1.3672,-0.70703 -2.6094,-1.8047 -3.7344,-3.2969 V -5e-4 H 3.9219 v -35.453 h 8.1562 z"
         id="path939" />
    </symbol>
    <symbol
       id="f"
       overflow="visible">
      <path
         d="m 0.5625,-25.531 h 8.1719 l 6.8594,17.328 5.8281,-17.328 h 8.1562 L 18.8441,2.422 C 17.7699,5.254 16.516,7.2384 15.0785,8.3751 13.641,9.5079 11.7426,10.0782 9.391,10.0782 H 4.6722 V 4.7188 h 2.5469 c 1.3828,0 2.3906,-0.22656 3.0156,-0.67188 0.63281,-0.4375 1.1289,-1.2266 1.4844,-2.3594 L 11.93785,0.9844 Z"
         id="path942" />
    </symbol>
    <symbol
       id="e"
       overflow="visible">
      <path
         d="M 24.938,-6.2031 H 11.219 L 9.0471,0 H 0.2346 l 12.594,-34.031 h 10.469 L 35.8916,0 h -8.8125 z m -11.531,-6.3125 h 9.3125 l -4.6406,-13.531 z"
         id="path945" />
    </symbol>
    <symbol
       id="n"
       overflow="visible">
      <path
         d="M 29.578,-15.547 V 0 h -8.2031 v -11.891 c 0,-2.207 -0.05469,-3.7266 -0.15625,-4.5625 -0.09375,-0.83203 -0.26172,-1.4453 -0.5,-1.8438 -0.32422,-0.53125 -0.76172,-0.94141 -1.3125,-1.2344 -0.54297,-0.30078 -1.1641,-0.45312 -1.8594,-0.45312 -1.6992,0 -3.0391,0.65625 -4.0156,1.9688 -0.96875,1.3125 -1.4531,3.1328 -1.4531,5.4531 v 12.562 h -8.1562 v -25.531 h 8.1562 v 3.75 c 1.2266,-1.4883 2.5352,-2.5859 3.9219,-3.2969 1.3828,-0.70703 2.9102,-1.0625 4.5781,-1.0625 2.9453,0 5.1797,0.90625 6.7031,2.7188 1.5312,1.8047 2.2969,4.4297 2.2969,7.875 z"
         id="path948" />
    </symbol>
    <symbol
       id="m"
       overflow="visible">
      <path
         d="m 3.9219,-25.531 h 8.1562 v 25.078 c 0,3.4141 -0.82422,6.0234 -2.4688,7.8281 -1.6367,1.8008 -4.0117,2.7031 -7.125,2.7031 H -1.5469 V 4.7188 h 1.4062 c 1.5508,0 2.6133,-0.35156 3.1875,-1.0469 0.58203,-0.69922 0.875,-2.0742 0.875,-4.125 z m 0,-9.9219 h 8.1562 v 6.6406 H 3.9219 Z"
         id="path951" />
    </symbol>
    <symbol
       id="l"
       overflow="visible">
      <path
         d="m 23.859,-24.719 v 6.1875 c -1.75,-0.72656 -3.4375,-1.2734 -5.0625,-1.6406 -1.625,-0.36328 -3.1562,-0.54688 -4.5938,-0.54688 -1.5547,0 -2.7109,0.19922 -3.4688,0.59375 -0.75,0.38672 -1.125,0.98047 -1.125,1.7812 0,0.65625 0.28516,1.1641 0.85938,1.5156 0.57031,0.34375 1.5938,0.60156 3.0625,0.76562 l 1.4375,0.20312 c 4.1758,0.53125 6.9844,1.4062 8.4219,2.625 1.4453,1.2109 2.1719,3.1172 2.1719,5.7188 0,2.7188 -1.0078,4.7617 -3.0156,6.125 -2,1.3672 -4.9922,2.0469 -8.9688,2.0469 -1.6875,0 -3.4336,-0.13672 -5.2344,-0.40625 -1.793,-0.25781 -3.6406,-0.65625 -5.5469,-1.1875 v -6.2031 c 1.625,0.79297 3.2891,1.3867 5,1.7812 1.7188,0.39844 3.457,0.59375 5.2188,0.59375 1.5938,0 2.7891,-0.21875 3.5938,-0.65625 0.8125,-0.4375 1.2188,-1.0938 1.2188,-1.9688 0,-0.72656 -0.28125,-1.2695 -0.84375,-1.625 -0.55469,-0.35156 -1.6562,-0.62891 -3.3125,-0.82812 l -1.4375,-0.1875 c -3.625,-0.44531 -6.168,-1.2852 -7.625,-2.5156 -1.4609,-1.2383 -2.1875,-3.1094 -2.1875,-5.6094 0,-2.707 0.92188,-4.7109 2.7656,-6.0156 1.8516,-1.3125 4.6953,-1.9688 8.5312,-1.9688 1.5,0 3.0781,0.11719 4.7344,0.34375 1.6562,0.23047 3.457,0.58984 5.4062,1.0781 z"
         id="path954" />
    </symbol>
    <symbol
       id="k"
       overflow="visible">
      <path
         d="m 4.2812,-34.031 h 8.7812 v 12.422 l 12.641,-12.422 h 10.188 L 19.5004,-17.906 37.5784,0 H 26.5944 L 13.0634,-13.406 V 0 H 4.2822 Z"
         id="path957" />
    </symbol>
    <symbol
       id="j"
       overflow="visible">
      <path
         d="m 3.9219,-25.531 h 8.1562 V 0 H 3.9219 Z m 0,-9.9219 h 8.1562 v 6.6406 H 3.9219 Z"
         id="path960" />
    </symbol>
    <symbol
       id="i"
       overflow="visible">
      <path
         d="m 27.578,-21.281 c 1.0312,-1.582 2.2539,-2.7852 3.6719,-3.6094 1.4258,-0.83203 2.9883,-1.25 4.6875,-1.25 2.9375,0 5.1719,0.90625 6.7031,2.7188 1.5312,1.8047 2.2969,4.4297 2.2969,7.875 V 4e-4 h -8.2031 v -13.312 c 0.01953,-0.19531 0.03125,-0.39844 0.03125,-0.60938 0.0078,-0.21875 0.01563,-0.51953 0.01563,-0.90625 0,-1.8125 -0.26562,-3.125 -0.79688,-3.9375 -0.53126,-0.8125 -1.3906,-1.2188 -2.5781,-1.2188 -1.5547,0 -2.75,0.64062 -3.5938,1.9219 -0.84375,1.2734 -1.2773,3.1172 -1.2969,5.5312 v 12.531 h -8.2031 v -13.312 c 0,-2.8203 -0.24609,-4.6406 -0.73438,-5.4531 -0.49219,-0.8125 -1.3555,-1.2188 -2.5938,-1.2188 -1.5742,0 -2.7891,0.64062 -3.6406,1.9219 -0.84375,1.2812 -1.2656,3.1172 -1.2656,5.5 v 12.562 h -8.2031 v -25.531 h 8.2031 v 3.75 c 1,-1.4453 2.1484,-2.5352 3.4531,-3.2656 1.3008,-0.72656 2.7344,-1.0938 4.2969,-1.0938 1.7578,0 3.3164,0.42969 4.6719,1.2812 1.3516,0.84375 2.3789,2.0391 3.0781,3.5781 z"
         id="path963" />
    </symbol>
  </defs>
  <g
     id="g1012">
    <path
       d="m 73.938011,40.794591 v 50.471777 c 0,0.839114 -0.57904,1.519312 -1.29403,1.519312 H 26.052383 c -0.714987,0 -1.294027,-0.680198 -1.294027,-1.519312 V 32.029485 H 7.9326869 c -0.714446,0 -1.294026,-0.679564 -1.294026,-1.518677 V 13.802427 c 0,-6.7103679 4.6355871,-12.1507223 10.3538741,-12.1507223 h 46.591601 c 4.762885,0 8.797635,3.7836745 9.993625,8.9620193 6.59423,-5.1593043 13.17155,-6.6366462 16.39164,-2.7245708 4.15886,5.0549898 0.46149,16.3698848 -7.70356,25.6232068 -2.68831,3.046306 -5.54981,5.517167 -8.32811,7.281255 z m -12.754452,1.831461 -6.623495,7.506322 c -0.514033,0.58293 -1.333574,0.565778 -1.829691,-0.03751 -0.4967,-0.603272 -0.482085,-1.565091 0.03196,-2.147337 l 6.62405,-7.507624 c -2.799379,-5.494384 0.93057,-15.835288 8.494918,-24.407549 1.0985,-1.24469 2.23654,-2.404138 3.39786,-3.465195 -0.51511,-4.4613184 -3.77641,-7.876227 -7.694265,-7.876227 H 23.841981 c 2.149315,2.2269162 3.505048,5.484131 3.505048,9.113367 V 89.749567 H 71.351131 V 42.241262 c -4.10477,1.991596 -7.748488,2.224312 -10.166398,0.386504 z M 24.758911,13.803403 c 0,-5.0328571 -3.476898,-9.113367 -7.765267,-9.113367 -4.288923,0 -7.7652671,4.0805099 -7.7652671,9.113367 V 28.992781 H 24.758911 Z m 36.58134,24.422195 8.18015,-9.27106 c 0.51404,-0.58293 1.33358,-0.566412 1.83025,0.03751 0.49616,0.603272 0.48208,1.565091 -0.032,2.147337 l -8.180707,9.271061 c 3.499087,1.734794 10.858757,-1.748139 17.330407,-9.083423 7.25984,-8.227906 10.43181,-17.933804 7.63964,-21.326906 -2.79231,-3.3934269 -11.16798,-0.012078 -18.42726,8.215701 -6.472345,7.335283 -9.695208,15.845378 -8.340031,20.010349 z M 38.995696,62.40694 c -0.714446,0 -1.294027,-0.680199 -1.294027,-1.518677 0,-0.839114 0.579581,-1.519313 1.294027,-1.519313 h 12.942481 c 0.714446,0 1.294026,0.680199 1.294026,1.519313 0,0.838478 -0.57958,1.518677 -1.294026,1.518677 z m 0,15.188727 c -0.714446,0 -1.294027,-0.679564 -1.294027,-1.518677 0,-0.839113 0.579581,-1.518677 1.294027,-1.518677 h 20.708302 c 0.714446,0 1.294027,0.679564 1.294027,1.518677 0,0.839113 -0.579581,1.518677 -1.294027,1.518677 z"
       id="path968"
       style="stroke-width:0.150221" />
  </g>
</svg>
