<?xml version="1.0" encoding="UTF-8" standalone="no"?>
<svg
   width="800pt"
   height="700pt"
   version="1.1"
   viewBox="0 0 800 700"
   id="svg136"
   sodipodi:docname="rl.svg"
   inkscape:version="1.1.1 (3bf5ae0d25, 2021-09-20)"
   xmlns:inkscape="http://www.inkscape.org/namespaces/inkscape"
   xmlns:sodipodi="http://sodipodi.sourceforge.net/DTD/sodipodi-0.dtd"
   xmlns="http://www.w3.org/2000/svg"
   xmlns:svg="http://www.w3.org/2000/svg">
  <sodipodi:namedview
     id="namedview138"
     pagecolor="#ffffff"
     bordercolor="#666666"
     borderopacity="1.0"
     inkscape:pageshadow="2"
     inkscape:pageopacity="0.0"
     inkscape:pagecheckerboard="0"
     inkscape:document-units="pt"
     showgrid="false"
     inkscape:zoom="0.77035714"
     inkscape:cx="466.66667"
     inkscape:cy="488.08531"
     inkscape:window-width="1920"
     inkscape:window-height="992"
     inkscape:window-x="-8"
     inkscape:window-y="-8"
     inkscape:window-maximized="1"
     inkscape:current-layer="g134" />
  <defs
     id="defs62">
    <symbol
       id="t"
       overflow="visible">
      <path
         d="m 18.766,-1.125 c -0.96875,0.5 -1.9805,0.875 -3.0312,1.125 -1.043,0.25781 -2.1367,0.39062 -3.2812,0.39062 -3.3984,0 -6.0898,-0.94531 -8.0781,-2.8438 -1.9922,-1.9062 -2.9844,-4.4844 -2.9844,-7.7344 0,-3.2578 0.99219,-5.8359 2.9844,-7.7344 1.9883,-1.9062 4.6797,-2.8594 8.0781,-2.8594 1.1445,0 2.2383,0.13281 3.2812,0.39062 1.0508,0.25 2.0625,0.625 3.0312,1.125 v 4.2188 c -0.98047,-0.65625 -1.9453,-1.1406 -2.8906,-1.4531 -0.94922,-0.3125 -1.9492,-0.46875 -3,-0.46875 -1.875,0 -3.3516,0.60547 -4.4219,1.8125 -1.0742,1.1992 -1.6094,2.8555 -1.6094,4.9688 0,2.1055 0.53516,3.7617 1.6094,4.9688 1.0703,1.1992 2.5469,1.7969 4.4219,1.7969 1.0508,0 2.0508,-0.14844 3,-0.45312 0.94531,-0.3125 1.9102,-0.80078 2.8906,-1.4688 z"
         id="path2" />
    </symbol>
    <symbol
       id="d"
       overflow="visible">
      <path
         d="m 13.734,-11.141 c -0.4375,-0.19531 -0.87109,-0.34375 -1.2969,-0.4375 -0.41797,-0.10156 -0.83984,-0.15625 -1.2656,-0.15625 -1.2617,0 -2.2305,0.40625 -2.9062,1.2188 -0.67969,0.80469 -1.0156,1.9531 -1.0156,3.4531 v 7.0625 H 2.3591 v -15.312 h 4.8906 v 2.5156 c 0.625,-1 1.3438,-1.7266 2.1562,-2.1875 0.82031,-0.46875 1.8008,-0.70312 2.9375,-0.70312 0.16406,0 0.34375,0.01172 0.53125,0.03125 0.19531,0.01172 0.47656,0.03906 0.84375,0.07813 z"
         id="path5" />
    </symbol>
    <symbol
       id="a"
       overflow="visible">
      <path
         d="m 17.641,-7.7031 v 1.4062 H 6.188 c 0.125,1.1484 0.53906,2.0078 1.25,2.5781 0.70703,0.57422 1.7031,0.85938 2.9844,0.85938 1.0312,0 2.082,-0.14844 3.1562,-0.45312 1.082,-0.3125 2.1914,-0.77344 3.3281,-1.3906 v 3.7656 c -1.1562,0.4375 -2.3125,0.76562 -3.4688,0.98438 -1.1562,0.22656 -2.3125,0.34375 -3.4688,0.34375 -2.7734,0 -4.9297,-0.70312 -6.4688,-2.1094 -1.5312,-1.4062 -2.2969,-3.3789 -2.2969,-5.9219 0,-2.5 0.75391,-4.4609 2.2656,-5.8906 1.5078,-1.4375 3.582,-2.1562 6.2188,-2.1562 2.4062,0 4.332,0.73047 5.7812,2.1875 1.4453,1.4492 2.1719,3.3828 2.1719,5.7969 z m -5.0312,-1.625 c 0,-0.92578 -0.27344,-1.6719 -0.8125,-2.2344 -0.54297,-0.57031 -1.25,-0.85938 -2.125,-0.85938 -0.94922,0 -1.7188,0.26562 -2.3125,0.79688 -0.5937,0.53126 -0.96484,1.2969 -1.1094,2.2969 z"
         id="path8" />
    </symbol>
    <symbol
       id="e"
       overflow="visible">
      <path
         d="m 9.2188,-6.8906 c -1.0234,0 -1.793,0.17188 -2.3125,0.51562 -0.51172,0.34375 -0.76562,0.85547 -0.76562,1.5312 0,0.625 0.20703,1.1172 0.625,1.4688 0.41406,0.34375 0.98828,0.51562 1.7188,0.51562 0.92578,0 1.7031,-0.32812 2.3281,-0.98438 0.63281,-0.66406 0.95312,-1.4922 0.95312,-2.4844 v -0.5625 z m 7.4688,-1.8438 V 0 h -4.9219 v -2.2656 c -0.65625,0.92969 -1.3984,1.6055 -2.2188,2.0312 -0.82422,0.41406 -1.8242,0.625 -3,0.625 -1.5859,0 -2.8711,-0.45703 -3.8594,-1.375 -0.99219,-0.92578 -1.4844,-2.1289 -1.4844,-3.6094 0,-1.7891 0.61328,-3.1016 1.8438,-3.9375 1.2383,-0.84375 3.1797,-1.2656 5.8281,-1.2656 h 2.8906 v -0.39062 c 0,-0.76953 -0.30859,-1.332 -0.92188,-1.6875 -0.61719,-0.36328 -1.5703,-0.54688 -2.8594,-0.54688 -1.0547,0 -2.0312,0.10547 -2.9375,0.3125 -0.89844,0.21094 -1.7305,0.52344 -2.5,0.9375 v -3.7344 c 1.0391,-0.25 2.0859,-0.44141 3.1406,-0.57812 1.0625,-0.13281 2.125,-0.20312 3.1875,-0.20312 2.7578,0 4.75,0.54688 5.9688,1.6406 1.2266,1.0859 1.8438,2.8555 1.8438,5.3125 z"
         id="path11" />
    </symbol>
    <symbol
       id="c"
       overflow="visible">
      <path
         d="m 7.7031,-19.656 v 4.3438 H 12.75 v 3.5 H 7.7031 v 6.5 c 0,0.71094 0.14062,1.1875 0.42188,1.4375 0.28126,0.25 0.83594,0.375 1.6719,0.375 h 2.5156 v 3.5 h -4.1875 c -1.9375,0 -3.3125,-0.39844 -4.125,-1.2031 -0.80469,-0.8125 -1.2031,-2.1797 -1.2031,-4.1094 v -6.5 h -2.4219 v -3.5 h 2.4219 v -4.3438 z"
         id="path14" />
    </symbol>
    <symbol
       id="k"
       overflow="visible">
      <path
         d="m 12.766,-13.078 v -8.2031 h 4.9219 V -1e-4 H 12.766 v -2.2188 c -0.66797,0.90625 -1.4062,1.5703 -2.2188,1.9844 -0.8126,0.4141 -1.7578,0.625 -2.8281,0.625 -1.8867,0 -3.4336,-0.75 -4.6406,-2.25 -1.2109,-1.5 -1.8125,-3.4258 -1.8125,-5.7812 0,-2.3633 0.60156,-4.2969 1.8125,-5.7969 1.207,-1.5 2.7539,-2.25 4.6406,-2.25 1.0625,0 2,0.21484 2.8125,0.64062 0.82031,0.42969 1.5664,1.0859 2.2344,1.9688 z m -3.2188,9.9219 c 1.0391,0 1.8359,-0.37891 2.3906,-1.1406 0.55078,-0.76953 0.82812,-1.8828 0.82812,-3.3438 0,-1.457 -0.27734,-2.5664 -0.82812,-3.3281 -0.55469,-0.76953 -1.3516,-1.1562 -2.3906,-1.1562 -1.043,0 -1.8398,0.38672 -2.3906,1.1562 -0.55469,0.76172 -0.82812,1.8711 -0.82812,3.3281 0,1.4609 0.27344,2.5742 0.82812,3.3438 0.55078,0.76172 1.3477,1.1406 2.3906,1.1406 z"
         id="path17" />
    </symbol>
    <symbol
       id="j"
       overflow="visible">
      <path
         d="m 10.5,-3.1562 c 1.0508,0 1.8516,-0.37891 2.4062,-1.1406 0.55078,-0.76953 0.82812,-1.8828 0.82812,-3.3438 0,-1.457 -0.27734,-2.5664 -0.82812,-3.3281 -0.55469,-0.76953 -1.3555,-1.1562 -2.4062,-1.1562 -1.0547,0 -1.8594,0.38672 -2.4219,1.1562 -0.55469,0.77344 -0.82812,1.8828 -0.82812,3.3281 0,1.4492 0.27344,2.5586 0.82812,3.3281 0.5625,0.77344 1.3672,1.1562 2.4219,1.1562 z m -3.25,-9.9219 c 0.67578,-0.88281 1.4219,-1.5391 2.2344,-1.9688 0.82031,-0.42578 1.7656,-0.64062 2.8281,-0.64062 1.8945,0 3.4453,0.75 4.6562,2.25 1.207,1.5 1.8125,3.4336 1.8125,5.7969 0,2.3555 -0.60547,4.2812 -1.8125,5.7812 -1.2109,1.5 -2.7617,2.25 -4.6562,2.25 -1.0625,0 -2.0078,-0.21094 -2.8281,-0.625 C 8.6719,-0.6602 7.9258,-1.32032 7.25,-2.21882 V -2e-5 H 2.3594 v -21.281 H 7.25 Z"
         id="path20" />
    </symbol>
    <symbol
       id="i"
       overflow="visible">
      <path
         d="m 0.34375,-15.312 h 4.8906 l 4.125,10.391 3.5,-10.391 h 4.8906 l -6.4375,16.766 c -0.64844,1.6953 -1.4023,2.8828 -2.2656,3.5625 -0.86719,0.6875 -2,1.0312 -3.4062,1.0312 H 2.79685 V 2.8289 h 1.5312 c 0.83203,0 1.4375,-0.13672 1.8125,-0.40625 C 6.52336,2.16093 6.82024,1.69218 7.03117,1.01645 L 7.17179,0.59457 Z"
         id="path23" />
    </symbol>
    <symbol
       id="h"
       overflow="visible">
      <path
         d="m 16.781,-19.766 v 4.3125 c -1.125,-0.5 -2.2266,-0.875 -3.2969,-1.125 -1.0625,-0.25781 -2.0703,-0.39062 -3.0156,-0.39062 -1.25,0 -2.1797,0.17969 -2.7812,0.53125 -0.60547,0.34375 -0.90625,0.88281 -0.90625,1.6094 0,0.54297 0.20312,0.96875 0.60938,1.2812 0.40625,0.30469 1.1406,0.5625 2.2031,0.78125 l 2.25,0.45312 c 2.2695,0.44922 3.8789,1.1406 4.8281,2.0781 0.95703,0.92969 1.4375,2.2461 1.4375,3.9531 0,2.25 -0.66797,3.9297 -2,5.0312 -1.3359,1.0938 -3.3711,1.6406 -6.1094,1.6406 -1.3047,0 -2.6055,-0.125 -3.9062,-0.375 -1.3047,-0.23828 -2.6055,-0.59766 -3.9062,-1.0781 v -4.4531 c 1.3008,0.69922 2.5625,1.2266 3.7812,1.5781 1.2188,0.34375 2.3906,0.51562 3.5156,0.51562 1.1562,0 2.0352,-0.1875 2.6406,-0.5625 0.61328,-0.38281 0.92188,-0.9375 0.92188,-1.6562 0,-0.63281 -0.21094,-1.125 -0.625,-1.4688 -0.41797,-0.34375 -1.2461,-0.65625 -2.4844,-0.9375 l -2.0312,-0.4375 c -2.043,-0.4375 -3.5391,-1.1328 -4.4844,-2.0938 -0.9375,-0.95703 -1.4062,-2.25 -1.4062,-3.875 0,-2.0312 0.65625,-3.5938 1.9688,-4.6875 1.31255,-1.0937 3.1953,-1.6406 5.6562,-1.6406 1.125,0 2.2734,0.08594 3.4531,0.25 1.1875,0.16797 2.4141,0.42188 3.6875,0.76562 z"
         id="path26" />
    </symbol>
    <symbol
       id="b"
       overflow="visible">
      <path
         d="m 9.6406,-12.188 c -1.0859,0 -1.9141,0.39062 -2.4844,1.1719 -0.57422,0.78125 -0.85938,1.9062 -0.85938,3.375 0,1.4688 0.28516,2.5938 0.85938,3.375 0.57031,0.77344 1.3984,1.1562 2.4844,1.1562 1.0625,0 1.875,-0.38281 2.4375,-1.1562 0.57031,-0.78125 0.85938,-1.9062 0.85938,-3.375 0,-1.4688 -0.28906,-2.5938 -0.85938,-3.375 -0.5625,-0.78125 -1.375,-1.1719 -2.4375,-1.1719 z m 0,-3.5 c 2.6328,0 4.6914,0.71484 6.1719,2.1406 1.4766,1.418 2.2188,3.3867 2.2188,5.9062 0,2.5117 -0.74219,4.4805 -2.2188,5.9062 C 14.332,-0.317 12.2734,0.39 9.6406,0.39 6.9922,0.39 4.9258,-0.31703 3.4375,-1.735 1.9453,-3.1608 1.2031,-5.1295 1.2031,-7.6412 c 0,-2.5195 0.74219,-4.4883 2.2344,-5.9062 1.4883,-1.4258 3.5547,-2.1406 6.2031,-2.1406 z"
         id="path29" />
    </symbol>
    <symbol
       id="g"
       overflow="visible">
      <path
         d="m 16.547,-12.766 c 0.61328,-0.94531 1.3477,-1.6719 2.2031,-2.1719 0.85156,-0.5 1.7891,-0.75 2.8125,-0.75 1.7578,0 3.0977,0.54688 4.0156,1.6406 0.92578,1.0859 1.3906,2.6562 1.3906,4.7188 V -4e-4 h -4.9219 v -7.9844 -0.35938 c 0.0078,-0.13281 0.01563,-0.32031 0.01563,-0.5625 0,-1.082 -0.16406,-1.8633 -0.48438,-2.3438 -0.3125,-0.48828 -0.82422,-0.73438 -1.5312,-0.73438 -0.92969,0 -1.6484,0.38672 -2.1562,1.1562 -0.51172,0.76172 -0.77344,1.8672 -0.78125,3.3125 v 7.5156 h -4.9219 v -7.9844 c 0,-1.6953 -0.14844,-2.7852 -0.4375,-3.2656 -0.29297,-0.48828 -0.8125,-0.73438 -1.5625,-0.73438 -0.9375,0 -1.6641,0.38672 -2.1719,1.1562 -0.51172,0.76172 -0.76562,1.8594 -0.76562,3.2969 v 7.5312 h -4.9219 v -15.312 h 4.9219 v 2.2344 c 0.60156,-0.86328 1.2891,-1.5156 2.0625,-1.9531 0.78125,-0.4375 1.6406,-0.65625 2.5781,-0.65625 1.0625,0 2,0.25781 2.8125,0.76562 0.8125,0.51172 1.4258,1.2305 1.8438,2.1562 z"
         id="path32" />
    </symbol>
    <symbol
       id="s"
       overflow="visible">
      <path
         d="m 0.98438,-15.312 h 4.7656 l 2.5625,10.547 2.5781,-10.547 h 4.0938 l 2.5781,10.438 2.5781,-10.438 h 4.75 L 20.85938,0 h -5.3438 L 12.93748,-10.531 10.35938,0 h -5.3438 z"
         id="path35" />
    </symbol>
    <symbol
       id="f"
       overflow="visible">
      <path
         d="M 17.75,-9.3281 V 0 h -4.9219 v -7.1406 c 0,-1.3203 -0.03125,-2.2344 -0.09375,-2.7344 -0.0625,-0.5 -0.16797,-0.86719 -0.3125,-1.1094 -0.1875,-0.3125 -0.44922,-0.55469 -0.78125,-0.73438 -0.32422,-0.17578 -0.69531,-0.26562 -1.1094,-0.26562 -1.0234,0 -1.8242,0.39844 -2.4062,1.1875 -0.58594,0.78125 -0.875,1.8711 -0.875,3.2656 V -1e-4 H 2.3594 v -15.312 H 7.25 v 2.2344 c 0.73828,-0.88281 1.5195,-1.5391 2.3438,-1.9688 0.83203,-0.42578 1.75,-0.64062 2.75,-0.64062 1.7695,0 3.1133,0.54688 4.0312,1.6406 0.91406,1.0859 1.375,2.6562 1.375,4.7188 z"
         id="path38" />
    </symbol>
    <symbol
       id="r"
       overflow="visible">
      <path
         d="m 12.422,-21.281 v 3.2188 H 9.7189 c -0.6875,0 -1.1719,0.125 -1.4531,0.375 -0.27344,0.25 -0.40625,0.6875 -0.40625,1.3125 v 1.0625 h 4.1875 v 3.5 H 7.85955 V -2e-4 h -4.8906 v -11.812 h -2.4375 v -3.5 h 2.4375 v -1.0625 c 0,-1.6641 0.46094,-2.8984 1.3906,-3.7031 0.92578,-0.80078 2.3672,-1.2031 4.3281,-1.2031 z"
         id="path41" />
    </symbol>
    <symbol
       id="q"
       overflow="visible">
      <path
         d="M 17.75,-9.3281 V 0 h -4.9219 v -7.1094 c 0,-1.3438 -0.03125,-2.2656 -0.09375,-2.7656 -0.0625,-0.5 -0.16797,-0.86719 -0.3125,-1.1094 -0.1875,-0.3125 -0.44922,-0.55469 -0.78125,-0.73438 -0.32422,-0.17578 -0.69531,-0.26562 -1.1094,-0.26562 -1.0234,0 -1.8242,0.39844 -2.4062,1.1875 -0.58594,0.78125 -0.875,1.8711 -0.875,3.2656 V -1e-4 H 2.3594 v -21.281 H 7.25 v 8.2031 c 0.73828,-0.88281 1.5195,-1.5391 2.3438,-1.9688 0.83203,-0.42578 1.75,-0.64062 2.75,-0.64062 1.7695,0 3.1133,0.54688 4.0312,1.6406 0.91406,1.0859 1.375,2.6562 1.375,4.7188 z"
         id="path44" />
    </symbol>
    <symbol
       id="p"
       overflow="visible">
      <path
         d="m 2.5781,-20.406 h 5.875 l 7.4219,14 v -14 h 4.9844 V 0 h -5.875 L 7.5625,-14 V 0 H 2.5781 Z"
         id="path47" />
    </symbol>
    <symbol
       id="o"
       overflow="visible">
      <path
         d="m 2.1875,-5.9688 v -9.3438 h 4.9219 v 1.5312 c 0,0.83594 -0.00781,1.875 -0.015625,3.125 -0.011719,1.25 -0.015625,2.0859 -0.015625,2.5 0,1.2422 0.03125,2.1328 0.09375,2.6719 0.070313,0.54297 0.17969,0.93359 0.32812,1.1719 0.20703,0.32422 0.47266,0.57422 0.79688,0.75 0.32031,0.16797 0.69141,0.25 1.1094,0.25 1.0195,0 1.8203,-0.39062 2.4062,-1.1719 0.58203,-0.78125 0.875,-1.8672 0.875,-3.2656 v -7.5625 h 4.8906 V -6e-4 H 12.6875 V -2.2194 C 11.94531,-1.32096 11.1641,-0.6608 10.3437,-0.235 9.51948,0.17906 8.6093,0.39 7.6093,0.39 5.8476,0.39 4.5038,-0.14906 3.5781,-1.235 2.64841,-2.317 2.1875,-3.8952 2.1875,-5.9694 Z"
         id="path50" />
    </symbol>
    <symbol
       id="n"
       overflow="visible">
      <path
         d="m 2.5781,-20.406 h 8.7344 c 2.5938,0 4.582,0.57812 5.9688,1.7344 1.3945,1.1484 2.0938,2.7891 2.0938,4.9219 0,2.1367 -0.69922,3.7812 -2.0938,4.9375 -1.3867,1.1562 -3.375,1.7344 -5.9688,1.7344 H 7.8281 V 3e-4 h -5.25 z m 5.25,3.8125 v 5.7031 H 10.75 c 1.0195,0 1.8047,-0.25 2.3594,-0.75 0.5625,-0.5 0.84375,-1.2031 0.84375,-2.1094 0,-0.91406 -0.28125,-1.6172 -0.84375,-2.1094 -0.55469,-0.48828 -1.3398,-0.73438 -2.3594,-0.73438 z"
         id="path53" />
    </symbol>
    <symbol
       id="m"
       overflow="visible">
      <path
         d="M 2.3594,-15.312 H 7.25 v 15.031 c 0,2.0508 -0.49609,3.6172 -1.4844,4.7031 -0.98047,1.082 -2.4062,1.625 -4.2812,1.625 H -0.9375 V 2.8283 h 0.85938 c 0.92578,0 1.5625,-0.21094 1.9062,-0.625 0.35156,-0.41797 0.53125,-1.2461 0.53125,-2.4844 z m 0,-5.9688 H 7.25 v 4 H 2.3594 Z"
         id="path56" />
    </symbol>
    <symbol
       id="l"
       overflow="visible">
      <path
         d="m 14.719,-14.828 v 3.9844 c -0.65625,-0.45703 -1.3242,-0.79688 -2,-1.0156 -0.66797,-0.21875 -1.3594,-0.32812 -2.0781,-0.32812 -1.3672,0 -2.4336,0.40234 -3.2031,1.2031 -0.76172,0.79297 -1.1406,1.9062 -1.1406,3.3438 0,1.4297 0.37891,2.543 1.1406,3.3438 0.76953,0.79297 1.8359,1.1875 3.2031,1.1875 0.75781,0 1.4844,-0.10938 2.1719,-0.32812 0.6875,-0.22656 1.3203,-0.56641 1.9062,-1.0156 v 4 c -0.76172,0.28125 -1.5391,0.48828 -2.3281,0.625 -0.78125,0.14453 -1.5742,0.21875 -2.375,0.21875 -2.7617,0 -4.9219,-0.70703 -6.4844,-2.125 -1.5547,-1.4141 -2.3281,-3.3828 -2.3281,-5.9062 0,-2.5312 0.77344,-4.5039 2.3281,-5.9219 1.5625,-1.4141 3.7227,-2.125 6.4844,-2.125 0.80078,0 1.5938,0.07422 2.375,0.21875 0.78125,0.13672 1.5547,0.35156 2.3281,0.64062 z"
         id="path59" />
    </symbol>
  </defs>
  <g
     id="g134">
    <path
       d="m 226.44347,264.48461 c 0,-6.67965 4.08136,-12.69726 10.3347,-15.25445 6.25915,-2.55676 13.45836,-1.14018 18.24611,3.58172 4.78776,4.72184 6.21836,11.82192 3.62591,17.989 -2.58662,6.17299 -8.69392,10.1924 -15.46743,10.1924 -9.24279,0 -16.73943,-7.38798 -16.73943,-16.50897 z m 142.29645,16.50896 c 6.77291,0 12.88036,-4.01941 15.46742,-10.19239 2.59247,-6.16724 1.16192,-13.26731 -3.6259,-17.989 -4.78776,-4.72184 -11.98695,-6.13849 -18.24612,-3.58174 -6.25334,2.55676 -10.33469,8.57423 -10.33469,15.25446 0,4.37645 1.76333,8.57998 4.9045,11.67229 3.14132,3.09807 7.3977,4.83697 11.83524,4.83697 z m 108.81756,239.40128 v 41.27609 c 0,6.56451 -2.64491,12.86427 -7.35106,17.51137 -4.71183,4.6412 -11.09953,7.24985 -17.76183,7.24985 H 100.88498 c -6.65617,0 -13.043886,-2.6085 -17.755855,-7.24985 -4.705996,-4.64695 -7.356894,-10.94671 -7.356894,-17.51137 v -41.27609 c 0,-13.14068 5.295812,-25.74005 14.713788,-35.02865 9.417966,-9.2883 22.193691,-14.5053 35.511701,-14.5053 h 58.59178 v -16.50896 h -8.36704 c -13.32413,0 -26.09941,-5.21715 -35.51768,-14.51119 -9.41797,-9.28831 -14.7078,-21.88813 -14.7078,-35.02276 V 326.31383 C 107.83307,312.4937 97.193605,291.14807 97.193605,268.52289 c 0,-22.6252 10.638265,-43.96493 28.803375,-57.78505 v -53.57636 c 0,-13.13493 5.28999,-25.73415 14.7078,-35.02274 9.41798,-9.2883 22.1937,-14.50531 35.51768,-14.50531 H 308.13804 V 49.842494 c 0,-4.554816 3.74847,-8.251826 8.37285,-8.251826 4.61841,0 8.36703,3.696863 8.36703,8.251826 v 57.785046 l 52.23322,0.006 c 13.3183,0 26.09343,5.21715 35.5117,14.5053 9.41798,9.2883 14.71379,21.88811 14.71379,35.02275 v 247.6565 c 0,13.13493 -5.29581,25.73417 -14.71379,35.02276 -9.41797,9.29405 -22.19369,14.51119 -35.5117,14.51119 h -8.37287 V 470.861 h 58.59776 c 13.31831,0 26.09344,5.21715 35.51171,14.50531 9.41797,9.28829 14.7078,21.88811 14.7078,35.02864 z M 142.73881,214.95184 v 89.57205 h 116.6006 c 1.98515,-0.023 3.91199,0.6507 5.44171,1.90032 l 45.36793,38.05655 44.78349,-36.81974 c 1.5297,-1.24958 3.45656,-1.92332 5.44169,-1.90032 h 50.2258 l -0.006,-148.5939 c 0,-8.7585 -3.52666,-17.15464 -9.80332,-23.35048 -6.28249,-6.19022 -14.7954,-9.66832 -23.67647,-9.66832 h -200.8912 c -8.88077,0 -17.40011,3.4781 -23.67647,9.66832 -6.28248,6.19599 -9.80913,14.59169 -9.80913,23.35048 z m -16.73945,88.25268 v -69.18166 c -7.76555,9.90449 -11.97529,22.07239 -11.97529,34.59084 0,12.51874 4.20974,24.68604 11.97529,34.59082 z m 50.22579,134.64258 h 200.89122 c 8.88076,0 17.39413,-3.48384 23.67647,-9.67407 6.27664,-6.19024 9.8033,-14.59169 9.8033,-23.35048 V 322.27039 H 363.3897 l -47.87758,39.37591 c -1.50638,1.2323 -3.40393,1.90607 -5.35994,1.90032 -1.99097,0 -3.92366,-0.70252 -5.4417,-1.98095 l -48.468,-40.53311 H 142.74195 V 404.823 c 0,8.75849 3.52665,17.16053 9.80913,23.35047 6.27666,6.19023 14.79541,9.67408 23.67647,9.67408 z m 25.11291,33.01793 h 150.6684 v -16.50896 h -150.6684 z m 141.62531,99.06113 c -2.06691,-10.03113 -8.72891,-18.54771 -18.04135,-23.06302 -9.31872,-4.51457 -20.22515,-4.51457 -29.53878,0 -9.31289,4.51457 -15.98011,13.03116 -18.04732,23.06302 z M 460.81954,520.3978 c 0,-8.75849 -3.52665,-17.16054 -9.80914,-23.35047 -6.27665,-6.19599 -14.7954,-9.67409 -23.67049,-9.67409 H 126.0031 c -8.88076,0 -17.39412,3.4781 -23.67646,9.67409 -6.276655,6.19023 -9.803312,14.59169 -9.803312,23.35047 v 41.27609 c 0,2.18821 0.881645,4.28416 2.446419,5.83319 1.57066,1.54904 3.701842,2.41848 5.920463,2.41848 h 159.4574 c 1.54135,-16.55023 11.39146,-31.23862 26.23991,-39.11056 14.84802,-7.87164 32.70312,-7.87164 47.55024,0 14.84801,7.87164 24.70334,22.5618 26.23992,39.11056 h 92.07214 c 2.2246,0 4.34995,-0.86951 5.92046,-2.41848 1.57066,-1.54903 2.45226,-3.64513 2.45226,-5.83319 z m -41.85233,-16.50896 -33.47889,-0.006 c -4.62438,0 -8.37285,3.69686 -8.37285,8.25758 0,4.56071 3.74847,8.25757 8.37285,8.25757 h 33.47889 c 2.21877,0 4.34995,0.86951 5.92046,2.41274 1.57066,1.54903 2.45224,3.65087 2.45224,5.83893 v 24.76713 c 0,4.56072 3.74265,8.25757 8.36703,8.25757 4.62439,0 8.37287,-3.69685 8.37287,-8.25757 v -24.76668 c 0,-6.56451 -2.64493,-12.86427 -7.3569,-17.51137 -4.70599,-4.6412 -11.09371,-7.2556 -17.75585,-7.2556 z M 596.00259,253.25457 c 1.59397,1.88868 3.9528,2.97704 6.44601,2.97128 2.64491,-0.14402 5.06801,-1.52603 6.52776,-3.7141 l 44.61459,-66.04321 c 1.47721,-1.80819 2.11369,-4.14603 1.75167,-6.43789 -0.36201,-2.2976 -1.6874,-4.33605 -3.64923,-5.62018 -1.96183,-1.28412 -4.37909,-1.69291 -6.66782,-1.12289 -2.2829,0.56433 -4.21558,2.0557 -5.33079,4.10579 l -38.41895,56.79442 -14.90063,-17.91382 c -2.96031,-3.51259 -8.24431,-3.99051 -11.80011,-1.07682 -3.56163,2.91955 -4.04623,8.1308 -1.09186,11.64339 z m 57.3362,138.44293 c -3.26389,-3.20169 -8.53624,-3.20169 -11.80595,0 l -27.54182,27.41027 -27.61806,-27.32919 c -3.29886,-2.82741 -8.25598,-2.67764 -11.36814,0.35126 -3.11202,3.02893 -3.33982,7.91204 -0.51965,11.20587 l 27.2907,27.24221 -27.2907,27.24222 c -3.25806,3.23619 -3.24058,8.46483 0.0408,11.67803 3.28719,3.21895 8.58883,3.19594 11.84689,-0.0403 l 27.54183,-27.48987 27.54183,27.48987 h -0.006 c 3.26388,3.2017 8.53623,3.2017 11.80011,0 3.2464,-3.21894 3.2464,-8.4187 0,-11.63764 l -27.29071,-27.24222 27.37741,-27.24221 c 3.24639,-3.21894 3.24639,-8.4187 0,-11.63764 z m 75.33122,29.63328 h -12.38995 c 28.59263,-28.06627 43.76111,-66.78028 41.73576,-106.51294 -2.03194,-39.73265 -21.0607,-76.75287 -52.36176,-101.84872 -1.6874,-1.61818 -3.99376,-2.46464 -6.34093,-2.32635 -2.35299,0.13812 -4.53679,1.24956 -6.01971,3.05767 -1.47721,1.80818 -2.1137,4.15178 -1.75167,6.44363 0.35616,2.29761 1.68157,4.3418 3.64922,5.62018 27.75707,22.29647 44.54434,55.21709 46.1437,90.4875 1.5998,35.27041 -12.14466,69.53841 -37.77622,94.18465 v -13.86612 c 0,-4.5607 -3.74265,-8.25757 -8.36703,-8.25757 -4.62438,0 -8.37285,3.69687 -8.37285,8.25757 v 33.01793 c 0,2.18821 0.88164,4.29006 2.45224,5.83894 1.57066,1.54904 3.70184,2.41849 5.92046,2.41849 h 33.47888 c 4.62439,0 8.37286,-3.69687 8.37286,-8.25758 0,-4.56071 -3.74847,-8.25758 -8.37286,-8.25758 z M 532.29286,211.16181 h -33.47887 c -4.62438,0 -8.37286,3.69686 -8.37286,8.25757 0,4.55482 3.74848,8.25183 8.37286,8.25183 h 12.22058 c -28.59262,28.06626 -43.7611,66.78028 -41.73575,106.51883 2.03193,39.73265 21.0607,76.74698 52.36176,101.84284 1.51805,1.20351 3.41575,1.84268 5.35994,1.81969 3.5558,0.0118 6.73793,-2.19397 7.92324,-5.50506 1.19112,-3.30533 0.12257,-6.99644 -2.65075,-9.19041 -27.75706,-22.29645 -44.54433,-55.21708 -46.14369,-90.4875 -1.59936,-35.2704 12.14465,-69.53251 37.77174,-94.18464 v 13.95249 c 0,4.56071 3.74847,8.25757 8.37285,8.25757 4.62439,0 8.37286,-3.69686 8.37286,-8.25757 v -33.01792 c 0,-2.19397 -0.88165,-4.29005 -2.45225,-5.83895 -1.57066,-1.54902 -3.70184,-2.41847 -5.92046,-2.41847 z"
       id="path64"
       style="stroke-width:1.4844" />
  </g>
</svg>
