<?xml version="1.0" encoding="UTF-8" standalone="no"?>
<svg
   width="700pt"
   height="650pt"
   version="1.1"
   viewBox="0 0 700 650"
   id="svg1166"
   sodipodi:docname="noun-teaching-78718.svg"
   inkscape:version="1.1.1 (3bf5ae0d25, 2021-09-20)"
   xmlns:inkscape="http://www.inkscape.org/namespaces/inkscape"
   xmlns:sodipodi="http://sodipodi.sourceforge.net/DTD/sodipodi-0.dtd"
   xmlns="http://www.w3.org/2000/svg"
   xmlns:svg="http://www.w3.org/2000/svg">
  <sodipodi:namedview
     id="namedview1168"
     pagecolor="#ffffff"
     bordercolor="#666666"
     borderopacity="1.0"
     inkscape:pageshadow="2"
     inkscape:pageopacity="0.0"
     inkscape:pagecheckerboard="0"
     inkscape:document-units="pt"
     showgrid="false"
     inkscape:zoom="0.795"
     inkscape:cx="466.03774"
     inkscape:cy="489.30818"
     inkscape:window-width="1920"
     inkscape:window-height="992"
     inkscape:window-x="-8"
     inkscape:window-y="-8"
     inkscape:window-maximized="1"
     inkscape:current-layer="g1164" />
  <defs
     id="defs1060">
    <symbol
       id="i"
       overflow="visible">
      <path
         d="m 16.859,-1 c -0.875,0.44922 -1.7891,0.78906 -2.7344,1.0156 -0.9375,0.22656 -1.918,0.34375 -2.9375,0.34375 -3.0547,0 -5.4766,-0.85156 -7.2656,-2.5625 -1.7812,-1.707 -2.6719,-4.0234 -2.6719,-6.9531 0,-2.9258 0.89062,-5.2422 2.6719,-6.9531 1.7891,-1.707 4.2109,-2.5625 7.2656,-2.5625 1.0195,0 2,0.11719 2.9375,0.34375 0.94531,0.23047 1.8594,0.57031 2.7344,1.0156 v 3.7969 c -0.88672,-0.59375 -1.7578,-1.0312 -2.6094,-1.3125 -0.84375,-0.28125 -1.7344,-0.42188 -2.6719,-0.42188 -1.6875,0 -3.0156,0.54297 -3.9844,1.625 -0.96875,1.0859 -1.4531,2.5742 -1.4531,4.4688 0,1.8984 0.48438,3.3867 1.4531,4.4688 0.96875,1.0742 2.2969,1.6094 3.9844,1.6094 0.9375,0 1.8281,-0.13281 2.6719,-0.40625 0.85156,-0.28125 1.7227,-0.71875 2.6094,-1.3125 z"
         id="path997" />
    </symbol>
    <symbol
       id="b"
       overflow="visible">
      <path
         d="m 12.328,-10.016 c -0.38672,-0.17578 -0.77344,-0.30469 -1.1562,-0.39062 -0.375,-0.09375 -0.75781,-0.14062 -1.1406,-0.14062 -1.125,0 -1.9961,0.36719 -2.6094,1.0938 -0.60547,0.73047 -0.90625,1.7656 -0.90625,3.1094 v 6.3438 h -4.4062 v -13.75 h 4.4062 v 2.25 c 0.5625,-0.89453 1.207,-1.5508 1.9375,-1.9688 0.73828,-0.41406 1.6172,-0.625 2.6406,-0.625 0.14453,0 0.30078,0.01172 0.46875,0.03125 0.17578,0.01172 0.42578,0.03906 0.75,0.07813 z"
         id="path1000" />
    </symbol>
    <symbol
       id="a"
       overflow="visible">
      <path
         d="m 15.844,-6.9219 v 1.2656 H 5.563 c 0.10156,1.0312 0.47266,1.8086 1.1094,2.3281 0.64453,0.51172 1.5391,0.76562 2.6875,0.76562 0.92578,0 1.875,-0.13281 2.8438,-0.40625 0.96875,-0.28125 1.9609,-0.69531 2.9844,-1.25 v 3.3906 c -1.0312,0.38672 -2.0703,0.67969 -3.1094,0.875 -1.043,0.20703 -2.0859,0.3125 -3.125,0.3125 -2.4922,0 -4.4297,-0.62891 -5.8125,-1.8906 -1.375,-1.2695 -2.0625,-3.0469 -2.0625,-5.3281 0,-2.25 0.67578,-4.0156 2.0312,-5.2969 1.3516,-1.2891 3.2188,-1.9375 5.5938,-1.9375 2.1641,0 3.8945,0.65234 5.1875,1.9531 1.3008,1.3047 1.9531,3.043 1.9531,5.2188 z M 11.3284,-8.375 c 0,-0.83203 -0.24609,-1.5039 -0.73438,-2.0156 -0.49219,-0.51953 -1.125,-0.78125 -1.9062,-0.78125 -0.85547,0 -1.5469,0.24219 -2.0781,0.71875 -0.53125,0.48047 -0.86719,1.1719 -1,2.0781 z"
         id="path1003" />
    </symbol>
    <symbol
       id="e"
       overflow="visible">
      <path
         d="m 8.2812,-6.1875 c -0.91797,0 -1.6094,0.15625 -2.0781,0.46875 -0.46094,0.3125 -0.6875,0.77344 -0.6875,1.375 0,0.55469 0.1875,0.99219 0.5625,1.3125 0.375,0.3125 0.89062,0.46875 1.5469,0.46875 0.83203,0 1.5312,-0.29688 2.0938,-0.89062 0.5626,-0.59374 0.84375,-1.3359 0.84375,-2.2344 v -0.5 z M 15,-7.8437 V 10e-5 h -4.4375 v -2.0312 c -0.59375,0.83594 -1.2617,1.4453 -2,1.8281 -0.73047,0.375 -1.6211,0.5625 -2.6719,0.5625 -1.4297,0 -2.5898,-0.41406 -3.4844,-1.25 -0.88672,-0.83203 -1.3281,-1.9102 -1.3281,-3.2344 0,-1.6133 0.55078,-2.7969 1.6562,-3.5469 1.1133,-0.75781 2.8594,-1.1406 5.2344,-1.1406 h 2.5938 v -0.34375 c 0,-0.6875 -0.27734,-1.1914 -0.82812,-1.5156 -0.54297,-0.33203 -1.3984,-0.5 -2.5625,-0.5 -0.9375,0 -1.8125,0.10156 -2.625,0.29688 -0.8125,0.1875 -1.5703,0.46875 -2.2656,0.84375 v -3.3594 c 0.94531,-0.22656 1.8945,-0.39844 2.8438,-0.51562 0.94531,-0.125 1.8945,-0.1875 2.8438,-0.1875 2.4766,0 4.2695,0.49219 5.375,1.4688 1.1016,0.98047 1.6562,2.5742 1.6562,4.7812 z"
         id="path1006" />
    </symbol>
    <symbol
       id="d"
       overflow="visible">
      <path
         d="m 6.9219,-17.656 v 3.9062 h 4.5312 v 3.1406 H 6.9219 v 5.8281 c 0,0.64844 0.125,1.0859 0.375,1.3125 0.25,0.21875 0.75391,0.32812 1.5156,0.32812 h 2.25 V 1.2e-4 H 7.2969 c -1.7422,0 -2.9766,-0.35938 -3.7031,-1.0781 -0.71875,-0.72656 -1.0781,-1.9609 -1.0781,-3.7031 v -5.8281 H 0.3282 v -3.1406 h 2.1875 v -3.9062 z"
         id="path1009" />
    </symbol>
    <symbol
       id="l"
       overflow="visible">
      <path
         d="m 11.469,-11.75 v -7.3594 h 4.4219 V -4e-4 H 11.469 v -1.9844 c -0.60547,0.80469 -1.2734,1.3984 -2,1.7812 -0.73047,0.375 -1.5742,0.5625 -2.5312,0.5625 -1.6992,0 -3.0938,-0.67188 -4.1875,-2.0156 -1.0859,-1.3516 -1.625,-3.0859 -1.625,-5.2031 0,-2.125 0.53906,-3.8594 1.625,-5.2031 1.0938,-1.3516 2.4883,-2.0312 4.1875,-2.0312 0.94531,0 1.7852,0.19531 2.5156,0.57812 0.73828,0.375 1.4102,0.96484 2.0156,1.7656 z m -2.8906,8.9062 c 0.9375,0 1.6484,-0.34375 2.1406,-1.0312 0.5,-0.6875 0.75,-1.6797 0.75,-2.9844 0,-1.3125 -0.25,-2.3125 -0.75,-3 -0.49219,-0.6875 -1.2031,-1.0312 -2.1406,-1.0312 -0.9375,0 -1.6562,0.34375 -2.1562,1.0312 -0.49219,0.6875 -0.73438,1.6875 -0.73438,3 0,1.3047 0.24219,2.2969 0.73438,2.9844 0.5,0.6875 1.2188,1.0312 2.1562,1.0312 z"
         id="path1012" />
    </symbol>
    <symbol
       id="k"
       overflow="visible">
      <path
         d="m 9.4375,-2.8438 c 0.9375,0 1.6484,-0.34375 2.1406,-1.0312 0.5,-0.6875 0.75,-1.6797 0.75,-2.9844 0,-1.3125 -0.25,-2.3125 -0.75,-3 -0.49219,-0.6875 -1.2031,-1.0312 -2.1406,-1.0312 -0.94922,0 -1.6719,0.35156 -2.1719,1.0469 -0.5,0.6875 -0.75,1.6836 -0.75,2.9844 0,1.3047 0.25,2.2969 0.75,2.9844 0.5,0.6875 1.2227,1.0312 2.1719,1.0312 z M 6.5156,-11.75 c 0.60156,-0.80078 1.2695,-1.3906 2,-1.7656 0.73828,-0.38281 1.5859,-0.57812 2.5469,-0.57812 1.6953,0 3.0859,0.67969 4.1719,2.0312 1.0938,1.3438 1.6406,3.0781 1.6406,5.2031 0,2.1172 -0.54688,3.8516 -1.6406,5.2031 -1.0859,1.3438 -2.4766,2.0156 -4.1719,2.0156 -0.96094,0 -1.8086,-0.1875 -2.5469,-0.5625 -0.73047,-0.38281 -1.3984,-0.97656 -2,-1.7812 V -2e-5 H 2.1094 v -19.109 h 4.4062 z"
         id="path1015" />
    </symbol>
    <symbol
       id="j"
       overflow="visible">
      <path
         d="m 0.3125,-13.75 h 4.3906 l 3.7031,9.3281 3.1406,-9.3281 h 4.3906 L 10.1562,1.297 C 9.57026,2.8282 8.8945,3.8947 8.125,4.5001 7.35156,5.11338 6.332,5.42198 5.0625,5.42198 H 2.5156 v -2.875 h 1.375 c 0.75,0 1.2891,-0.12109 1.625,-0.35938 C 5.85935,1.94541 6.12498,1.51963 6.31248,0.9064 l 0.125,-0.375 z"
         id="path1018" />
    </symbol>
    <symbol
       id="f"
       overflow="visible">
      <path
         d="M 15.938,-8.375 V 0 h -4.4219 v -6.3906 c 0,-1.1953 -0.02734,-2.0195 -0.07813,-2.4688 -0.05469,-0.45703 -0.14062,-0.78906 -0.26562,-1 -0.17969,-0.28906 -0.41797,-0.51562 -0.71875,-0.67188 -0.29297,-0.15625 -0.625,-0.23438 -1,-0.23438 -0.91797,0 -1.6367,0.35547 -2.1562,1.0625 -0.52344,0.71094 -0.78125,1.6875 -0.78125,2.9375 V -6e-5 h -4.4062 v -19.109 h 4.4062 v 7.3594 c 0.65625,-0.80078 1.3516,-1.3906 2.0938,-1.7656 0.75,-0.38281 1.5781,-0.57812 2.4844,-0.57812 1.582,0 2.7852,0.49219 3.6094,1.4688 0.82031,0.96875 1.2344,2.3867 1.2344,4.25 z"
         id="path1021" />
    </symbol>
    <symbol
       id="h"
       overflow="visible">
      <path
         d="M 2.1094,-13.75 H 6.5156 V 0 H 2.1094 Z m 0,-5.3594 h 4.4062 v 3.5781 H 2.1094 Z"
         id="path1024" />
    </symbol>
    <symbol
       id="u"
       overflow="visible">
      <path
         d="m 9.0312,-10.203 c 0.98828,0 1.6953,-0.17969 2.125,-0.54688 0.42578,-0.375 0.64062,-0.98438 0.64062,-1.8281 0,-0.83203 -0.21484,-1.4258 -0.64062,-1.7812 -0.42969,-0.36328 -1.1367,-0.54688 -2.125,-0.54688 h -2 v 4.7031 z m -2,3.2656 V 1e-4 H 2.3124 v -18.344 h 7.2188 c 2.4141,0 4.1875,0.40625 5.3125,1.2188 1.125,0.81255 1.6875,2.0938 1.6875,3.8438 0,1.2188 -0.29297,2.2188 -0.875,3 -0.58594,0.77344 -1.4648,1.3398 -2.6406,1.7031 0.64453,0.14844 1.2227,0.48047 1.7344,1 0.50781,0.52344 1.0234,1.3125 1.5469,2.375 l 2.5781,5.2031 h -5.0469 l -2.2344,-4.5625 c -0.44922,-0.91406 -0.90625,-1.5391 -1.375,-1.875 -0.46094,-0.33203 -1.0742,-0.5 -1.8438,-0.5 z"
         id="path1027" />
    </symbol>
    <symbol
       id="c"
       overflow="visible">
      <path
         d="m 8.6562,-10.938 c -0.96875,0 -1.7148,0.35156 -2.2344,1.0469 -0.51172,0.69922 -0.76562,1.7109 -0.76562,3.0312 0,1.3125 0.25391,2.3242 0.76562,3.0312 0.51953,0.69922 1.2656,1.0469 2.2344,1.0469 0.95703,0 1.6914,-0.34766 2.2031,-1.0469 0.50781,-0.70703 0.76562,-1.7188 0.76562,-3.0312 0,-1.3203 -0.25781,-2.332 -0.76562,-3.0312 -0.51172,-0.69531 -1.2461,-1.0469 -2.2031,-1.0469 z m 0,-3.1562 c 2.3633,0 4.2109,0.64062 5.5469,1.9219 1.332,1.2812 2,3.0547 2,5.3125 0,2.2617 -0.66797,4.0312 -2,5.3125 -1.3359,1.2734 -3.1836,1.9062 -5.5469,1.9062 -2.375,0 -4.2344,-0.63281 -5.5781,-1.9062 -1.3359,-1.2812 -2,-3.0508 -2,-5.3125 0,-2.2578 0.66406,-4.0312 2,-5.3125 1.3438,-1.2812 3.2031,-1.9219 5.5781,-1.9219 z"
         id="path1030" />
    </symbol>
    <symbol
       id="g"
       overflow="visible">
      <path
         d="m 12.859,-13.328 v 3.3438 c -0.9375,-0.39453 -1.8516,-0.69141 -2.7344,-0.89062 -0.875,-0.19531 -1.6992,-0.29688 -2.4688,-0.29688 -0.83594,0 -1.4531,0.10547 -1.8594,0.3125 -0.40625,0.21094 -0.60938,0.53125 -0.60938,0.96875 0,0.35547 0.14844,0.625 0.45312,0.8125 0.3125,0.1875 0.86328,0.32812 1.6562,0.42188 l 0.76562,0.10938 c 2.2578,0.28125 3.7734,0.75 4.5469,1.4062 0.78125,0.65625 1.1719,1.6875 1.1719,3.0938 0,1.4609 -0.54297,2.5586 -1.625,3.2969 -1.0742,0.74219 -2.6836,1.1094 -4.8281,1.1094 -0.91797,0 -1.8594,-0.074219 -2.8281,-0.21875 -0.96875,-0.14453 -1.9648,-0.35938 -2.9844,-0.64062 v -3.3438 c 0.875,0.42969 1.7695,0.75 2.6875,0.96875 0.92578,0.21094 1.8633,0.3125 2.8125,0.3125 0.85156,0 1.5,-0.11719 1.9375,-0.35938 0.4375,-0.23828 0.65625,-0.59375 0.65625,-1.0625 0,-0.38281 -0.15234,-0.67188 -0.45312,-0.85938 C 8.8511,-5.03888 8.25735,-5.19513 7.37459,-5.31232 L 6.59334,-5.40607 c -1.9609,-0.23828 -3.3359,-0.69141 -4.125,-1.3594 -0.78125,-0.66406 -1.1719,-1.6758 -1.1719,-3.0312 0,-1.4453 0.5,-2.5234 1.5,-3.2344 1,-0.70703 2.5312,-1.0625 4.5938,-1.0625 0.8125,0 1.6602,0.0625 2.5469,0.1875 0.89453,0.125 1.8672,0.32031 2.9219,0.57812 z"
         id="path1033" />
    </symbol>
    <symbol
       id="t"
       overflow="visible">
      <path
         d="m 11.172,-19.109 v 2.8906 H 8.7345 c -0.625,0 -1.0625,0.11719 -1.3125,0.34375 -0.24219,0.21875 -0.35938,0.60547 -0.35938,1.1562 v 0.96875 h 3.7656 v 3.1406 H 7.06262 V -1e-4 h -4.3906 v -10.609 h -2.1875 v -3.1406 h 2.1875 v -0.96875 c 0,-1.5 0.41406,-2.6016 1.25,-3.3125 0.83203,-0.71875 2.125,-1.0781 3.875,-1.0781 z"
         id="path1036" />
    </symbol>
    <symbol
       id="s"
       overflow="visible">
      <path
         d="m 14.859,-11.469 c 0.5625,-0.85156 1.2227,-1.5039 1.9844,-1.9531 0.76953,-0.44531 1.6133,-0.67188 2.5312,-0.67188 1.5703,0 2.7695,0.49219 3.5938,1.4688 0.83203,0.96875 1.25,2.3867 1.25,4.25 v 8.375 h -4.4219 v -7.1719 c 0.0078,-0.10156 0.01563,-0.21094 0.01563,-0.32812 0.0078,-0.11328 0.01563,-0.28125 0.01563,-0.5 0,-0.96875 -0.14844,-1.6719 -0.4375,-2.1094 -0.28125,-0.4375 -0.74609,-0.65625 -1.3906,-0.65625 -0.83594,0 -1.4805,0.34375 -1.9375,1.0312 -0.44922,0.6875 -0.68359,1.6836 -0.70312,2.9844 v 6.75 h -4.4219 v -7.1719 c 0,-1.5195 -0.13281,-2.5 -0.39062,-2.9375 -0.26172,-0.4375 -0.72656,-0.65625 -1.3906,-0.65625 -0.84375,0 -1.4961,0.34375 -1.9531,1.0312 -0.46094,0.6875 -0.6875,1.6797 -0.6875,2.9688 V -3e-4 h -4.4219 v -13.75 h 4.4219 v 2 c 0.53906,-0.76953 1.1602,-1.3516 1.8594,-1.75 0.69531,-0.39453 1.4688,-0.59375 2.3125,-0.59375 0.94531,0 1.7852,0.23047 2.5156,0.6875 0.72656,0.46094 1.2812,1.1055 1.6562,1.9375 z"
         id="path1039" />
    </symbol>
    <symbol
       id="r"
       overflow="visible">
      <path
         d="m 2.3125,-18.344 h 5.2812 l 6.6719,12.578 V -18.344 H 18.75 V 0 H 13.4688 L 6.7969,-12.578 V 0 H 2.3125 Z"
         id="path1042" />
    </symbol>
    <symbol
       id="q"
       overflow="visible">
      <path
         d="M 1.9688,-5.3594 V -13.75 h 4.4219 v 1.375 c 0,0.74219 -0.00781,1.6719 -0.015625,2.7969 -0.011719,1.125 -0.015625,1.875 -0.015625,2.25 0,1.1172 0.023437,1.918 0.078125,2.4062 0.0625,0.48047 0.16406,0.82812 0.3125,1.0469 0.17578,0.29297 0.41016,0.51562 0.70312,0.67188 0.28906,0.15625 0.625,0.23438 1,0.23438 0.91406,0 1.6328,-0.34766 2.1562,-1.0469 0.53125,-0.70703 0.79688,-1.6914 0.79688,-2.9531 v -6.7812 h 4.3906 V 6e-5 h -4.3906 v -1.9844 c -0.66797,0.80469 -1.3711,1.3984 -2.1094,1.7812 -0.74219,0.375 -1.5586,0.5625 -2.4531,0.5625 -1.5938,0 -2.8086,-0.48438 -3.6406,-1.4531 -0.82422,-0.97656 -1.2344,-2.3984 -1.2344,-4.2656 z"
         id="path1045" />
    </symbol>
    <symbol
       id="p"
       overflow="visible">
      <path
         d="M 15.938,-8.375 V 0 h -4.4219 v -6.4062 c 0,-1.1875 -0.02734,-2.0039 -0.07813,-2.4531 -0.05469,-0.45703 -0.14062,-0.78906 -0.26562,-1 -0.17969,-0.28906 -0.41797,-0.51562 -0.71875,-0.67188 -0.29297,-0.15625 -0.625,-0.23438 -1,-0.23438 -0.91797,0 -1.6367,0.35547 -2.1562,1.0625 -0.52344,0.71094 -0.78125,1.6875 -0.78125,2.9375 V 4e-5 h -4.4062 v -13.75 h 4.4062 v 2 c 0.65625,-0.80078 1.3516,-1.3906 2.0938,-1.7656 0.75,-0.38281 1.5781,-0.57812 2.4844,-0.57812 1.582,0 2.7852,0.49219 3.6094,1.4688 0.82031,0.96875 1.2344,2.3867 1.2344,4.25 z"
         id="path1048" />
    </symbol>
    <symbol
       id="o"
       overflow="visible">
      <path
         d="m 2.3125,-18.344 h 7.8438 c 2.332,0 4.125,0.52344 5.375,1.5625 1.25,1.0312 1.875,2.5078 1.875,4.4219 0,1.9297 -0.625,3.4141 -1.875,4.4531 -1.25,1.0312 -3.043,1.5469 -5.375,1.5469 H 7.0313 V -2e-4 H 2.3125 Z m 4.7188,3.4375 v 5.1094 h 2.625 c 0.91406,0 1.625,-0.21875 2.125,-0.65625 0.5,-0.44531 0.75,-1.082 0.75,-1.9062 0,-0.8125 -0.25,-1.4375 -0.75,-1.875 -0.5,-0.44531 -1.2109,-0.67188 -2.125,-0.67188 z"
         id="path1051" />
    </symbol>
    <symbol
       id="n"
       overflow="visible">
      <path
         d="m 2.1094,-13.75 h 4.4062 v 13.5 C 6.5156,1.5938 6.07029,3 5.1875,3.9688 4.30078,4.93755 3.0195,5.4219 1.3437,5.4219 h -2.1719 v -2.875 h 0.75 c 0.83203,0 1.4062,-0.19531 1.7188,-0.57812 0.3125,-0.375 0.46875,-1.1172 0.46875,-2.2188 z m 0,-5.3594 h 4.4062 v 3.5781 H 2.1094 Z"
         id="path1054" />
    </symbol>
    <symbol
       id="m"
       overflow="visible">
      <path
         d="m 13.234,-13.328 v 3.5938 c -0.60547,-0.41406 -1.2109,-0.71875 -1.8125,-0.90625 -0.59375,-0.19531 -1.2148,-0.29688 -1.8594,-0.29688 -1.2305,0 -2.1875,0.35938 -2.875,1.0781 -0.6875,0.71094 -1.0312,1.7109 -1.0312,3 0,1.2812 0.34375,2.2812 1.0312,3 0.68745,0.7188 1.6445,1.0781 2.875,1.0781 0.6875,0 1.3359,-0.10156 1.9531,-0.3125 0.61328,-0.20703 1.1875,-0.50781 1.7188,-0.90625 v 3.5938 c -0.6875,0.25 -1.3867,0.4375 -2.0938,0.5625 -0.71094,0.13281 -1.4219,0.20312 -2.1406,0.20312 -2.4805,0 -4.4219,-0.63281 -5.8281,-1.9062 -1.3984,-1.2812 -2.0938,-3.0508 -2.0938,-5.3125 0,-2.2695 0.69531,-4.0391 2.0938,-5.3125 1.4062,-1.2812 3.3477,-1.9219 5.8281,-1.9219 0.71875,0 1.4258,0.07031 2.125,0.20312 0.70703,0.125 1.4102,0.3125 2.1094,0.5625 z"
         id="path1057" />
    </symbol>
  </defs>
  <g
     id="g1164">
    <path
       d="m 117.04,356.73 c 21.133,0 38.742,17.105 38.742,38.742 0,21.133 -17.105,38.742 -38.742,38.742 -21.133,0 -38.742,-17.105 -38.742,-38.742 0.50391,-21.133 17.609,-38.742 38.742,-38.742 m 0,-20.125 c -32.203,0 -58.867,26.164 -58.867,58.867 0,32.203 26.164,58.867 58.867,58.867 32.707,-0.50391 58.867,-26.668 58.867,-58.867 0,-32.707 -26.16,-58.867 -58.867,-58.867 z"
       id="path1062" />
    <path
       d="m 184.46,560 h -20.125 v -48.805 c 0,-25.66 -21.133,-46.793 -46.793,-46.793 -25.66,0 -47.297,20.629 -47.297,46.793 V 560 H 50.12 v -48.805 c 0,-37.234 30.188,-66.918 66.918,-66.918 36.73,0 66.918,30.188 66.918,66.918 V 560 Z"
       id="path1064" />
    <path
       d="m 272.52,356.73 c 21.133,0 38.742,17.105 38.742,38.742 0,21.133 -17.105,38.742 -38.742,38.742 -21.637,0 -38.742,-17.105 -38.742,-38.742 0,-21.133 17.105,-38.742 38.742,-38.742 m 0,-20.125 c -32.203,0 -58.867,26.164 -58.867,58.867 0,32.203 26.164,58.867 58.867,58.867 32.203,0 58.867,-26.164 58.867,-58.867 -0.50391,-32.707 -26.664,-58.867 -58.867,-58.867 z"
       id="path1066" />
    <path
       d="m 339.43,560 h -20.125 v -48.805 c 0,-25.66 -21.133,-46.793 -46.793,-46.793 -25.66,0 -46.793,21.133 -46.793,46.793 V 560 h -20.125 v -48.805 c 0,-37.234 30.188,-66.918 66.918,-66.918 36.73,0 66.918,30.188 66.918,66.918 z"
       id="path1068" />
    <path
       d="m 427.48,356.73 c 21.133,0 38.742,17.105 38.742,38.742 0,21.133 -17.105,38.742 -38.742,38.742 -21.133,0 -38.742,-17.105 -38.742,-38.742 0,-21.133 17.609,-38.742 38.742,-38.742 m 0,-20.125 c -32.203,0 -58.867,26.164 -58.867,58.867 0,32.203 26.164,58.867 58.867,58.867 32.203,0 58.867,-26.164 58.867,-58.867 0,-32.707 -26.668,-58.867 -58.867,-58.867 z"
       id="path1070" />
    <path
       d="m 494.4,560 h -20.125 v -48.805 c 0,-25.66 -21.133,-46.793 -46.793,-46.793 -25.66,0 -46.793,21.133 -46.793,46.793 V 560 h -20.125 v -48.805 c 0,-37.234 30.188,-66.918 66.918,-66.918 36.73,0 66.918,30.188 66.918,66.918 z"
       id="path1072" />
    <path
       d="m 582.45,356.73 c 21.133,0 38.742,17.105 38.742,38.742 0,21.133 -17.105,38.742 -38.742,38.742 -21.133,0 -38.742,-17.105 -38.742,-38.742 0.50391,-21.133 17.609,-38.742 38.742,-38.742 m 0,-20.125 c -32.203,0 -58.867,26.164 -58.867,58.867 0,32.203 26.164,58.867 58.867,58.867 32.203,0 58.867,-26.164 58.867,-58.867 0,-32.707 -26.164,-58.867 -58.867,-58.867 z"
       id="path1074" />
    <path
       d="m 649.88,560 h -20.125 v -48.805 c 0,-25.66 -21.133,-46.793 -46.793,-46.793 -25.66,0 -46.793,21.133 -46.793,46.793 V 560 h -20.125 v -48.805 c 0,-37.234 30.188,-66.918 66.918,-66.918 36.73,0 66.918,30.188 66.918,66.918 z"
       id="path1076" />
    <path
       d="m 384.72,20.125 v 285.28 l -292.83,0.004 V 20.118906 h 292.83 m 2.5156,-20.125 h -297.86 c -10.062,0 -17.609,8.0508 -17.609,17.609 V 307.92291 c 0,9.5586 8.0508,17.609 17.609,17.609 h 297.86 c 9.5586,0 17.609,-8.0508 17.609,-17.609 V 17.602906 c 0,-9.5586 -8.0508,-17.609 -17.609,-17.609 z"
       id="path1078" />
    <path
       d="m 569.37,122.27 c 21.133,0 38.742,17.105 38.742,38.742 0,21.133 -17.105,38.742 -38.742,38.742 -21.637,0 -38.742,-17.105 -38.742,-38.742 0.50391,-21.133 17.609,-38.742 38.742,-38.742 m 0,-20.129 c -32.203,0 -58.867,26.164 -58.867,58.867 0,32.203 26.164,58.867 58.867,58.867 32.703,0 58.867,-26.164 58.867,-58.867 0,-32.199 -26.164,-58.867 -58.867,-58.867 z"
       id="path1080" />
    <path
       d="m 636.79,325.54 h -20.125 v -48.805 c 0,-25.66 -21.133,-46.793 -46.793,-46.793 -12.578,0 -25.156,5.5352 -34.215,15.094 l -14.59,-14.09 c 12.578,-13.082 30.188,-21.133 48.805,-21.133 37.234,0 67.422,30.188 67.422,66.918 v 48.809 z"
       id="path1082" />
    <path
       d="m 530.12,249.05 -53.836,-47.797 13.082,-15.094 47.297,42.262 -4.5312,5.0352 7.0469,7.5469 z"
       id="path1084" />
    <path
       d="m 522.58,325.54 h -20.125 v -48.805 c 0,-2.5156 0,-5.0312 0.50391,-7.5469 l -86.543,-75.473 c -9.0547,-8.0508 -10.062,-21.133 -3.0195,-30.691 l 2.0117,-3.5234 c 4.0234,-5.5352 13.082,-11.574 22.137,-12.074 5.0312,-0.50391 9.5586,1.0078 13.082,4.5273 l 39.246,34.719 -13.586,15.094 -38.238,-33.711 c -2.0117,0.50391 -5.0312,2.5156 -6.5391,4.0234 l -2.0117,3.5234 c -1.0078,1.0078 -0.50391,2.5156 0.50391,3.0195 l 94.59,83.02 -1.0078,5.5352 c -0.50391,3.0195 -1.0078,6.0391 -1.0078,9.0547 z"
       id="path1086" />
  </g>
</svg>
