<?xml version="1.0" encoding="UTF-8" standalone="no"?>
<svg
   width="600pt"
   height="400pt"
   version="1.1"
   viewBox="0 0 600 400"
   id="svg161"
   sodipodi:docname="noun-drone-1014868.svg"
   inkscape:version="1.1.1 (3bf5ae0d25, 2021-09-20)"
   xmlns:inkscape="http://www.inkscape.org/namespaces/inkscape"
   xmlns:sodipodi="http://sodipodi.sourceforge.net/DTD/sodipodi-0.dtd"
   xmlns="http://www.w3.org/2000/svg"
   xmlns:svg="http://www.w3.org/2000/svg">
  <sodipodi:namedview
     id="namedview163"
     pagecolor="#ffffff"
     bordercolor="#666666"
     borderopacity="1.0"
     inkscape:pageshadow="2"
     inkscape:pageopacity="0.0"
     inkscape:pagecheckerboard="0"
     inkscape:document-units="pt"
     showgrid="false"
     inkscape:zoom="0.77035714"
     inkscape:cx="466.66667"
     inkscape:cy="475.10431"
     inkscape:window-width="1920"
     inkscape:window-height="992"
     inkscape:window-x="-8"
     inkscape:window-y="-8"
     inkscape:window-maximized="1"
     inkscape:current-layer="g159" />
  <defs
     id="defs71">
    <symbol
       id="w"
       overflow="visible">
      <path
         d="M 1.875,-0.10938 C 1.78125,-0.054692 1.67969,-0.019536 1.57812,0 1.47265,0.03125 1.36328,0.046875 1.25,0.046875 c -0.34375,0 -0.61719,-0.09375 -0.8125,-0.28125 -0.19922,-0.19531 -0.29688,-0.45703 -0.29688,-0.78125 0,-0.32031 0.097656,-0.57812 0.29688,-0.76562 0.19531,-0.19531 0.46875,-0.29688 0.8125,-0.29688 0.11328,0 0.22266,0.015625 0.32812,0.046875 0.10156,0.023438 0.20312,0.058594 0.29688,0.10938 v 0.42188 C 1.78125,-1.570302 1.67969,-1.61718 1.57812,-1.64061 1.48437,-1.67186 1.38281,-1.687485 1.28124,-1.687485 c -0.1875,0 -0.33594,0.0625 -0.4375,0.1875 -0.10547,0.11719 -0.15625,0.27734 -0.15625,0.48438 0,0.21094 0.050781,0.375 0.15625,0.5 0.10156,0.11719 0.25,0.17188 0.4375,0.17188 0.10156,0 0.20312,-0.015625 0.29688,-0.046875 0.10156,-0.03125 0.20312,-0.078125 0.29688,-0.14062 z"
         id="path2" />
    </symbol>
    <symbol
       id="c"
       overflow="visible">
      <path
         d="M 1.375,-1.1094 C 1.332031,-1.128931 1.289062,-1.144556 1.25,-1.156275 1.207031,-1.164087 1.160156,-1.1719 1.10938,-1.1719 c -0.125,0 -0.22656,0.042969 -0.29688,0.125 C 0.75,-0.972681 0.71875,-0.8594 0.71875,-0.70315 V -3e-5 H 0.23437 v -1.5312 h 0.48438 v 0.25 c 0.0625,-0.09375 0.13281,-0.16016 0.21875,-0.20312 0.082031,-0.050781 0.17969,-0.078125 0.29688,-0.078125 h 0.046875 0.09375 z"
         id="path5" />
    </symbol>
    <symbol
       id="a"
       overflow="visible">
      <path
         d="M 1.7656,-0.76562 V -0.625 H 0.625 c 0.007812,0.11719 0.046875,0.20312 0.10938,0.26562 0.070313,0.054687 0.17578,0.078125 0.3125,0.078125 0.09375,0 0.19141,-0.015625 0.29688,-0.046875 0.11328,-0.03125 0.22656,-0.078125 0.34375,-0.14062 v 0.375 C 1.57032,-0.050781 1.45704,-0.019531 1.34376,0 1.22657,0.03125 1.11329,0.046875 1.00001,0.046875 c -0.28125,0 -0.5,-0.066406 -0.65625,-0.20312 -0.14844,-0.14453 -0.21875,-0.34766 -0.21875,-0.60938 0,-0.25 0.070312,-0.44141 0.21875,-0.57812 0.15625,-0.14453 0.36328,-0.21875 0.625,-0.21875 0.23828,0 0.42969,0.074219 0.57812,0.21875 0.14453,0.14844 0.21875,0.33984 0.21875,0.57812 z m -0.5,-0.17188 c 0,-0.09375 -0.03125,-0.16406 -0.09375,-0.21875 -0.054687,-0.050781 -0.12109,-0.078125 -0.20312,-0.078125 -0.09375,0 -0.17188,0.027344 -0.23438,0.078125 -0.0625,0.054688 -0.10156,0.125 -0.10938,0.21875 z"
         id="path8" />
    </symbol>
    <symbol
       id="e"
       overflow="visible">
      <path
         d="m 0.92188,-0.6875 c -0.10547,0 -0.18359,0.023438 -0.23438,0.0625 -0.054688,0.03125 -0.078125,0.078125 -0.078125,0.14062 0,0.062495 0.019531,0.11719 0.0625,0.15625 0.039063,0.03125 0.097656,0.046875 0.17188,0.046875 0.09375,0 0.17188,-0.03125 0.23438,-0.09375 0.0625,-0.070312 0.09375,-0.15625 0.09375,-0.25 v -0.0625 z m 0.75,-0.1875 V 0 h -0.5 V -0.23438 C 1.10938,-0.14063 1.03516,-0.06641 0.95313,-0.01563 0.867193,0.023432 0.76954,0.04687 0.65625,0.04687 0.5,0.04687 0.36719,-5e-6 0.26563,-0.09375 0.17188,-0.1875 0.12501,-0.30469 0.12501,-0.45313 c 0,-0.1875 0.054688,-0.32031 0.17188,-0.40625 0.125,-0.082031 0.32031,-0.125 0.59375,-0.125 h 0.28125 v -0.03125 c 0,-0.082031 -0.03125,-0.14062 -0.09375,-0.17188 -0.0625,-0.03126 -0.15625,-0.046875 -0.28125,-0.046875 -0.10547,0 -0.20312,0.011719 -0.29688,0.03125 -0.085938,0.023437 -0.16797,0.054687 -0.25,0.09375 v -0.375 c 0.10156,-0.03125 0.20703,-0.050781 0.3125,-0.0625 0.11328,-0.00781 0.22266,-0.015625 0.32812,-0.015625 0.26953,0 0.46875,0.058594 0.59375,0.17188 0.125,0.10547 0.1875,0.27734 0.1875,0.51562 z"
         id="path11" />
    </symbol>
    <symbol
       id="d"
       overflow="visible">
      <path
         d="m 0.76562,-1.9688 v 0.4375 h 0.5 v 0.34375 h -0.5 v 0.65625 c 0,0.074219 0.015625,0.125 0.046875,0.15625 0.03125,0.023438 0.085938,0.03125 0.17188,0.03125 h 0.25 V -5e-5 h -0.42188 c -0.19922,0 -0.33984,-0.035156 -0.42188,-0.10938 -0.074219,-0.082031 -0.10938,-0.22266 -0.10938,-0.42188 v -0.65625 h -0.25 v -0.34375 h 0.25 v -0.4375 z"
         id="path14" />
    </symbol>
    <symbol
       id="l"
       overflow="visible">
      <path
         d="M 1.2812,-1.3125 V -2.125 H 1.76558 V 0 H 1.2812 v -0.21875 c -0.074219,0.085938 -0.15234,0.15234 -0.23438,0.20312 -0.074219,0.039062 -0.16797,0.0625 -0.28125,0.0625 -0.1875,0 -0.34375,-0.070312 -0.46875,-0.21875 -0.11719,-0.15625 -0.17188,-0.35156 -0.17188,-0.59375 0,-0.22656 0.054688,-0.41406 0.17188,-0.5625 0.125,-0.15625 0.28125,-0.23438 0.46875,-0.23438 0.11328,0 0.20703,0.023438 0.28125,0.0625 0.082031,0.042969 0.16016,0.10547 0.23438,0.1875 z m -0.32812,1 c 0.10156,0 0.17969,-0.035156 0.23438,-0.10938 0.0625,-0.082031 0.09375,-0.19531 0.09375,-0.34375 0,-0.14453 -0.03125,-0.25391 -0.09375,-0.32812 -0.054688,-0.082031 -0.13281,-0.125 -0.23438,-0.125 -0.10547,0 -0.1875,0.042969 -0.25,0.125 -0.054687,0.074219 -0.078125,0.18359 -0.078125,0.32812 0,0.14844 0.023438,0.26172 0.078125,0.34375 0.0625,0.074219 0.14453,0.10938 0.25,0.10938 z"
         id="path17" />
    </symbol>
    <symbol
       id="k"
       overflow="visible">
      <path
         d="m 1.0469,-0.3125 c 0.10156,0 0.17969,-0.035156 0.23438,-0.10938 0.0625,-0.082031 0.09375,-0.19531 0.09375,-0.34375 0,-0.14453 -0.03125,-0.25391 -0.09375,-0.32812 -0.054688,-0.082031 -0.13281,-0.125 -0.23438,-0.125 -0.10547,0 -0.1875,0.042969 -0.25,0.125 -0.054687,0.074219 -0.078125,0.18359 -0.078125,0.32812 0,0.14844 0.023438,0.26172 0.078125,0.34375 0.0625,0.074219 0.14453,0.10938 0.25,0.10938 z m -0.32812,-1 C 0.789092,-1.394531 0.86722,-1.45703 0.95316,-1.5 c 0.082031,-0.039062 0.17578,-0.0625 0.28125,-0.0625 0.1875,0 0.33594,0.078125 0.45312,0.23438 0.125,0.14844 0.1875,0.33594 0.1875,0.5625 0,0.24219 -0.0625,0.4375 -0.1875,0.59375 -0.11719,0.14844 -0.26562,0.21875 -0.45312,0.21875 -0.10547,0 -0.19922,-0.023438 -0.28125,-0.0625 C 0.867223,-0.066401 0.7891,-0.13281 0.71878,-0.21874 V 1e-5 H 0.2344 v -2.125 h 0.48438 z"
         id="path20" />
    </symbol>
    <symbol
       id="j"
       overflow="visible">
      <path
         d="m 0.03125,-1.5312 h 0.48438 l 0.42188,1.0469 0.34375,-1.0469 H 1.76564 L 1.12502,0.1407 C 1.06252,0.31648 0.9883,0.43758 0.90627,0.50008 0.820332,0.570392 0.70705,0.60946 0.56252,0.60946 H 0.28127 V 0.28134 h 0.15625 c 0.082031,0 0.14062,-0.015625 0.17188,-0.046875 0.039063,-0.023437 0.070313,-0.070313 0.09375,-0.14062 l 0.015625,-0.03125 z"
         id="path23" />
    </symbol>
    <symbol
       id="i"
       overflow="visible">
      <path
         d="M 0.23438,-2.125 H 0.71876 V 0 H 0.23438 Z"
         id="path26" />
    </symbol>
    <symbol
       id="b"
       overflow="visible">
      <path
         d="m 0.96875,-1.2188 c -0.11719,0 -0.20312,0.042969 -0.26562,0.125 -0.054687,0.074219 -0.078125,0.18359 -0.078125,0.32812 0,0.14844 0.023438,0.26172 0.078125,0.34375 0.0625,0.074219 0.14844,0.10938 0.26562,0.10938 0.10156,0 0.17969,-0.035156 0.23438,-0.10938 0.0625,-0.082031 0.09375,-0.19531 0.09375,-0.34375 0,-0.14453 -0.03125,-0.25391 -0.09375,-0.32812 -0.054687,-0.082031 -0.13281,-0.125 -0.23438,-0.125 z m 0,-0.34375 c 0.25781,0 0.46094,0.074219 0.60938,0.21875 0.14453,0.13672 0.21875,0.32812 0.21875,0.57812 0,0.25 -0.074219,0.44922 -0.21875,0.59375 -0.14844,0.14844 -0.35156,0.21875 -0.60938,0.21875 -0.27344,0 -0.48047,-0.070312 -0.625,-0.21875 C 0.19531,-0.31646 0.125,-0.51568 0.125,-0.76568 c 0,-0.25 0.070312,-0.44141 0.21875,-0.57812 0.14453,-0.14453 0.35156,-0.21875 0.625,-0.21875 z"
         id="path29" />
    </symbol>
    <symbol
       id="v"
       overflow="visible">
      <path
         d="m 0.15625,-1 h 0.85938 v 0.39062 H 0.15625 Z"
         id="path32" />
    </symbol>
    <symbol
       id="u"
       overflow="visible">
      <path
         d="M 1.2812,-0.26562 C 1.206981,-0.17187 1.12886,-0.10156 1.04682,-0.0625 0.972601,-0.019531 0.87885,0 0.76557,0 0.57807,0 0.42182,-0.070312 0.29682,-0.21875 0.17963,-0.36328 0.12494,-0.55078 0.12494,-0.78125 c 0,-0.22656 0.054688,-0.41406 0.17188,-0.5625 0.125,-0.14453 0.28125,-0.21875 0.46875,-0.21875 0.11328,0 0.20703,0.023438 0.28125,0.0625 0.082031,0.042969 0.16016,0.10938 0.23438,0.20312 v -0.23438 h 0.48438 v 1.375 c 0,0.25 -0.078125,0.4375 -0.23438,0.5625 C 1.37495,0.53905 1.14839,0.60936 0.85932,0.60936 0.76557,0.60936 0.67182,0.597641 0.57807,0.57811 0.492133,0.566391 0.40619,0.54686 0.31245,0.51561 v -0.375 c 0.082031,0.039063 0.16406,0.070313 0.25,0.09375 0.082031,0.03125 0.16406,0.046875 0.25,0.046875 0.15625,0 0.26953,-0.039062 0.34375,-0.10938 0.082031,-0.074219 0.125,-0.17969 0.125,-0.32812 z M 0.95308,-1.21874 c -0.10547,0 -0.1875,0.042969 -0.25,0.125 -0.054687,0.074219 -0.078125,0.17969 -0.078125,0.3125 0,0.13672 0.023438,0.24219 0.078125,0.3125 0.0625,0.074219 0.14453,0.10938 0.25,0.10938 0.10156,0 0.17969,-0.035156 0.23438,-0.10938 0.0625,-0.070312 0.09375,-0.17578 0.09375,-0.3125 0,-0.13281 -0.03125,-0.23828 -0.09375,-0.3125 -0.054688,-0.082031 -0.13281,-0.125 -0.23438,-0.125 z"
         id="path35" />
    </symbol>
    <symbol
       id="t"
       overflow="visible">
      <path
         d="M 0.71875,-0.21875 V 0.57813 H 0.23437 v -2.1094 h 0.48438 v 0.21875 c 0.070312,-0.082031 0.14844,-0.14453 0.23438,-0.1875 0.082031,-0.039062 0.17578,-0.0625 0.28125,-0.0625 0.1875,0 0.33594,0.078125 0.45312,0.23438 0.125,0.14844 0.1875,0.33594 0.1875,0.5625 0,0.24219 -0.0625,0.4375 -0.1875,0.59375 -0.11719,0.14844 -0.26562,0.21875 -0.45312,0.21875 -0.10547,0 -0.19922,-0.023438 -0.28125,-0.0625 C 0.867193,-0.066421 0.78907,-0.13283 0.71875,-0.21876 Z m 0.32812,-1 c -0.10547,0 -0.1875,0.042969 -0.25,0.125 -0.054687,0.074219 -0.078125,0.18359 -0.078125,0.32812 0,0.14844 0.023438,0.26172 0.078125,0.34375 0.0625,0.074219 0.14453,0.10938 0.25,0.10938 0.10156,0 0.17969,-0.035156 0.23438,-0.10938 0.0625,-0.082031 0.09375,-0.19531 0.09375,-0.34375 0,-0.14453 -0.03125,-0.25391 -0.09375,-0.32812 -0.054688,-0.082031 -0.13281,-0.125 -0.23438,-0.125 z"
         id="path38" />
    </symbol>
    <symbol
       id="h"
       overflow="visible">
      <path
         d="M 1.7656,-0.9375 V 0 H 1.28122 v -0.70312 c 0,-0.13281 -0.00781,-0.22656 -0.015625,-0.28125 0,-0.050781 -0.011719,-0.085937 -0.03125,-0.10938 C 1.222626,-1.125 1.195282,-1.148438 1.15622,-1.171875 1.12497,-1.191406 1.085908,-1.203125 1.04684,-1.203125 c -0.09375,0 -0.17188,0.042969 -0.23438,0.125 -0.0625,0.074219 -0.09375,0.18359 -0.09375,0.32812 v 0.75 H 0.23433 v -2.125 h 0.48438 v 0.8125 c 0.070312,-0.082031 0.14844,-0.14453 0.23438,-0.1875 0.082031,-0.039062 0.17578,-0.0625 0.28125,-0.0625 0.17578,0 0.30469,0.058594 0.39062,0.17188 0.09375,0.10547 0.14062,0.25781 0.14062,0.45312 z"
         id="path41" />
    </symbol>
    <symbol
       id="s"
       overflow="visible">
      <path
         d="m 0.28125,-0.53125 h 0.5 V 0 h -0.5 z"
         id="path44" />
    </symbol>
    <symbol
       id="g"
       overflow="visible">
      <path
         d="m 1.4688,-1.4844 v 0.40625 C 1.4063,-1.128931 1.33599,-1.164087 1.26568,-1.18753 1.20318,-1.207061 1.13287,-1.21878 1.06256,-1.21878 c -0.13672,0 -0.24609,0.042969 -0.32812,0.125 -0.074219,0.074219 -0.10938,0.18359 -0.10938,0.32812 0,0.14844 0.035156,0.26172 0.10938,0.34375 0.082031,0.074219 0.19141,0.10938 0.32812,0.10938 0.070312,0 0.14453,-0.007812 0.21875,-0.03125 0.070312,-0.019531 0.13281,-0.050781 0.1875,-0.09375 v 0.39062 C 1.394591,-0.01566 1.31647,0.003871 1.23443,0.01559 1.160211,0.035121 1.08209,0.04684 1.00005,0.04684 c -0.27344,0 -0.48438,-0.070312 -0.64062,-0.21875 -0.15625,-0.14453 -0.23438,-0.34375 -0.23438,-0.59375 0,-0.25 0.078125,-0.44141 0.23438,-0.57812 0.15625,-0.14453 0.36719,-0.21875 0.64062,-0.21875 0.082031,0 0.16016,0.00781 0.23438,0.015625 0.082031,0.011719 0.16016,0.03125 0.23438,0.0625 z"
         id="path47" />
    </symbol>
    <symbol
       id="f"
       overflow="visible">
      <path
         d="m 1.6562,-1.2812 c 0.0625,-0.09375 0.13281,-0.16016 0.21875,-0.20312 0.082031,-0.050781 0.17578,-0.078125 0.28125,-0.078125 0.17578,0 0.30469,0.058594 0.39062,0.17188 0.09375,0.10547 0.14062,0.25781 0.14062,0.45312 V 5.5e-5 H 2.20306 v -0.79688 -0.03125 -0.0625 c 0,-0.10156 -0.015625,-0.17969 -0.046875,-0.23438 -0.03125,-0.050781 -0.085938,-0.078125 -0.15625,-0.078125 -0.09375,0 -0.16797,0.042969 -0.21875,0.125 -0.042969,0.074219 -0.070312,0.18359 -0.078125,0.32812 V 4e-5 H 1.21868 v -0.79688 c 0,-0.16406 -0.015625,-0.27344 -0.046875,-0.32812 -0.03125,-0.050781 -0.085937,-0.078125 -0.15625,-0.078125 -0.09375,0 -0.16797,0.042969 -0.21875,0.125 -0.054687,0.074219 -0.078125,0.18359 -0.078125,0.32812 v 0.75 H 0.2343 v -1.5312 h 0.48438 v 0.21875 c 0.0625,-0.082031 0.12891,-0.14453 0.20312,-0.1875 0.082031,-0.039062 0.17188,-0.0625 0.26562,-0.0625 0.10156,0 0.19531,0.027344 0.28125,0.078125 0.082031,0.054687 0.14453,0.12109 0.1875,0.20312 z"
         id="path50" />
    </symbol>
    <symbol
       id="r"
       overflow="visible">
      <path
         d="m 1.2344,-2.125 v 0.32812 H 0.96878 c -0.0625,0 -0.10938,0.011719 -0.14062,0.03125 -0.03125,0.023437 -0.046875,0.0625 -0.046875,0.125 v 0.10938 h 0.42188 V -1.1875 H 0.781285 V 0 h -0.48438 v -1.1875 h -0.25 v -0.34375 h 0.25 v -0.10938 c 0,-0.16406 0.046875,-0.28516 0.14062,-0.35938 0.09375,-0.082031 0.23828,-0.125 0.4375,-0.125 z"
         id="path53" />
    </symbol>
    <symbol
       id="q"
       overflow="visible">
      <path
         d="m 0.25,-2.0312 h 0.59375 l 0.73438,1.3906 v -1.3906 h 0.5 V 0 H 1.50001 l -0.75,-1.4062 V 0 h -0.5 z"
         id="path56" />
    </symbol>
    <symbol
       id="p"
       overflow="visible">
      <path
         d="m 0.21875,-0.59375 v -0.9375 h 0.48438 v 0.15625 0.3125 0.25 0.26562 c 0.007813,0.054687 0.023437,0.089844 0.046875,0.10938 0.019531,0.042969 0.046875,0.074219 0.078125,0.09375 0.03125,0.011719 0.066406,0.015625 0.10938,0.015625 0.10156,0 0.17969,-0.035156 0.23438,-0.10938 0.0625,-0.082031 0.09375,-0.19531 0.09375,-0.34375 v -0.75 h 0.48438 v 1.5312 H 1.26564 v -0.21875 c -0.074219,0.085938 -0.15234,0.15234 -0.23438,0.20312 -0.085938,0.039062 -0.17188,0.0625 -0.26562,0.0625 -0.17969,0 -0.3125,-0.050781 -0.40625,-0.15625 -0.09375,-0.11328 -0.14062,-0.27344 -0.14062,-0.48438 z"
         id="path59" />
    </symbol>
    <symbol
       id="o"
       overflow="visible">
      <path
         d="M 1.7656,-0.9375 V 0 H 1.28122 v -0.71875 c 0,-0.125 -0.00781,-0.21094 -0.015625,-0.26562 0,-0.050781 -0.011719,-0.085937 -0.03125,-0.10938 C 1.222626,-1.125 1.195282,-1.148438 1.15622,-1.171875 1.12497,-1.191406 1.085908,-1.203125 1.04684,-1.203125 c -0.09375,0 -0.17188,0.042969 -0.23438,0.125 -0.0625,0.074219 -0.09375,0.18359 -0.09375,0.32812 v 0.75 H 0.23433 v -1.5312 h 0.48438 v 0.21875 c 0.070312,-0.082031 0.14844,-0.14453 0.23438,-0.1875 0.082031,-0.039062 0.17578,-0.0625 0.28125,-0.0625 0.17578,0 0.30469,0.058594 0.39062,0.17188 0.09375,0.10547 0.14062,0.25781 0.14062,0.45312 z"
         id="path62" />
    </symbol>
    <symbol
       id="n"
       overflow="visible">
      <path
         d="m 0.25,-2.0312 h 0.875 c 0.25781,0 0.45703,0.058594 0.59375,0.17188 0.14453,0.11719 0.21875,0.27734 0.21875,0.48438 0,0.21875 -0.074219,0.38672 -0.21875,0.5 C 1.58203,-0.75775 1.38281,-0.70306 1.125,-0.70306 H 0.78125 V 6e-5 H 0.25 Z m 0.53125,0.375 v 0.5625 h 0.29688 c 0.09375,0 0.16406,-0.019531 0.21875,-0.0625 0.0625,-0.050781 0.09375,-0.125 0.09375,-0.21875 0,-0.09375 -0.03125,-0.16016 -0.09375,-0.20312 -0.054687,-0.050781 -0.125,-0.078125 -0.21875,-0.078125 z"
         id="path65" />
    </symbol>
    <symbol
       id="m"
       overflow="visible">
      <path
         d="m 0.23438,-1.5312 h 0.48438 v 1.5 c 0,0.20703 -0.054688,0.36328 -0.15625,0.46875 C 0.46876,0.55083 0.33204,0.60943 0.15626,0.60943 h -0.25 V 0.28131 h 0.078125 c 0.09375,0 0.15625,-0.023438 0.1875,-0.0625 0.039063,-0.042969 0.0625,-0.125 0.0625,-0.25 z m 0,-0.59375 H 0.71876 V -1.7187 H 0.23438 Z"
         id="path68" />
    </symbol>
  </defs>
  <g
     id="g159">
    <path
       d="m 435.18,308.14 -59.023,-76.945 0.0547,-0.16797 -157.3,0.50391 0.0547,0.11328 -58.965,76.945 c -5.2656,6.832 -3.9766,16.574 2.8555,21.84 2.8008,2.1836 6.1602,3.2461 9.4648,3.2461 4.6484,0 9.2969,-2.0703 12.375,-6.1055 l 51.688,-67.367 18.367,30.07 21.953,0.11328 c -3.0234,4.4258 -4.8164,9.8008 -4.8164,15.625 0,15.289 12.375,27.719 27.664,27.719 15.289,0 27.719,-12.375 27.719,-27.719 0,-5.6562 -1.6797,-10.977 -4.6484,-15.344 l 22.457,0.11328 15.176,-29.121 50.176,65.406 c 3.0781,4.0312 7.7266,6.1055 12.375,6.1055 3.3047,0 6.6641,-1.0625 9.4648,-3.1914 6.8906,-5.2656 8.1797,-15.008 2.9141,-21.84 z m -135.63,14.449 c -9.1836,0 -16.633,-7.4492 -16.633,-16.633 0,-7.0547 4.4258,-13.105 10.695,-15.512 1.8477,-0.72656 3.8086,-1.1211 5.9375,-1.1211 2.1836,0 4.1992,0.39062 6.1055,1.1758 6.1602,2.4062 10.527,8.457 10.527,15.457 0,9.2383 -7.4492,16.633 -16.633,16.633 z"
       fill="#010101"
       id="path73" />
    <path
       d="m 549.48,88.12 v 1.0625 c 0,0 -1.3438,0 -3.7539,0.0547 -2.4062,0.0547 -5.7695,0.16797 -9.9102,0.16797 -8.1758,0.0547 -19.039,0.16797 -29.961,0.22266 -10.922,-0.11328 -21.785,-0.16797 -29.961,-0.22266 -3.4727,0 -6.4961,-0.11328 -8.793,-0.16797 v 23.969 h 5.207 c 7.0547,0 12.824,5.7695 12.824,12.824 v 42.559 c 0,7.0547 -5.7695,12.77 -12.824,12.77 h -17.359 c -0.78516,0 -1.625,-0.0547 -2.3516,-0.22266 l -83.047,31.023 h -147.56 l -84.559,-31.359 c -1.1758,0.33594 -2.4062,0.55859 -3.6953,0.55859 h -17.359 c -7.0547,0 -12.77,-5.7695 -12.77,-12.77 v -42.559 c 0,-7.0547 5.7695,-12.824 12.77,-12.824 h 1.793 v -21.617 c -0.78516,0.33594 -1.625,0.61719 -2.5195,0.89453 -1.6797,0.55859 -3.5273,1.2305 -5.6016,1.7344 -4.0898,1.1211 -8.8477,2.0703 -13.945,2.6875 -2.5742,0.33594 -5.207,0.61719 -7.8945,0.72656 -2.6875,0.22266 -5.375,0.22266 -8.1211,0.28125 -2.7422,-0.0547 -5.4883,-0.0547 -8.1211,-0.28125 -1.3438,-0.0547 -2.6875,-0.16797 -3.9766,-0.33594 -1.2891,-0.11328 -2.6328,-0.22266 -3.8633,-0.39062 -5.1523,-0.61719 -9.9102,-1.625 -14,-2.7422 -2.0703,-0.55859 -3.9219,-1.1758 -5.6016,-1.7344 -1.6797,-0.50391 -3.0781,-1.1211 -4.3125,-1.625 -1.1758,-0.44922 -2.1289,-0.95312 -2.7422,-1.2305 -0.61719,-0.33594 -0.95312,-0.50391 -0.95312,-0.50391 v -1.0625 c 0,0 1.3438,-0.0547 3.7539,-0.11328 2.4062,0 5.7695,-0.16797 9.9102,-0.16797 8.1758,-0.0547 19.098,-0.16797 29.961,-0.22266 10.922,0.0547 21.785,0.16797 29.961,0.22266 4.0898,0 7.5039,0.16797 9.9102,0.16797 2.4062,0.0547 3.7539,0.11328 3.7539,0.11328 0,0 0.33594,-0.22266 0.95312,-0.50391 0.61719,-0.28125 1.5664,-0.78516 2.7422,-1.2305 1.2305,-0.50391 2.6328,-1.1211 4.3125,-1.625 1.6797,-0.55859 3.5273,-1.2305 5.6016,-1.7344 4.0898,-1.1211 8.8477,-2.0703 14,-2.6875 1.2891,-0.22266 2.5742,-0.33594 3.8633,-0.44922 1.2891,-0.16797 2.6328,-0.22266 3.9766,-0.33594 2.6875,-0.16797 5.375,-0.22266 8.1211,-0.22266 2.7422,0.0547 5.4336,0.0547 8.1211,0.28125 2.6875,0.16797 5.3203,0.39062 7.8945,0.72656 5.0977,0.61719 9.9102,1.625 13.945,2.7422 2.0703,0.50391 3.9219,1.1758 5.6016,1.7344 1.6797,0.50391 3.1367,1.1211 4.3125,1.625 1.2305,0.44922 2.1289,0.95312 2.7422,1.2305 0.61719,0.33594 1.0078,0.50391 1.0078,0.50391 v 1.0625 c 0,0 -1.3438,0 -3.7539,0.0547 -2.4062,0.0547 -5.7695,0.16797 -9.9102,0.16797 -8.1758,0.0547 -19.039,0.16797 -29.961,0.22266 -10.922,-0.11328 -21.785,-0.16797 -29.961,-0.22266 -3.4727,0 -6.4961,-0.11328 -8.793,-0.16797 v 23.969 h 5.207 c 7.0547,0 12.824,5.7695 12.824,12.824 v 24.977 l 81.031,30.07 h 4.7617 c 6.832,-16.07 22.793,-27.328 41.328,-27.328 h 51.91 c 12.375,0 23.633,5.0391 31.754,13.16 3.8086,3.8086 6.8867,8.2891 9.1289,13.215 l 75.602,-28.281 v -25.762 c 0,-7.0547 5.7695,-12.824 12.77,-12.824 h 1.793 v -21.617 c -0.78516,0.33594 -1.625,0.61719 -2.5195,0.89453 -1.6797,0.55859 -3.5273,1.2305 -5.6016,1.7344 -4.0898,1.1211 -8.8477,2.0703 -13.945,2.6875 -2.5742,0.33594 -5.207,0.61719 -7.8945,0.72656 -2.6875,0.22266 -5.375,0.22266 -8.1211,0.28125 -2.7422,-0.0547 -5.4883,-0.0547 -8.1211,-0.28125 -1.3438,-0.0547 -2.6875,-0.16797 -3.9766,-0.33594 -1.2891,-0.11328 -2.6328,-0.22266 -3.8633,-0.39062 -5.1523,-0.61719 -9.9102,-1.625 -14,-2.7422 -2.0703,-0.55859 -3.9219,-1.1758 -5.6016,-1.7344 -1.6797,-0.50391 -3.0781,-1.1211 -4.3125,-1.625 -1.1758,-0.44922 -2.1289,-0.95312 -2.7422,-1.2305 -0.61719,-0.33594 -0.95312,-0.50391 -0.95312,-0.50391 v -1.0625 c 0,0 1.3438,-0.0547 3.7539,-0.11328 2.4062,0 5.7695,-0.16797 9.9102,-0.16797 8.1758,-0.0547 19.098,-0.16797 29.961,-0.22266 10.922,0.0547 21.785,0.16797 29.961,0.22266 4.0898,0 7.5039,0.16797 9.9102,0.16797 2.4062,0.0547 3.7539,0.11328 3.7539,0.11328 0,0 0.33594,-0.22266 0.95312,-0.50391 0.61719,-0.28125 1.5664,-0.78516 2.7422,-1.2305 1.2305,-0.50391 2.6328,-1.1211 4.3125,-1.625 1.6797,-0.55859 3.5273,-1.2305 5.6016,-1.7344 4.0898,-1.1211 8.8477,-2.0703 14,-2.6875 1.2891,-0.22266 2.5742,-0.33594 3.8633,-0.44922 1.2891,-0.16797 2.6328,-0.22266 3.9766,-0.33594 2.6875,-0.16797 5.375,-0.22266 8.1211,-0.22266 2.7422,0.0547 5.4336,0.0547 8.1211,0.28125 2.6875,0.16797 5.3203,0.39062 7.8945,0.72656 5.0977,0.61719 9.9102,1.625 13.945,2.7422 2.0703,0.50391 3.9219,1.1758 5.6016,1.7344 1.6797,0.50391 3.1367,1.1211 4.3125,1.625 1.2305,0.44922 2.1289,0.95312 2.7422,1.2305 0.66406,0.40234 1,0.57031 1,0.57031 z"
       fill="#010101"
       id="path75" />
  </g>
</svg>
