<?xml version="1.0" encoding="UTF-8" standalone="no"?>
<svg
   width="700pt"
   height="600pt"
   version="1.1"
   viewBox="0 0 700 600"
   id="svg124"
   sodipodi:docname="noun-camera-drone-1870330.svg"
   inkscape:version="1.1.1 (3bf5ae0d25, 2021-09-20)"
   xmlns:inkscape="http://www.inkscape.org/namespaces/inkscape"
   xmlns:sodipodi="http://sodipodi.sourceforge.net/DTD/sodipodi-0.dtd"
   xmlns="http://www.w3.org/2000/svg"
   xmlns:svg="http://www.w3.org/2000/svg">
  <sodipodi:namedview
     id="namedview126"
     pagecolor="#ffffff"
     bordercolor="#666666"
     borderopacity="1.0"
     inkscape:pageshadow="2"
     inkscape:pageopacity="0.0"
     inkscape:pagecheckerboard="0"
     inkscape:document-units="pt"
     showgrid="false"
     inkscape:zoom="0.77035714"
     inkscape:cx="466.66667"
     inkscape:cy="506.25869"
     inkscape:window-width="1920"
     inkscape:window-height="992"
     inkscape:window-x="-8"
     inkscape:window-y="-8"
     inkscape:window-maximized="1"
     inkscape:current-layer="g122" />
  <defs
     id="defs56">
    <symbol
       id="r"
       overflow="visible">
      <path
         d="m 28.422,-1.7031 c -1.4688,0.76172 -3,1.3359 -4.5938,1.7188 -1.5859,0.38281 -3.2344,0.57812 -4.9531,0.57812 -5.1562,0 -9.2422,-1.4375 -12.25,-4.3125 -3.0117,-2.875 -4.5156,-6.7812 -4.5156,-11.719 0,-4.9378 1.5039,-8.8438 4.5156,-11.719 3.0078,-2.8828 7.0938,-4.3281 12.25,-4.3281 1.7188,0 3.3672,0.19531 4.9531,0.57812 1.5938,0.38672 3.125,0.96094 4.5938,1.7188 v 6.4062 c -1.4805,-1.0078 -2.9375,-1.75 -4.375,-2.2188 -1.4375,-0.4688 -2.9492,-0.70312 -4.5312,-0.70312 -2.8438,0 -5.0859,0.91406 -6.7188,2.7344 -1.625,1.8242 -2.4375,4.3359 -2.4375,7.5312 0,3.1992 0.8125,5.7109 2.4375,7.5312 1.6328,1.8242 3.875,2.7344 6.7188,2.7344 1.582,0 3.0938,-0.23438 4.5312,-0.70312 1.4375,-0.47656 2.8945,-1.2188 4.375,-2.2188 z"
         id="path2" />
    </symbol>
    <symbol
       id="f"
       overflow="visible">
      <path
         d="m 20.797,-16.875 c -0.64844,-0.3125 -1.293,-0.53516 -1.9375,-0.67188 -0.64844,-0.14453 -1.293,-0.21875 -1.9375,-0.21875 -1.9062,0 -3.375,0.60938 -4.4062,1.8281 -1.0234,1.2188 -1.5312,2.9688 -1.5312,5.25 V 4.7e-4 H 3.5627 v -23.203 h 7.4219 v 3.8125 c 0.94531,-1.5195 2.0352,-2.6289 3.2656,-3.3281 1.2383,-0.69531 2.7227,-1.0469 4.4531,-1.0469 0.25,0 0.51953,0.01172 0.8125,0.03125 0.28906,0.02344 0.71094,0.07031 1.2656,0.14062 z"
         id="path5" />
    </symbol>
    <symbol
       id="e"
       overflow="visible">
      <path
         d="m 26.719,-11.656 v 2.1094 H 9.391 c 0.17578,1.7422 0.80078,3.0469 1.875,3.9219 1.082,0.86719 2.5859,1.2969 4.5156,1.2969 1.5625,0 3.1602,-0.22656 4.7969,-0.6875 1.6328,-0.46875 3.3164,-1.1719 5.0469,-2.1094 v 5.7188 c -1.75,0.65625 -3.5078,1.1523 -5.2656,1.4844 -1.75,0.34375 -3.5078,0.51562 -5.2656,0.51562 -4.1992,0 -7.4609,-1.0625 -9.7812,-3.1875 -2.3242,-2.1328 -3.4844,-5.1289 -3.4844,-8.9844 0,-3.7812 1.1406,-6.7539 3.4219,-8.9219 2.2812,-2.1758 5.4258,-3.2656 9.4375,-3.2656 3.6445,0 6.5625,1.1016 8.75,3.2969 2.1875,2.1992 3.2812,5.1367 3.2812,8.8125 z m -7.625,-2.4688 c 0,-1.4062 -0.41406,-2.5391 -1.2344,-3.4062 -0.8125,-0.86328 -1.8867,-1.2969 -3.2188,-1.2969 -1.4375,0 -2.6055,0.40625 -3.5,1.2188 -0.89844,0.80469 -1.4531,1.9648 -1.6719,3.4844 z"
         id="path8" />
    </symbol>
    <symbol
       id="i"
       overflow="visible">
      <path
         d="m 13.969,-10.438 c -1.5547,0 -2.7188,0.26562 -3.5,0.79688 -0.78125,0.52344 -1.1719,1.293 -1.1719,2.3125 0,0.9375 0.3125,1.6719 0.9375,2.2031 0.63281,0.53125 1.5078,0.79688 2.625,0.79688 1.3945,0 2.5664,-0.5 3.5156,-1.5 0.95703,-1 1.4375,-2.2539 1.4375,-3.7656 v -0.84375 z m 11.328,-2.7969 V -9e-4 h -7.4844 v -3.4375 c -0.99219,1.4062 -2.1094,2.4336 -3.3594,3.0781 -1.2422,0.63281 -2.75,0.95312 -4.5312,0.95312 -2.4062,0 -4.3594,-0.69531 -5.8594,-2.0938 -1.4922,-1.4062 -2.2344,-3.2227 -2.2344,-5.4531 0,-2.7266 0.92969,-4.7266 2.7969,-6 1.875,-1.2695 4.8125,-1.9062 8.8125,-1.9062 h 4.375 v -0.57812 c 0,-1.1641 -0.46484,-2.0195 -1.3906,-2.5625 -0.92969,-0.55078 -2.3711,-0.82812 -4.3281,-0.82812 -1.5859,0 -3.0625,0.16406 -4.4375,0.48438 -1.3672,0.3125 -2.6328,0.78906 -3.7969,1.4219 v -5.6562 c 1.582,-0.38281 3.1758,-0.67578 4.7812,-0.875 1.6016,-0.20703 3.2031,-0.3125 4.7969,-0.3125 4.1875,0 7.207,0.82812 9.0625,2.4844 1.8633,1.6484 2.7969,4.3281 2.7969,8.0469 z"
         id="path11" />
    </symbol>
    <symbol
       id="a"
       overflow="visible">
      <path
         d="m 11.656,-29.781 v 6.5781 h 7.6562 v 5.3125 H 11.656 v 9.8281 c 0,1.0859 0.21094,1.8203 0.64062,2.2031 0.4375,0.375 1.2891,0.5625 2.5625,0.5625 h 3.7969 V 2e-4 h -6.3594 c -2.9297,0 -5,-0.60938 -6.2188,-1.8281 -1.2188,-1.2266 -1.8281,-3.3047 -1.8281,-6.2344 v -9.8281 h -3.6875 v -5.3125 h 3.6875 v -6.5781 z"
         id="path14" />
    </symbol>
    <symbol
       id="h"
       overflow="visible">
      <path
         d="m 19.344,-19.797 v -12.438 h 7.4531 V -10e-4 H 19.344 v -3.3594 c -1.0234,1.3672 -2.1484,2.3672 -3.375,3 -1.2305,0.63281 -2.6523,0.95312 -4.2656,0.95312 -2.8555,0 -5.2031,-1.1328 -7.0469,-3.4062 -1.8359,-2.2695 -2.75,-5.1914 -2.75,-8.7656 0,-3.5703 0.91406,-6.4922 2.75,-8.7656 1.8438,-2.2812 4.1914,-3.4219 7.0469,-3.4219 1.6016,0 3.0195,0.32422 4.25,0.96875 1.2383,0.64844 2.3672,1.6484 3.3906,3 z m -4.8906,15.016 c 1.5938,0 2.8047,-0.57812 3.6406,-1.7344 0.83203,-1.1641 1.25,-2.8516 1.25,-5.0625 0,-2.207 -0.41797,-3.8906 -1.25,-5.0469 -0.83594,-1.1641 -2.0469,-1.75 -3.6406,-1.75 -1.5742,0 -2.7773,0.58594 -3.6094,1.75 -0.83594,1.1562 -1.25,2.8398 -1.25,5.0469 0,2.2109 0.41406,3.8984 1.25,5.0625 0.83203,1.1562 2.0352,1.7344 3.6094,1.7344 z"
         id="path17" />
    </symbol>
    <symbol
       id="d"
       overflow="visible">
      <path
         d="m 15.906,-4.7812 c 1.5938,0 2.8047,-0.57812 3.6406,-1.7344 0.83203,-1.1641 1.25,-2.8516 1.25,-5.0625 0,-2.207 -0.41797,-3.8906 -1.25,-5.0469 -0.83594,-1.1641 -2.0469,-1.75 -3.6406,-1.75 -1.5859,0 -2.8047,0.58594 -3.6562,1.75 -0.84375,1.168 -1.2656,2.8516 -1.2656,5.0469 0,2.1992 0.42188,3.8828 1.2656,5.0469 0.85156,1.168 2.0703,1.75 3.6562,1.75 z m -4.9219,-15.016 c 1.0195,-1.3516 2.1484,-2.3516 3.3906,-3 1.2383,-0.64453 2.6641,-0.96875 4.2812,-0.96875 2.8633,0 5.2109,1.1406 7.0469,3.4219 1.832,2.2734 2.75,5.1953 2.75,8.7656 0,3.5742 -0.91797,6.4961 -2.75,8.7656 -1.8359,2.2734 -4.1836,3.4062 -7.0469,3.4062 -1.6172,0 -3.043,-0.32031 -4.2812,-0.95312 -1.2422,-0.64453 -2.3711,-1.6445 -3.3906,-3 v 3.3594 H 3.5622 v -32.234 h 7.4219 z"
         id="path20" />
    </symbol>
    <symbol
       id="c"
       overflow="visible">
      <path
         d="m 0.51562,-23.203 h 7.4219 l 6.2344,15.75 5.2969,-15.75 h 7.4219 l -9.7656,25.406 c -0.98047,2.5703 -2.1211,4.375 -3.4219,5.4062 -1.3047,1.0312 -3.0273,1.5469 -5.1719,1.5469 h -4.2812 v -4.875 h 2.3125 c 1.2578,0 2.1758,-0.19922 2.75,-0.59375 0.57031,-0.39844 1.0156,-1.1172 1.3281,-2.1562 l 0.21875,-0.64062 z"
         id="path23" />
    </symbol>
    <symbol
       id="b"
       overflow="visible">
      <path
         d="m 3.8906,-30.922 h 13.234 c 3.9375,0 6.957,0.875 9.0625,2.625 2.1016,1.7422 3.1562,4.2266 3.1562,7.4531 0,3.25 -1.0547,5.75 -3.1562,7.5 -2.1055,1.7422 -5.125,2.6094 -9.0625,2.6094 h -5.25 V -5e-4 H 3.8902 Z m 7.9844,5.7812 v 8.625 h 4.4062 c 1.5391,0 2.7344,-0.375 3.5781,-1.125 0.8437,-0.75 1.2656,-1.8164 1.2656,-3.2031 0,-1.375 -0.42188,-2.4297 -1.2656,-3.1719 -0.84375,-0.75 -2.0391,-1.125 -3.5781,-1.125 z"
         id="path26" />
    </symbol>
    <symbol
       id="g"
       overflow="visible">
      <path
         d="m 14.609,-18.453 c -1.6484,0 -2.9023,0.59375 -3.7656,1.7812 -0.86719,1.1797 -1.2969,2.875 -1.2969,5.0938 0,2.2188 0.42969,3.9219 1.2969,5.1094 0.86328,1.1797 2.1172,1.7656 3.7656,1.7656 1.6133,0 2.8477,-0.58594 3.7031,-1.7656 0.85156,-1.1875 1.2812,-2.8906 1.2812,-5.1094 0,-2.2188 -0.42969,-3.9141 -1.2812,-5.0938 -0.85547,-1.1875 -2.0898,-1.7812 -3.7031,-1.7812 z m 0,-5.3125 c 3.9883,0 7.1016,1.0781 9.3438,3.2344 2.25,2.1562 3.375,5.1406 3.375,8.9531 0,3.8125 -1.125,6.7969 -3.375,8.9531 -2.2422,2.1484 -5.3555,3.2188 -9.3438,3.2188 -4.0117,0 -7.1484,-1.0703 -9.4062,-3.2188 -2.25,-2.1562 -3.375,-5.1406 -3.375,-8.9531 0,-3.8125 1.125,-6.7969 3.375,-8.9531 2.2578,-2.1562 5.3945,-3.2344 9.4062,-3.2344 z"
         id="path29" />
    </symbol>
    <symbol
       id="q"
       overflow="visible">
      <path
         d="m 25.422,-29.953 v 6.5469 c -1.6992,-0.75781 -3.3594,-1.332 -4.9844,-1.7188 -1.6172,-0.38281 -3.1406,-0.57812 -4.5781,-0.57812 -1.8984,0 -3.3047,0.26562 -4.2188,0.79688 -0.90625,0.52344 -1.3594,1.3359 -1.3594,2.4375 0,0.82422 0.30469,1.4688 0.92188,1.9375 0.61328,0.46094 1.7266,0.85547 3.3438,1.1875 l 3.3906,0.6875 c 3.4375,0.6875 5.8789,1.7344 7.3281,3.1406 1.457,1.4062 2.1875,3.4141 2.1875,6.0156 0,3.4062 -1.0156,5.9453 -3.0469,7.6094 -2.0234,1.6562 -5.1094,2.4844 -9.2656,2.4844 -1.9609,0 -3.9297,-0.1875 -5.9062,-0.5625 -1.9688,-0.36328 -3.9453,-0.91016 -5.9219,-1.6406 v -6.7344 c 1.9766,1.0547 3.8906,1.8438 5.7344,2.375 1.8438,0.5312 3.6172,0.79688 5.3281,0.79688 1.7383,0 3.0703,-0.28906 4,-0.875 0.92578,-0.58203 1.3906,-1.4102 1.3906,-2.4844 0,-0.96875 -0.32031,-1.7109 -0.95312,-2.2344 -0.625,-0.53125 -1.875,-1.0039 -3.75,-1.4219 l -3.0938,-0.67188 c -3.0938,-0.66406 -5.3555,-1.7227 -6.7812,-3.1719 -1.4297,-1.4453 -2.1406,-3.3984 -2.1406,-5.8594 0,-3.082 0.99219,-5.4531 2.9844,-7.1094 1.9883,-1.6562 4.8477,-2.4844 8.5781,-2.4844 1.6953,0 3.4414,0.13281 5.2344,0.39062 1.7891,0.25 3.6484,0.63281 5.5781,1.1406 z"
         id="path32" />
    </symbol>
    <symbol
       id="p"
       overflow="visible">
      <path
         d="m 25.062,-19.344 c 0.9375,-1.4375 2.0508,-2.5312 3.3438,-3.2812 1.2891,-0.75781 2.7109,-1.1406 4.2656,-1.1406 2.6562,0 4.6797,0.82422 6.0781,2.4688 1.3945,1.6484 2.0938,4.0391 2.0938,7.1719 v 14.125 h -7.4531 v -12.094 c 0.0078,-0.17578 0.01953,-0.36328 0.03125,-0.5625 0.0078,-0.19531 0.01563,-0.47266 0.01563,-0.82812 0,-1.6445 -0.24609,-2.8359 -0.73438,-3.5781 -0.48047,-0.73828 -1.2617,-1.1094 -2.3438,-1.1094 -1.4062,0 -2.4961,0.58594 -3.2656,1.75 -0.76172,1.1562 -1.1562,2.8359 -1.1875,5.0312 V -2e-5 h -7.4531 v -12.094 c 0,-2.5703 -0.22656,-4.2266 -0.67188,-4.9688 -0.4375,-0.73828 -1.2188,-1.1094 -2.3438,-1.1094 -1.4297,0 -2.5273,0.58594 -3.2969,1.75 -0.77344,1.168 -1.1562,2.8398 -1.1562,5.0156 v 11.406 h -7.4688 v -23.203 h 7.4688 v 3.4062 c 0.90625,-1.3125 1.9453,-2.3008 3.125,-2.9688 1.1875,-0.66406 2.4883,-1 3.9062,-1 1.6016,0 3.0195,0.39062 4.25,1.1719 1.2266,0.77344 2.1602,1.8555 2.7969,3.25 z"
         id="path35" />
    </symbol>
    <symbol
       id="o"
       overflow="visible">
      <path
         d="m 3.5625,-32.234 h 7.4219 V 0 H 3.5625 Z"
         id="path38" />
    </symbol>
    <symbol
       id="n"
       overflow="visible">
      <path
         d="m 21.688,-22.469 v 5.625 c -1.5859,-0.65625 -3.1172,-1.1484 -4.5938,-1.4844 -1.4805,-0.33203 -2.875,-0.5 -4.1875,-0.5 -1.4062,0 -2.4531,0.17969 -3.1406,0.53125 -0.6875,0.35547 -1.0312,0.89844 -1.0312,1.625 0,0.59375 0.25781,1.0547 0.78125,1.375 0.51953,0.3125 1.4453,0.54297 2.7812,0.6875 l 1.3125,0.1875 c 3.8008,0.49219 6.3516,1.2891 7.6562,2.3906 1.3125,1.1055 1.9688,2.8398 1.9688,5.2031 0,2.4688 -0.91406,4.3242 -2.7344,5.5625 -1.8242,1.2422 -4.543,1.8594 -8.1562,1.8594 -1.5312,0 -3.1172,-0.12109 -4.75,-0.35938 -1.6367,-0.23828 -3.3203,-0.59766 -5.0469,-1.0781 v -5.6406 c 1.4766,0.71875 2.9922,1.2617 4.5469,1.625 1.5508,0.35547 3.1289,0.53125 4.7344,0.53125 1.4453,0 2.5352,-0.19531 3.2656,-0.59375 0.73828,-0.40625 1.1094,-1.0039 1.1094,-1.7969 0,-0.65625 -0.25781,-1.1445 -0.76562,-1.4688 -0.5,-0.32031 -1.5078,-0.57812 -3.0156,-0.76562 l -1.2969,-0.15625 c -3.3047,-0.41406 -5.6172,-1.1797 -6.9375,-2.2969 -1.3242,-1.125 -1.9844,-2.8281 -1.9844,-5.1094 0,-2.457 0.83594,-4.2812 2.5156,-5.4688 1.6875,-1.1875 4.2695,-1.7812 7.75,-1.7812 1.3633,0 2.7969,0.10547 4.2969,0.3125 1.5078,0.21094 3.1484,0.53906 4.9219,0.98438 z"
         id="path41" />
    </symbol>
    <symbol
       id="m"
       overflow="visible">
      <path
         d="m 18.828,-32.234 v 4.875 h -4.0938 c -1.0547,0 -1.7891,0.19531 -2.2031,0.57812 -0.41797,0.375 -0.625,1.0312 -0.625,1.9688 v 1.6094 h 6.3438 v 5.3125 H 11.9061 V 8.2e-4 H 4.4999 v -17.891 H 0.8124 v -5.3125 h 3.6875 v -1.6094 c 0,-2.5312 0.70312,-4.3984 2.1094,-5.6094 1.4062,-1.207 3.5859,-1.8125 6.5469,-1.8125 z"
         id="path44" />
    </symbol>
    <symbol
       id="l"
       overflow="visible">
      <path
         d="M 26.891,-14.125 V 0 h -7.4688 v -10.766 c 0,-2.0312 -0.04687,-3.4258 -0.14062,-4.1875 -0.08594,-0.75781 -0.23438,-1.3203 -0.45312,-1.6875 -0.29297,-0.47656 -0.6875,-0.85156 -1.1875,-1.125 -0.49219,-0.26953 -1.0547,-0.40625 -1.6875,-0.40625 -1.5547,0 -2.7734,0.60156 -3.6562,1.7969 -0.875,1.1992 -1.3125,2.8555 -1.3125,4.9688 v 11.406 h -7.4219 v -32.234 h 7.4219 v 12.438 c 1.1133,-1.3516 2.2969,-2.3516 3.5469,-3 1.2578,-0.64453 2.6484,-0.96875 4.1719,-0.96875 2.6758,0 4.707,0.82422 6.0938,2.4688 1.3945,1.6484 2.0938,4.0391 2.0938,7.1719 z"
         id="path47" />
    </symbol>
    <symbol
       id="k"
       overflow="visible">
      <path
         d="m 3.8906,-30.922 h 8.9062 l 11.25,21.203 v -21.203 h 7.5625 V 0 h -8.9062 l -11.25,-21.219 V 0 H 3.8906 Z"
         id="path50" />
    </symbol>
    <symbol
       id="j"
       overflow="visible">
      <path
         d="m 3.5625,-23.203 h 7.4219 v 22.781 c 0,3.1133 -0.75,5.4883 -2.25,7.125 C 7.2422,8.3358 5.0821,9.1561 2.25,9.1561 h -3.6562 v -4.875 h 1.2812 c 1.4062,0 2.3672,-0.32031 2.8906,-0.95312 0.53125,-0.63672 0.79688,-1.8867 0.79688,-3.75 z m 0,-9.0312 h 7.4219 v 6.0469 H 3.5625 Z"
         id="path53" />
    </symbol>
  </defs>
  <g
     id="g122">
    <path
       d="m 243.09,78.062 c 59.395,-59.395 156.12,-59.395 215.52,0 3.3945,3.3945 8.4844,3.3945 11.879,0 3.3946,-3.3945 3.3945,-8.4844 0,-11.879 -31.395,-32.246 -73.816,-49.215 -119.64,-49.215 -44.969,0 -87.395,16.969 -119.64,49.215 -3.3945,3.3945 -3.3945,8.4844 0,11.879 3.3945,3.3906 9.3359,3.3906 11.879,0 z"
       id="path58" />
    <path
       d="m 442.48,106.91 c 3.3945,-3.3945 3.3945,-8.4844 0,-11.879 -50.062,-50.062 -132.36,-50.062 -182.43,0 -3.3945,3.3945 -3.3945,8.4844 0,11.879 3.3945,3.3945 8.4844,3.3945 11.879,0 43.273,-43.273 114.55,-43.273 158.67,0 3.3945,3.3945 8.4844,3.3945 11.879,0 z"
       id="path60" />
    <path
       d="m 288.06,123.03 c -3.3945,3.3945 -3.3945,8.4844 0,11.879 3.3945,3.3945 8.4844,3.3945 11.879,0 28,-28 73.816,-28 101.82,0 3.3945,3.3945 8.4844,3.3945 11.879,0 3.3945,-3.3945 3.3945,-8.4844 0,-11.879 -34.789,-34.789 -90.789,-34.789 -125.57,0 z"
       id="path62" />
    <path
       d="m 302.48,465.82 c 0,26.305 21.211,47.516 47.516,47.516 26.305,0 47.516,-21.211 47.516,-47.516 0,-26.305 -21.211,-47.516 -47.516,-47.516 -26.305,0.004 -47.516,21.215 -47.516,47.516 z m 78.062,0 c 0,16.969 -13.574,30.547 -30.547,30.547 -16.969,0 -30.547,-13.574 -30.547,-30.547 0,-16.969 13.574,-30.547 30.547,-30.547 16.969,0.004 30.547,13.578 30.547,30.547 z"
       id="path64" />
    <path
       d="m 408.55,431.88 h 1.6953 c 5.0898,0 8.4844,-3.3945 8.4844,-8.4844 0,-5.0898 -3.3945,-8.4844 -8.4844,-8.4844 H 408.55 c -5.0898,0 -8.4844,3.3945 -8.4844,8.4844 0,5.0898 4.2422,8.4844 8.4844,8.4844 z"
       id="path66" />
    <path
       d="m 584.18,266.43 c 22.062,0 37.332,-8.4844 37.332,-21.211 0,-12.727 -15.273,-21.211 -37.332,-21.211 -7.6367,0 -14.426,0.84766 -20.363,3.3945 v -20.363 c 0,-5.0898 -3.3945,-8.4844 -8.4844,-8.4844 -5.0898,0 -8.4844,3.3945 -8.4844,8.4844 v 20.363 c -5.9375,-1.6953 -12.727,-3.3945 -20.363,-3.3945 -22.062,0 -37.332,8.4844 -37.332,21.211 0,12.727 15.273,21.211 37.332,21.211 7.6367,0 14.426,-0.84766 20.363,-3.3945 v 22.062 c -7.6367,1.6953 -13.574,5.0898 -19.516,10.184 h -94.184 l -12.727,-24.605 c -1.6953,-2.5469 -4.2422,-4.2422 -7.6367,-4.2422 h -54.305 v -51.758 c 16.121,-4.2422 28,-18.668 28,-35.637 0,-20.363 -16.121,-36.484 -36.484,-36.484 -20.363,0 -36.484,16.121 -36.484,36.484 0,16.969 11.879,31.395 28,35.637 v 51.758 h -56 c -3.3945,0 -5.9375,1.6953 -7.6367,4.2422 l -12.727,24.605 h -94.184 c -5.0898,-5.0898 -11.879,-8.4844 -19.516,-10.184 v -22.062 c 21.211,6.7891 57.695,2.5469 57.695,-17.816 0,-12.727 -15.273,-21.211 -37.332,-21.211 -7.6367,0 -14.426,0.84766 -20.363,3.3945 V 207.04 c 0,-5.0898 -3.3945,-8.4844 -8.4844,-8.4844 -5.0899,0 -8.4844,3.3945 -8.4844,8.4844 v 20.363 c -19.516,-7.6406 -56,-2.5508 -56,17.812 0,20.363 36.484,25.453 57.695,17.816 v 22.062 c -18.664,4.2422 -32.242,20.363 -32.242,40.727 0,11.031 8.4844,29.695 24.605,56 3.3945,5.0938 9.3359,8.4883 16.125,8.4883 6.7891,0 12.727,-3.3945 16.121,-9.332 16.121,-26.305 24.605,-44.969 24.605,-56 0,-4.2422 -0.84766,-8.4844 -2.5469,-12.727 h 44.121 l 19.516,32.242 c 1.6953,2.5469 4.2422,4.2422 7.6367,4.2422 h 59.395 v 39.879 h -48.363 c -13.574,0 -23.758,11.031 -23.758,23.758 v 106.91 c 0,13.574 11.031,23.758 23.758,23.758 h 168.85 c 13.574,0 23.758,-11.031 23.758,-23.758 v -106.07 c 0,-13.574 -11.031,-23.758 -23.758,-23.758 h -48.363 v -39.879 h 59.395 c 2.5469,0 5.9375,-1.6953 7.6367,-4.2422 l 19.516,-32.242 h 44.121 c -1.6953,4.2422 -2.5469,8.4844 -2.5469,12.727 0,4.2422 0,16.121 24.605,56 3.3945,5.9375 9.332,9.332 16.121,9.332 6.789,0 12.727,-3.3945 16.121,-9.332 24.605,-39.879 24.605,-51.758 24.605,-56 0,-19.516 -13.574,-36.484 -32.242,-39.879 v -22.906 c 6.7891,1.6953 13.578,3.3945 21.215,3.3945 z M 331.33,179.035 c 0,-11.031 8.4844,-19.516 19.516,-19.516 11.0316,0 19.516,8.4844 19.516,19.516 0,11.0316 -8.4844,19.516 -19.516,19.516 -11.0316,0 -19.516,-9.3359 -19.516,-19.516 z m -139.15,66.18 c -8.4844,5.9375 -29.695,5.9375 -38.184,0 8.4844,-5.9375 29.695,-5.9375 38.184,0 z m -95.879,0 c 8.4844,-5.9375 29.695,-5.9375 38.184,0 -8.4883,5.0938 -29.699,5.0938 -38.184,0 z m 50.059,127.27 c -0.84766,1.6953 -2.5469,1.6953 -3.3945,0 -16.969,-26.301 -22.059,-41.574 -22.059,-46.668 0,-32.242 48.363,-32.242 48.363,0 -0.84766,5.0938 -6.7891,20.367 -22.91,46.668 z m 145.09,-89.09 h 117.09 l 5.9375,12.727 h -128.96 z m 150.18,129.82 v 106.91 c 0,4.2422 -3.3945,6.7891 -6.7891,6.7891 h -168.85 c -4.2422,0 -6.7891,-3.3945 -6.7891,-6.7891 v -106.91 c 0,-4.2422 3.3945,-6.7891 6.7891,-6.7891 h 168.85 c 3.3945,-0.84766 6.7891,2.5469 6.7891,6.7891 z M 368.661,388.61 h -38.184 v -39.879 h 38.184 z m 72.121,-56.848 h -181.57 l -11.879,-19.516 h 204.48 z m 143.39,-90.789 c 10.184,0 16.969,2.5469 19.516,4.2422 -2.5469,1.6953 -9.332,4.2422 -19.516,4.2422 -10.184,0 -16.969,-2.5469 -19.516,-4.2422 3.3945,-1.6953 9.332,-4.2422 19.516,-4.2422 z m -57.699,8.4844 c -10.184,0 -16.969,-2.5469 -19.516,-4.2422 2.5469,-1.6953 9.332,-4.2422 19.516,-4.2422 10.184,0 16.969,2.5469 19.516,4.2422 -2.5469,1.6992 -9.332,4.2422 -19.516,4.2422 z m 52.605,76.363 c 0,5.0898 -5.9375,20.363 -22.062,46.668 -0.84766,1.6953 -2.5469,1.6953 -3.3945,0 -16.121,-26.305 -22.062,-41.574 -22.062,-46.668 0.004,-32.242 47.52,-32.242 47.52,0 z"
       id="path68" />
  </g>
</svg>
